<mxfile host="app.diagrams.net" modified="2020-04-22T10:44:10.844Z" agent="5.0 (Windows NT 10.0; Win64; x64) AppleWebKit/537.36 (KHTML, like Gecko) Chrome/81.0.4044.113 Safari/537.36" etag="5TDWVtm6yf27_wTD52wS" version="12.9.14" type="github" pages="2">
  <diagram id="Xcc4vOwg-kqxjVVmaxU8" name="Dashboard">
    <mxGraphModel dx="1789" dy="783" grid="1" gridSize="10" guides="1" tooltips="1" connect="1" arrows="1" fold="1" page="1" pageScale="1" pageWidth="827" pageHeight="1169" math="0" shadow="0">
      <root>
        <mxCell id="0" />
        <mxCell id="1" parent="0" />
        <mxCell id="UtJH4K_h-ML24eUrIYq8-1" value="" style="shape=image;verticalLabelPosition=bottom;labelBackgroundColor=#ffffff;verticalAlign=top;aspect=fixed;imageAspect=0;image=data:image/png,iVBORw0KGgoAAAANSUhEUgAABt0AAAJvCAYAAAAX7B4OAAAgAElEQVR4AezdbYxc133n+X6zwGL23b6hFvtGWWCADPhCyA4IIqtghzag0W4UrCBntRIchCOrx0N6bA4H9GjowDQ60tiiBSmgZhhRsZykFZEyxSQmZdOmyLFpMqSsVmSRUttSUyElkYxJt90KSctukaIt+yxOVZ2qW7duPfdDdfWngEY1q+7T+Z7vvay6v/6fMxI8EEAAAQQQQAABBBBAAAEEEEAAAQQQQAABBBBAAAEEEECgLwIjfa1tZQQQQAABBBBAAAEEEEAAAQQQQAABBBBAAAEEEEAAAQQQCEI3EiCAAAIIIIAAAggggAACCCCAAAIIIIAAAggggAACCCDQJwGhW58ArY4AAggggAACCCCAAAIIIIAAAggggAACCCCAAAIIIICA0I0DCCCAAAIIIIAAAggggAACCCCAAAIIIIAAAggggAACCPRJQOjWJ0CrI4AAAggggAACCCCAAAIIIIAAAggggAACCCCAAAIIICB04wACCCCAAAIIIIAAAggggAACCCCAAAIIIIAAAggggAACfRIQuvUJ0OoIIIAAAggggAACCCCAAAIIIIAAAggggAACCCCAAAIICN04gAACCCCAAAIIIIAAAggggAACCCCAAAIIIIAAAggggECfBIRufQK0OgIIIIAAAggggAACCCCAAAIIIIAAAggggAACCCCAAAJCNw4ggAACCCCAAAIIIIAAAggggAACCCCAAAIIIIAAAggg0CcBoVufAK2OAAIIIIAAAggggAACCCCAAAIIIIAAAggggAACCCCAgNCNAwgggAACCCCAAAIIIIAAAggggAACCCCAAAIIIIAAAgj0SUDo1idAqyOAAAIIIIAAAgggsBAErl3/RTh38Z0w/c5PF2J39oEAAggggAACCCCAAAIIIIAAAl0SELp1CcziCCCAAAIIIIAAAggsBIEYsr36xvnwzHMvhj9+bF/Dz6M7D4VnD58IZy++sxCHYx8IIIAAAggggAACCCCAAAIIINCGgNCtDSBvI4AAAggggEBvBGI1zoNPfD2s++PxBf/Z8ODO8Mqpc70duLUQGAACMWz74p9/oyFoKwrf4mtPPntc+DYA/eYQEEAAAQQQQAABBBBAAAEEljcBodvy7n+tRwABBBBAYF4IPPjl/WFk5dpF//nIxv82L+2zUQTmi0CsbosBWgrXtj11KDx3/PsNgVpc7pVT58O+wyeqy8Z1Xpx8c74OzXYRQAABBBBAAAEEEEAAAQQQQKANAaFbG0DeRgABBBBAAIHuCfyvH9pYCtz+n09tC9u/8q0F//l3fzwe/oebPlY6hu+99nb3DbAGAotAIAZpf7bnO9UQ7chLp0J8rd3jys/eC7sP1IagjENOeiCwWATeePtHpWFPY3icAuQ4FGr8PQ6VGoNh8xIuVu/YLwIIIIAAAggggAACCMw3AaHbfBO2fQQQQAABBJYZgae/8UIp7LrpI1sWteX//r/8Vek4PvWFpxb1OOwcgU4JpMBt65f39xRKxJAuVcjFKjgPBBaKQJxXMIa9yb9OnmMQd7TDYHmh2mE/CMw1gXMX3ynNzRldj4G0wHmuCdseAggggAACCCAweASEboPXJ44IAQQQQACBJU3gr772fCns+uh/fnxR2/GlvzlSOo6PffbLi3ocdo5AJwRSYNZr4Jb2kbYTQw83dxMVz/NFIFZZpmq2fNAWh0Yd33e8+vN4poozu2ycuzDOYeiBwLAQiOdFDKGbzcsZXxc4D0tvawcCCCCAAAIIINBIQOjWyMQrCCCAAAIIINAHAaFbH/CsuiwJxBu0KYRoVaEWA7VYHZSWnWgyf1sMOuIyMQzxQKBfAnFOwehTrGbLPqKr+VAhDnMaX281LOqpt39UmoswhnLJ5fgcKz1brZfdt98RGFQCcfjUrNetfo/nT6tr/qC20XEhgAACCCCAAAIItCYgdGvNx7sIIIAAAggg0CUBoVuXwCy+7AnsqwzLF8OyZo9sBVusGIrLNgvdsiGeardmRL3eKYEUjsVALT0OPl8O4lKgEN+L3nX7iF7H6s60nRi89bKdbvdreQTmg0B+iNXodjw3oufpJ/47+Z6eBW/z0Ru2iQACCCCAAAIILB4BodvisbdnBBBAAAEEhpKA0G0ou1Wj5pFAqhaKFUDNHin4aBa05ddLN3ZjlZIHAv0QSKFw9DQ+UuVbDAxiqNDK2072G6vbUnVm3Gbcj4q3TshZZpAIxGtzCtHiczxPmnkcg+V0jU7r9HseDRILx4IAAggggAACCCx3AkK35W6A9iOAAAIIIDDHBIRucwzU5oaaQKxESzddWzU0LdNpFVCsnIjrxOEoPRDoh0ByKfr0zHO1Kp1+5x/MH1MK9+J+DI2ap+Pfg0wgXpfTNTo+d1q5lnVe2DzIPezYEEAAAQQQQACB7ggI3brjZWkEEEAAAQQQaENA6NYGkLcRyBBIgUaroSXj4umGbmbVlr9mbwK3XNCbCLQhkHUpeRgDtzjH2xtv/ygcfelU39Vu6RCyIUQcjs8DgaVAIFu11m11cbbKk/NLobcdIwIIIIAAAggg0J6A0K09I0sggAACCCCAQBcEhG5dwLLosicQb7LGICPetC16xMAjhhop7Ii/x5/4ertHWqeTZdtty/vLm0Aa3jQ5lX9uFRrHas4YznX6iHMWpu1zt1NqllssAnEIyeRrDKObDSnZ7Pii42l9lcnNKHkdAQQQQAABBBBYWgSEbkurvxwtAggggAACA0/g42N/GUZWrg3/8//x7xf9Jx7HP/+/7xt4Zg5w+RJIoVuzCod4QzZV/8QbunG5+NNJGJFu5MaKJA8E+iGQHExO5Z9bDaeXlu10zqoYWkTX43pxvx4IDDKBVK3cj6/ZoDmG1B4IIIAAAggggAACS5uA0G1p95+jRwABBBBAYOAIpNAtBl6D8CN0GzhFHFCGQArdWlUKTUy+WQogmlXDZTZX92sKO+pe9A8EeiAQA7PkUwzEoovRy04C3bRes2C56HDSeRHX7SRgLtqG1xBYCAJZV1uFz62OJbuNTsPpVtvzHgIIIIAAAggggMDiEhC6LS5/e0cAAQQQQGDoCNz3yDOlsO3D934x3L/j2UX7+Y9ffLp0HLd+/OGhY6xBw0MghRl/tuc7TRuVqoy6uaEbqyVS2NF0w95AoAsC0aleqnCSh92EbtlqtxjueSAwqASygVknIXRRO7Lb6OY8KdqW1xBAAAEEEEAAAQQWn4DQbfH7wBEggAACCCAwVASefPZ4Kez66H9+fFHb9aW/OVI6jo999suLehx2jkArAtn5fJpV9MTKoi/++TdK82Kdu/hOyP4023a6idttdVyz7XkdgV4J9BK6xX2lsLlVFWivx2Q9BOaKQLrWRs97rVLLbqObP66YqzbYDgIIIIAAAggggMDcEhC6zS1PW0MAAQQQQGDZExC6LXsFAOiSQJrPp6jCIVZOpNCi6LlZZcWjOw+V1lMl1GVnWHzOCSRvi/xutbNUBRrXj5VvHggMIoE0/G/0tFvHU3viH0ek86TZNT0t6xkBBBBAAAEEEEBg8AkI3Qa/jxwhAggggAACS4qA0G1JdZeDHQACsbIh3nCN1Wz5cCE7TGS6KZt9LrpBm7YXK+Ty2xuA5jqEZUYg+dptIBHdTesWeb7MMGrugBLIXqNbDRPc7PCj5/Han1x3zW5GyusIIIAAAggggMDSISB0Wzp95UgRQAABBBBYEgSEbkuimxzkgBHY9lS5Mu3Zwyf6OrLsDdxuQ46+dmxlBJoQSGFCLz6mdYVuTeB6eSAIpOt39LXbISbjeZE8j0OqeiCAAAIIIIAAAggsfQJCt6Xfh1qAAAIIIIDAQBEQug1UdziYJUIgO5Rer0NCxsAtVlrEG7hxyEoVE0uk84f8MFOg0EvoFudzi+v3su6QY9W8ASKQqoujq7Fqrdn8nPlDzlbJxXWFy3lC/o0AAggggAACCCxNAkK3pdlvjhoBBBBAAIGBJdBv6PbDH18K+Z/Zq+933d4v/c2RMLJybfjYZ7/c9bpWQGAxCGTnBuq24i3evE2BWxxWMv7bA4FBIJBCt+eOf7/rw0lzEwrdukZnhQUmkALiFLy1uwbHP7TIDivZy/mxwE20OwQQQAABBBBAAIEOCQjdOgRlMQQQQAABBBDojEAvodsvf/lB+C9/9mz4jX/96VJQFsOy7M//+L+Phn//X/6qq2GbhG6d9ZelBotAvPGaQooYOLz6xvmWBxir2Y6+dKp681bg1hKXNxeBQPI5PkdXu3mkdbsdsq+bfVgWgbkgEKvbYoVxcjY+xz+eeOPtH1WrjuMy8ZoePydll1OZPBc9YBsIIIAAAggggMDgEBC6DU5fOBIEEEAAAQSGgkAvodtn/+vfVEO2Ff/np0L+JwVw/+qeBztmJHTrGJUFB4xAHKoshmfppmyshog3b2NgEW/gvjj5Zun3Z557sbpMXDbeuO10WLMBa7LDGWIC2QrO6Gn8P6KToU+jy+kcMOzeEAsyRE2LXueDt+Rws+c4j1sn58MQYdIUBBBAAAEEEEBg6AkI3Ya+izUQAQQQQACBhSXQS+j2v6z5D6XQ7etHXik82O+99nb4Z//y35aWeekHbxUuk39R6JYn4t9LiUC8CZutemt2wza+vu2pQyEGdR4IDCqBGJplg+RYxdlu+L3sPFlCiUHtWceVCERHYxVbGhK11TU7+14cFrhdRXPah2cEEEAAAQQQQACBpUFA6LY0+slRIoAAAgggsGQIdBu6vf7mxVKY9s9/976Wbfx3Y39ZWu6x3d9uuVx6U+iWSHgeBAIxYIg3VmO1WqxQi8/x352ECXFovRjAxTmD0s/uAy+GOM9Vu+BiENruGJY+gehgrLDs5xFdz857FYOHVmFxdDwuEyuHPBAYZALx/GgXtuXdzwZv8fcYvrmeD3IvOzYEEEAAAQQQQKBzAkK3zllZEgEEEEAAAQQ6ICB06wCSRYaWwLmL74T4E0O1g89/v2HunvyN1vjvOHSk4fOGVomhaFjyNga9/T7iNtL24nPRIwZ0aZk4PKUHAoNKIF6/k6vpOQbF0dtmIVp8PZ4HsUo5rZOe+w23B5WT40IAAQQQQAABBJYTAaHbcuptbUUAAQQQQGABCAjdFgCyXQwkgfzcVekmanqON2Lj/D3xZmt8zt9wNczYQHargwqh6mqcX7CT6sx20GLIHM+HWMFZ9MgGc+YpLCLktcUmEM+DeM1O1/f4HKvZuv0Diljtmf+/IAZ5HggggAACCCCAAAJLl4DQben2nSNHAAEEEEBgIAkI3QayWxzUAhCIQ4zFICENARkDhRjEtboJG9+LAVz2xm0cpswcPwvQYXbRMYHs/GrNgrKON9ZmwRhmxHAvnhPx3PBAYBAJ5AO3fisy43mV/X9A8DaIve6YEEAAAQQQQACBzggI3TrjZCkEEEAAAQQQ6JCA0K1DUBZDIEMgVvPEm65bv7y/euM1hm/NhidLq6ahLON5F3/ijVqVQYmO57kkkK3GaRUk97vPOOdhDB/iucDlfmlafz4IZIeUjJ62u053egzZcDueA7Hi0wMBBBBAAAEEEEBg6REQui29PnPECCCAAAIIDDQBodtAd4+DG3ACscon3mhN4Vus+EnBQ3zvjbd/VJorLl9lka2QyK4z4M11eEuIQAzakmfRsbkKGrIIssNKChyyZPw+KARiRXM6D+YycEvtywdv83GepX15RgABBBBAAAEEEJgfAkK3+eFqqwgggAACCCxbAkK3Zdv1Gj6HBGLAFoeqjDd3Y8DWLGSLN313H3ixNIxlvFmb1jEs3xx2hk1VCWRDsbkO3rJhQ3TaA4FBIxCvy7ECOYVu/Q4p2ax92aEm42cqDwQQQAABBBBAAIGlRUDotrT6y9EigAACCCAw8ARS6Hb3f3qso2N9/c2LYWTl2vDPf/e+lsv/u7G/LC332O5vt1wuvbn96W+Vlv/YZ7+cXvKMwMAQOPrSqVLFWhwestkj3tBNN3fTczZkK6qASFUYMaTzQGA+CGTnIIzBW3Sun0cMMrLD9cXgOL7mgcCgEciGznHuzvl6RP8XajjX+WqD7SKAAAIIIIAAAsuZgNBtOfe+tiOAAAIIIDAPBN764U9KYVcM0r525GTbPcxH6PbSD94Ov/X/fq50HE99/fm2x2ABBBaaQArR4nMMLuI8Vi9Ovlk3ZF+a2yqGEDGAKwrZ8sedgrr5vCGc36d/Lz8C2eAtOhxdTcOgdkPj1TfO11UOCdy6oWfZhSaQrXKbz3kNY7tUfi5079ofAggggAACCCAwdwSEbnPH0pYQQAABBBBAoELg9//j9mrwFsO3xfq54V9t0CcIDCSBWB0Uh9DLhm/Nfu/k5m6sjIjVc2kb8zXs2UDCdFCLQiCGAmnuweRdrFiL8w62qlSL4VwMmLMBRlw/DqnngcCgEoh/9JA8X6g/asieX63OqUFl5rgQQAABBBBAAIHlSkDotlx7XrsRQAABBBCYRwLv/vxq+PyXvhb+t//rPy1K4PbP/uW/DZ/8/FPhxNS5eWylTSMwNwRiqBaHLYs3ctNN3fgcb7jGYKPVIwYYMeiI1XJpXfO5tSLmvbkkEP3Le5s8jEMNx5/oZ/o9H7TFZeP6nQTLc3nctoVAtwSy86y1uy53u+1my2f36Q8pmlHyOgIIIIAAAgggMHgEhG6D1yeOCAEEEEAAgaEi8MsPPgitfq787Gr46c/LP+/OXgvx52fx5733w8/fez/MXo0/18N718o/V9//RcvtpX0NFUSNWRIEYiVCnKMt+9PLkHsxgGgXQqSwLQUc8TnOAdTv/FpLArSDHDgCsQooP+Rk1s2i3+NQkgsVXgwcMAe05Ahkw+VOhvqdiwamOTrj+aMSdC6I2gYCCCCAAAIIILAwBIRuC8PZXhBAAAEEEEAAAQSGnECr4SJjpc/B57/fdui9dohiGBcrh7IhRgzbhBftyHl/oQhER2PlZgzhYlCRfuL5EV+PQYKh8haqN+xnrggkj+PzQj1SJWncp9BtoajbDwIIIIAAAggg0D8BoVv/DG0BAQQQQAABBBBAAIFS8JW9MZsNxvK/xxAuzsHWacXEq2+cLw3Rl91O3Fe7ijjdggACCCCAAAIIIIAAAggggAACC0dA6LZwrO0JAQQQQAABBBBAYBkSiMFYnI8nVvrEedqywVn8Pc7H9sxzL4YXJ9+sG5oy/js/X1tcXti2DCXSZAQQQAABBBBAAAEEEEAAgSVBQOi2JLrJQSKAAAIIIIAAAggMC4FY3RZDuBie5QO4Zv+OYV0crq+XOeKGhZt2IIAAAggggAACCCCAAAIIIDDoBIRug95Djg8BBBBAAAEEEEBgaAnEua3iHFdxvp4YwqVKuPgc/x1fj+97IIAAAggggAACCCCAAAIIIIDA4BMQug1+HzlCBBBAAAEEEEAAAQQQQAABBBBAAAEEEEAAAQQQQACBAScgdBvwDnJ4CCCAAAIIIIAAAggggAACCCCAAAIIIIAAAggggAACg09A6Db4feQIEUAAAQQQQAABBBBAAAEEEEAAAQQQQAABBBBAAAEEBpyA0G3AO8jhIYAAAggggAACCCCAAAIIIIAAAggggAACCCCAAAIIDD4Bodvg95EjRAABBBBAAAEEEEAAAQQQQAABBBBAAAEEEEAAAQQQGHACQrcB7yCHhwACCCCAAAIIIIAAAggggAACCCCAAAIIIIAAAgggMPgEhG6D30eOEAEEEEAAAQQQQAABBBBAAAEEEEAAAQQQQAABBBBAYMAJCN0GvIMcHgIIIIAAAggggAACCCCAAAIIIIAAAggggAACCCCAwOATELoNfh85QgQQQAABBBBAAAEEEEAAAQQQQAABBBBAAAEEEEAAgQEnIHQb8A5yeAgggAACCCCAAAIIIIAAAggggAACCCCAAAIIIIAAAoNPQOg2+H3kCBFAAAEEEEAAAQQQQAABBBBAAAEEEEAAAQQQQAABBAacgNBtwDvI4SGAAAIIIIAAAggggAACCCCAAAIIIIAAAggggAACCAw+AaHb4PeRI0QAAQQQQAABBBBAAAEEEEAAAQQQQAABBBBAAAEEEBhwAkK3Ae8gh4cAAggggEBfBD6YCS/s/Ysw+vvrww0r14aRlWvDb/ze58In//KF8PbP+tqylRFAAAEEEEAAAQQQQAABBBBAAAEEEEAgQ0DoloHhVwQQQAABBIaKwHuvh8///mgpaIthW8PPqs+FR157b6iarDEIIIAAAggggAACCCCAAAIIIIAAAggsFgGh22KRt18EEEAAAQTmlcBPwzfvqwRuqz4dPnvkYrj2QXmH1y68Gj7/h+m9x8Nhudu89oSNLx8Cv/zgg7D/6Cvhjx/b1/Cz7alDYd/hE+HcxXfCr3+9fJho6cISyDr4d997o+nO/3H6UtXR+LsHAsNC4Nr7vwjPPPdiye/njk+GDz741bA0TTsQQAABBBBAAAEElggBodsS6SiHiQACCCCAQFcE3vlW+Giluu3Df3WucdX3vhc+vapc/fa7z1xsfN8rCCDQNYFs4FEUvKXXnjv+/fCLX1ZS8K73YgUEmhPIOthL6Hbpp7Phr772fNj+9LfCm//4k+Y78g4CA0rg7R/OhAe/vL8Uuv3pV74dZi4ZS3tAu8phIYAAAggggAACQ0tA6Da0XathCCCAAALLmsCJp6rDSX7+RBGJX4TDD1SGnLzvhXClaBGvIYBAVwRaBR6x+uK7r5yp3gx+cfLNrrZtYQQ6IdDKwez6zSrdsqHbG2ens6t09Xva/uN7vhP+6crPu1rXwgj0SiBWtcXqtvQHDvH5hVfP9Lq5oV/PeTr0XayBCCCAAAIIILBIBIRuiwTebhFAAAEEEJhXAqd2h9+qVLr99iOvh2sd7mx67wOVsO6p8ELDOq+Hz1e2+ZG9M9V3q+t87Knw9ONfDL/9O+Uw74YPfzqMPv5CeDsOX/njV8OffuZzmfc+Ez75l6+GKwXFPi88UgkDt/xtePqBz4R/UanI+43f+1z49DOvl9a5cupo+Px/+HTmvS+Gz3/zXPN2Nuz/02H0kaPhT7dU9vXI69X2hFBr5+f//qfh5N6/CKO/vz7csLLC5NTu8NslDqPhsy/8IrNe5tfXEv/14ZHXMq/7dagJtAs8fv3rX4fjJ/6hdEN41/7vhveuXR9qHhq38ATaOZiOKN1sj6FE/H2uH2n7Qre5Jmt7rQjEqrZY3RZ/vv3i66Vr7VNffz78/L1OPwW12vrwvec8Hb4+1SIEEEAAAQQQGAwCQrfB6AdHgQACCCCAwNwSeP/18Pl/XQmUVq4Nv/HRPwmffeZoOPzaxXClxRxu1QAtBUx1R1ULowpDt0ogN5J//p3R8Bv51yr/vuGT3wpv54K3aujWbJ3fGQ03NHmvKGC8duKp8OFKcNdwbGk7TUK3G1ZV5r4rLZeCyJ+Gr26qsF3/rdBYC/KLcPjBynqF79dB9Y8hItBJ4OEm5xB1+AA2pRMH42EnD4VuA9iJDqlnArGqLTodq92u/Oy9EAO3+O+ptwyjXQQ1XQeE40V0vIYAAggggAACCPROQOjWOztrIoAAAgggMNAEWoVNN3z4M6Wqselc4NVf6DYafnf7q6G0zQ9+EaaPPF6pCIsB1Wj46K4z5cq23Huj3/xpHcda6LYhfHLvuco6Pw0ndz2QCds2hM8emQnX4vF/kH0vV1mWmbvuhj98Khy+UKlMe/+n4eQzX6yFgU1Ct3jcHx47EF44n6toa1XJ9uNvhY+UQroWlXB1LfaPYSHQSeBx7uI/lW4C529yxmHR4o3hWAEX5yN66C++Ef760EvhpR+8FXY8czhkl3/j7R+Vlmk1X1HcVrzZ/OW/PVq6+TwsjLWjNYFOHIxbSDfb86FbHAoyupZ/Pa4TKzNjpeaf/XX5/W1PHQpf+87J8ON/ql3Dv/8PPyytG9cv+tl/9JUQjzE9fv3rEM5eeKfkenQ+uh/PgehvPCeyj6vXroed+79b2u5bP5wJPzj9w9Kycfn43sWZKyEeU9xGnNer6HHhJ5fDI08+V/qJv3sMD4EYssXrXbb/Uwj37OETTefRzDsYvR3fdzx877W3m67TybmQJRvn8Izbi9uN2y86d9Ly6RyKrkevs4/sORCXS4903sb/K+J5Ec/LuI+4rzhHYzyffhUbWnmkfRSdo/G1/Hma1vOMAAIIIIAAAggg0BkBoVtnnCyFAAIIIIDA0iTws3Phq9v/JHzk97IVW7UKuBt+/6nwQqbyra/Q7WMHwtt1lDLzxm06mps3LvNebk65auj20Kt1WwvhYvjz/6987P/i8fwcLbX3fuuJ2nvV9qx6PBzOtDNt+IWHKiyahG4feabZX8fPhKfXV9bNte3k4+vLQ3T+693hZO3ectql5yEm0C7wiDc9D1eGPPvrg38f3r/+yxKNeEP2uePfLwwp0k3RbOgW54d75rkXS8vHECQOW5l9xO3Fm8xx3aL3s8v6fbgIZB1M7rR7jgFceqSb93Gd7OuzV98Puw+UnctvL97cP3fxndImurmZ3877vd9+uW4I1mzgEIOzdBwpnMjO51UUGsTz5Dt/P1Var+j9xMDz0iRwcupcqW/jtTFeI+MjDTcZfSkKWaOD6ZqcfMo+/8Xev2uYk/CHP75UDaazy8bfY+D33VdO1wVc8ZyK28kvm5b/+++/Vbd8OoeS19neyJ4DRaFb0T7Sa8+frB1X2kd6L//s/MhS9zsCCCCAAAIIINA9AaFb98ysgQACCCCAwNIk8MEvwpXzZ8Lhb/5tGP39Wgj3u5lgqRpS9TK8ZMFQim//zefKAVQX71VDt7ogrIy8OCRr/l51Ww98r3C+t+r7dfuqDaP5+RPNuzpWEpbnzdsQHjlVWe7974XPVoayzHJtvhXvDBOBbODxd997o65p8Sbwd185U7opG2/M/uBMrUrhxOtnSzdkY3gx+Q//WKoEijlavFmbwrVs6BY33KqSLVbTxUMd/X4AACAASURBVJvMrSrh6g7OP4aGQNbB/I30Zv/OhmvNQrfXzlwoORqDgEs/nS3xioHFscochflKolRJl/c2C/rFyTer3r9xdjp88KtflcKHGGrEiqV4vDEQSRU62cAhnkP//bs/CJfffS9kM+dWlWypbdlKqOzx+H3pEsj+IUIM39IjG8TGwDX/BwrZa+8/nJ0uuRZ9io7HP4yIDh58/vslN+M2fzZ7LTz5bLla7etHXqnOFRfPhVffOF+tovzRzJXSIcTjihXLcTtPf+OF0jU9bj8uH/cdXYw/b/7jT9IhhxSI9Rq6xYDvwo8vl86L+IcdR146Vdp/0f8HnZyn1QPzCwIIIIAAAggggEDHBIRuHaOyIAIIIIAAAkNE4IMz4ZE059sna/OSXTv2eDkkm6PQrRriFYRuzd4rDsLK7Lt9r7r8PIRupcq7j5ar3W6obP/KN79Y5rfqT8I3jVw2RCdMZ03pJPCIN1izlQ1xmLI4PF68KRtvwuYf71z5ecPwknGZcuXRRGm9OIRaemRvMsd5jfJD9KXlPA8ngayD+eA32+J0sz1610nolg0CYniVHjEQi8FC/MmGX2n7zUK3dt7HECKeK9n1s6FbDDiy+0vHk21/3v801GC2Eiqt53lpE4jDiUZfiobTbfZeOweLiKTzIAZvMYBr94jnQTyuGHj9+J/erVs8W/mcrSxL++gldPtvT//3MP1ObbjXuMNsIPnqG/9YdwztztO6hf0DAQQQQAABBBBAoGMCQreOUVkQAQQQQACBpUIgM/ThlhcKK7xCmAlPf6wyPGI2kHr1qcq8aZ8Jf34+1973XgifLM1VtjZ8ZG9tvpxm4Vlcu5f3qkFZXfVZ+Vi6fa+6/x6Hl2xV6RaP6NoLj9d4vX0mPPJ7Zaa/1TD8ZY6lfw4lgewN/xhmZH/iPFiHvvuD8M7ln9W1PVXfxJul+ZuyccH0fjZ8SBtIN2djZUOczyg+0nBq8UZvs3mt0vqeh49A1sG5DN1i5U+qPotex6rM3QcmSvNUpcq3LM12N/OT1828z1YUxW3FRzZ0S69l95l+T5We8RjjPG/x8fP3roWnvv586ZzMVkKldTwvXQLZPzTIXnOLfs/2fTsHi4jEcypu99svvt5QNVe0fLpGx6FSr/+iPJxwdrm3fviT0vayAVtaJ/taWid7DsTl0iO1pej/iVbXhHbnadq+ZwQQQAABBBBAAIHuCAjduuNlaQQQQAABBJYEgSsH/6QSBo2GD48dCC+cfy9cS/OLvT8TXnjiger7n32hPPdJqWGZ4RFv+OTXwslKtda1C6+Gz/9hbUjKpRK6hfe+Fz5dGe7xhj98Khy+UGnr+z8NJ5/5YviNSog4UhfwdTa8ZInXBxfDn6dqt98ZrQVw+cBySVjjIPsl0OrmZrNtp5ulzcKH9H7RzdRskBCr5GLlT6rmiUOaxQoHj+VFoFMH0832GCBkA6zkW/71SDFWBsU5Av/8q+WhH1OoEQPe6F126L60/SJv47bSfpp530/oFofuS3MapuEp03Cs2YB6eZkxvK1Nf2iQfGz1nK1ybOdgEbGFCN2Kgrh0LEK3RMIzAggggAACCCAw2ASEboPdP44OAQQQQACBHgm8F04+8blKCFSpaEsBU/V5NHx4++sNlXBxrrLfri5TvO6SCd1iNdqJp8KHK8HbSLN29Rq6hRBqAWeF1aajoVxb0WPXWW3JEug08Mg2sN0QZ82Gl0zbiJUb8SZzrOKJQUcMFeK/Y8jgsfwIdOpgCsWiK52GblmaMeCN7sahUuM28lU5cU6rOK9gs9CtnfdpeMnscIHZwCF7zNnjSr+nIQXjsH7nf/RP1Xm1skOxpmU9L20C6Q8N8sOJZluV/kAhWwHczsHs+un3VIU218NLZo/9hz++XB2SMgaK2ce7s1fDX+47Vjrn5qLSrd15mt233xFAAAEEEEAAAQQ6JyB065yVJRFAAAEEEFhyBK5deD08/cgXw4d/r1alNvI7G8JHPrM7fPVUeTi6okZdOfWt8Ok/XF+thvvtf/sn4U9f+Fb4bCW0WkqhW6l9P341/OlnPhd++3fKwdgNH/50GH3kaPjTLZWgrI/QLWTnx1s5GuoqB4vgem1oCXQaeOQBxCq1GFzE4fAm/+EfQ9xODDViJUaszIjvNQsvshVBsWooLhsDuHiT2WP5EejUwW5Ct19+8Kvwzb97teTWkZdOhfevl4fJi3NSvf7mhVJA8PQ3XqirrMx6+fLrZ0tzC0anYxVaemS9f+3MhfDBr34V4jZj4BZ9jy7/3ctvlF6L63QTusVj3Pftl0vb+K87DzUNMdKxeF6aBFKYFl1p9YcGsQrzO38/VfIhG3BlHfyHs9Ml16KnccjUvz7496XlDz7//ZKbkVDW668feaV6nY1ex3kGY9Acf2KYFR9ZD3d+/bvhJ5feLV3b4+vffeVMycu4/NsXakN2Z9uU3cfld98Lf/vfv1c6ptjeuQjdsu1pdp4uTTMcNQIIIIAAAgggsLgEhG6Ly9/eEUAAAQQQQGAICJzcvj6Uqug+eiC8PQTt0YTeCHQaeOS3Hm/YPnf8+9WbqfGGav6nWegWt/Xi5Jt1y6vmyRNePv/u1MFuQrdI79zFd0qhcN7L+O9YPfT907X5pRLtvJdx2f1HXymFynGZ6H0c/rFom/G1OA9WrEZKj25Ct7jOG2//qHRsafvZsCVt0/PSJpCGDc1WRDZrUbb6MVWQtXMwVg7HP37IPn7440vVUDi5lZ7jufDdV05Xg+K4XgzwYuCWlsk+x+VjtWgMm7OPVudbWn8uQre4z3bnafa4/I4AAggggAACCCDQGQGhW2ecLIUAAggggAACCBQTuPxC+GRl+MrRb/60eBmvLgsCnQYeRTA++OBXpUqNXfu/WwoKHvqLb5SGxHvpB2+FHc8cblrpFrd15WfvhXjTOd6MjcPppRvKRfvx2nAT6NTBbkO3SC2GD4e++4Ow/elvlVxLjp698E6peidPNgYJPzjzw6qbsZIzVsylSrm4fMwa4vpxDsK4vRhCxHMghinxnMg+ug3d4pyGqVI0bjeGLh7DQyAGZmnuvk4C1WwFWfYPE/IOxuvo+L7j4XuvvV1XmZklF8PgOL/hn/11uSIzuv2175wMP/6n4s8A8Vjj9uJ24/bbLR/3Favl4nkR3U3nWqwI/auvPV/axlyFbp2cp9m2+x0BBBBAAAEEEECgPQGhW3tGlkAAAQQQQAABBJoSePuZz5Sr3FY9Hg6/33QxbyAwbwRKw/8dmyzdiI1DqMWh1DwQQCCE50+eLp0XMZyJwYcHAggggAACCCCAAAIIIDDfBIRu803Y9hFAAAEEEEBgeAlk5nP7rcfPDG87tWygCVycuVKqnIhzA134yeWBPlYHh8BCEYgVoHF4wFhZ1Gq+r4U6HvtBAAEEEEAAAQQQQACB5UFA6LY8+lkrEUAAAQQQQGAeCFx74fFww8q1YWTlF8NXZR3zQNgm2xGIVW2xui0GC6p52tHy/nIicHLqXOm8eOrrz4c4tKAHAggggAACCCCAAAIIILAQBIRuC0HZPhBAAAEEEEAAAQQQmAcC2fncVPPMA2CbXJIEsvO5ZefvWpKNcdAIIIAAAggggAACCCCwpAgI3ZZUdzlYBBBAAAEEEEAAAQRqBFI1zzPPvRhi0OCBAAIhvP3DmfDgl/eHL//t0RCDaQ8EEEAAAQQQQAABBBBAYKEICN0WirT9IIAAAggggAACCCCAAAIIIIAAAggggAACCCCAAAIIDC0BodvQdq2GIYAAAggggAACCCCAAAIIIIAAAggggAACCCCAAAIILBQBodtCkbYfBBBAAAEEEEAAAQQQQAABBBBAAAEEEEAAAQQQQACBoSUgdBvartUwBBBAAAEEEEAAAQQQQAABBBBAAAEEEEAAAQQQQACBhSIgdFso0vaDAAIIIIAAAggggAACCCCAAAIIIIAAAggggAACCCAwtASEbkPbtRqGAAIIIIAAAggggAACCCCAAAIIIIAAAggggAACCCCwUASEbgtF2n4QQAABBBBAAAEEEEAAAQQQQAABBBBAAAEEEEAAAQSGloDQbWi7VsMQQAABBBBAAAEEEEAAAQQQQAABBBBAAAEEEEAAAQQWioDQbaFI2w8CCCCAAAIIIIAAAggggAACCCCAAAIIIIAAAggggMDQEhC6DW3XahgCCCCAAAIIIIAAAggggAACCCCAAAIIIIAAAggggMBCERC6LRRp+0EAAQQQQAABBBBAAAEEEEAAAQQQQAABBBBAAAEEEBhaAkK3oe1aDUMAAQQQQAABBBBAAAEEEEAAAQQQQAABBBBAAAEEEFgoAkK3hSJtPwgggAACCCCAAAIIIIAAAggggAACCCCAAAIIIIAAAkNLQOg2tF2rYQgggAACCCCAAAIIIIAAAggggAACCCCAAAIIIIAAAgtFQOi2UKTtBwEEEEAAAQQQQAABBBBAAAEEEEAAAQQQQAABBBBAYGgJCN2Gtms1DAEEEEAAAQQQQAABBBBAAAEEEEAAAQQQQAABBBBAYKEICN0WirT9IIAAAggggAACCCCAAAIIIIAAAggggAACCCCAAAIIDC0BodvQdq2GIYAAAggggAACCCCAAAIIIIAAAggggAACCCCAAAIILBQBodtCkbYfBBBAAAEEEEAAAQQQQAABBBBAAAEEEEAAAQQQQACBoSUgdBvartUwBBBAAIElTeDV/ykEPxhEBzwQQAABBBBAAAEEEEAAAQQQQAABBJYEAaHbkugmB4kAAgggsOwICNwEbsmBZSe/BiOAAAIIIIAAAggggAACCCCAAAJLk4DQbWn2m6NGAAEEEBh2Ailw8Sx8G3bXtQ8BBBBAAAEEEEAAAQQQQAABBBAYEgIjV69dD34w4AAHOMABDnCAAxzgAAc4wAEOcIADHOAABzjAAQ5wgAMc4EDvDgjdhI5CVw5wgAMc4AAHOMABDnCAAxzgAAc4wAEOcIADHOAABzjAgT4dELr1CVDi23viix12HOAABzjAAQ5wgAMc4AAHOMABDnCAAxzgAAc4wAEODIsDQjehm+SaAxzgAAc4wAEOcIADHOAABzjAAQ5wgAMc4AAHOMABDnCgTweEbn0CHJb0VTv8JQEHOMABDnCAAxzgAAc4wAEOcIADHOAABzjAAQ5wgAMc6N0BoZvQTXLNAQ5wgAMc4AAHOMABDnCAAxzgAAc4wAEOcIADHOAABzjQpwNCtz4BSnx7T3yxw44DHOAABzjAAQ5wgAMc4AAHOMABDnCAAxzgAAc4wIFhcUDoJnSTXHOAAxzgAAc4wAEOcIADHOAABzjAAQ5wgAMc4AAHOMABDvTpgNCtT4DDkr5qh78k4AAHOMABDnCAAxzgAAc4wAEOcIADHOAABzjAAQ5wgAO9OyB0E7pJrjnAAQ5wgAMc4AAHOMABDnCAAxzgAAc4wAEOcIADHOAAB/p0QOjWJ0CJb++JL3bYcYADHOAABzjAAQ5wgAMc4AAHOMABDnCAAxzgAAc4MCwOCN2EbpJrDnCAAxzgAAc4wAEOcIADHOAABzjAAQ5wgAMc4AAHOMCBPh0QuvUJcFjSV+3wlwQc4AAHOMABDnCAAxzgAAc4wAEOcIADHOAABzjAAQ5woHcHhG5CN8k1BzjAAQ5wgAMc4AAHOMABDnCAAxzgAAc4wAEOcIADHOBAnw4I3foEKPHtPfHFDjsOcIADHOAABzjAAQ5wgAMc4AAHOMABDnCAAxzgAAeGxQGhm9BNcs0BDnCAAxzgAAc4wAEOcIADHOAABzjAAQ5wgAMc4AAHONCnA0K3PgEOS/qqHf6SgAMc4AAHOMABDnCAAxzgAAc4wAEOcIADHOAABzjAAQ707oDQTegmueYABzjAAQ5wgAMc4AAHOMABDnCAAxzgAAc4wAEOcIADHOjTAaFbnwAlvr0nvthhxwEOcIADHOAABzjAAQ5wgAMc4AAHOMABDnCAAxzgwLA4IHQTukmuOcABDnCAAxzgAAc4wAEOcIADHOAABzjAAQ5wgAMc4AAH+nRA6NYnwGFJX7XDXxJwgAMc4AAHOMABDnCAAxzgAAc4wAEOcIADHOAABzjAgd4dELoJ3STXHOAABzjAAQ5wgAMc4AAHOMABDnCAAxzgAAc4wAEOcIADfTogdOsToMS398QXO+w4wAEOcIADHOAABzjAAQ5wgAMc4AAHOMABDnCAAxwYFgeEbkI3yTUHOMABDnCAAxzgAAc4wAEOcIADHOAABzjAAQ5wgAMc4ECfDgjd+gQ4LOmrdvhLAg5wgAMc4AAHOMABDnCAAxzgAAc4wAEOcIADHOAABzjQuwNCN6Gb5JoDHOAABzjAAQ5wgAMc4AAHOMABDnCAAxzgAAc4wAEOcKBPB4RufQKU+Pae+GKHHQc4wAEOcIADHOAABzjAAQ5wgAMc4AAHOMABDnCAA8PigNBN6Ca55gAHOMABDnCAAxzgAAc4wAEOcIADHOAABzjAAQ5wgAMc6NMBoVufAIclfdUOf0nAAQ5wgAMc4AAHOMABDnCAAxzgAAc4wAEOcIADHOAAB3p3QOgmdJNcc4ADHOAABzjAAQ5wgAMc4AAHOMABDnCAAxzgAAc4wAEO9OmA0K1PgBLf3hNf7LDjAAc4wAEOcIADHOAABzjAAQ5wgAMc4AAHOMABDnBgWBwQugndJNcc4AAHOMABDnCAAxzgAAc4wAEOcIADHOAABzjAAQ5wgAN9OiB06xPgsKSv2uEvCTjAAQ5wgAMc4AAHOMABDnCAAxzgAAc4wAEOcIADHOBA7w4I3YRukmsOcIADHOAABzjAAQ5wgAMc4AAHOMABDnCAAxzgAAc4wIE+HRC69QlQ4tt74osddhzgAAc4wAEOcIADHOAABzjAAQ5wgAMc4AAHOMABDgyLA0I3oZvkmgMc4AAHOMABDnCAAxzgAAc4wAEOcIADHOAABzjAAQ5woE8HhG59AhyW9FU7/CUBBzjAAQ5wgAMc4AAHOMABDnCAAxzgAAc4wAEOcIADHOjdAaGb0E1yzQEOcIADHOAABzjAAQ5wgAMc4AAHOMABDnCAAxzgAAc40KcDQrc+AUp8e098scOOAxzgAAc4wAEOcIADHOAABzjAAQ5wgAMc4AAHOMCBYXFA6CZ0k1xzgAMc4AAHOMABDnCAAxzgAAc4wAEOcIADHOAABzjAAQ706YDQrU+Aw5K+aoe/JOAABzjAAQ5wgAMc4AAHOMABDnCAAxzgAAc4wAEOcIADvTsgdBO6Sa45wAEOcIADHOAABzjAAQ5wgAMc4AAHOMABDnCAAxzgAAf6dEDo1idAiW/viS922HGAAxzgAAc4wAEOcIADHOAABzjAAQ5wgAMc4AAHODAsDgjdhG6Saw5wgAMc4AAHOMABDnCAAxzgAAc4wAEOcIADHOAABzjAgT4dELr1CXBY0lft8JcEHOAABzjAAQ5wgAMc4AAHOMABDnCAAxzgAAc4wAEOcKB3B4RuQjfJNQc4wAEOcIADHOAABzjAAQ5wgAMc4AAHOMABDnCAAxzgQJ8OCN36BCjx7T3xxQ47DnCAAxzgAAc4wAEOcIADHOAABzjAAQ5wgAMc4AAHhsUBoZvQTXLNAQ5wgAMc4AAHOMABDnCAAxzgAAc4wAEOcIADHOAABzjQpwNCtz4BDkv6qh3+koADHOAABzjAAQ5wgAMc4AAHOMABDnCAAxzgAAc4wAEO9O6A0E3oJrnmAAc4wAEOcIADHOAABzjAAQ5wgAMc4AAHOMABDnCAAxzo0wGhW58AJb69J77YYccBDnCAAxzgAAc4wAEOcIADHOAABzjAAQ5wgAMc4MCwOCB0E7pJrjnAAQ5wgAMc4AAHOMABDnCAAxzgAAc4wAEOcIADHOAAB/p0QOjWJ8BhSV+1w18ScIADHOAABzjAAQ5wgAMc4AAHOMABDnCAAxzgAAc4wIHeHRC6Cd0k1xzgAAc4wAEOcIADHOAABzjAAQ5wgAMc4AAHOMABDnCAA306IHTrE6DEt/fEFzvsOMABDnCAAxzgAAc4wAEOcIADHOAABzjAAQ5wgAMcGBYHhG5CN8k1BzjAAQ5wgAMc4AAHOMABDnCAAxzgAAc4wAEOcIADHOBAnw4I3foEOCzpq3b4SwIOcIADHOAABzjAAQ5wgAMc4AAHOMABDnCAAxzgAAc40LsDQjehm+SaAxzgAAc4wAEOcIADHOAABzjAAQ5wgAMc4AAHOMABDnCgTweEbn0ClPj2nvhihx0HOMABDnCAAxzgAAc4wAEOcIADHOAABzjAAQ5wgAPD4oDQTegmueYABzjAAQ5wgAMc4AAHOMABDnCAAxzgAAc4wAEOcIADHOjTAaFbnwCHJX3VDn9JwAEOcIADHOAABzjAAQ5wgAMc4AAHOMABDnCAAxzgAAd6d0DoJnSTXHOAAxzgAAc4wAEOcIADHOAABzjAAQ5wgAMc4AAHOMABDvTpgNCtT4AS394TX+yw4wAHOMABDnCAAxzgAAc4wAEOcIADHOAABzjAAQ5wYFgcELoJ3STXHOAABzjAAQ5wgAMc4AAHOMABDnCAAxzgAAc4wAEOcIADfTogdOsT4LCkr9rhLwk4wAEOcIADHOAABzjAAQ5wgAMc4AAHOMABDnCAAxzgQO8OCN2EbpJrDnCAAxzgAAc4wAEOcIADHOAABzjAAQ5wgAMc4AAHOMCBPh0QuvUJUOLbe+KLHXYc4AAHOMABDnCAAxzgAAc4wAEOcIADHOAABzjAAQ4MiwNCN6Gb5JoDHOAABzjAAQ5wgAMc4AAHOMABDnCAAxzgAAc4wAEOcKBPB4RufQIclvRVO/wlAQc4wAEOcGAYHJgKW29ZG0ZWZn7u3Bummn3emTkW1mWXXTUejsw24TA7GcZWZbYb1/v4wXC2tO2LYfzjufey2236+3g4ko5tYrz+uFfeH8bPNzmWtE6r5+kzYd/OJ8K6ezeF38wc9423bQq337crjB89E6abtbXZdt+9GI7s2RM2fmpTWH1zrb0rPpS2ea79NuvauT5sPn6lqy80l18aD6szPG/fc7G2ft22a8dX50Nm3fR63Taatb2X10/vD7fm9nfrznO14226zckwllsvHWvteTSsvnNLWLftYDjy1mzjNk/tbdh3zddmXl0JB8ZGcx6uD2MT5e2f3XN/7r3OGI9NpP3Vt2vFJw6GqTYOHnkot4/qOZe2mX/u9Vys7Scdb//trT+26VPHwrb7toQ1t2UY37whrPnUY2Hbnslw9t365a9em7u2dPX/23xcO+b1XFgb4jUoctxxqPk1qJP+rG2nh+tj0/M536/+3ZWPuDZe3zHBhAMc4AAHOMCBAXdA6DbgHeQDuS9lHOAABzjAAQ5048DE9vW5YKB5eDW9/+HcsuvD1hNNeE/uCjflgpBagNLrzfF5CN1mz4XdY5vDjbljrYU1tXBh5OYtYevRTGjV7HPh7JVwcs+jYU0mvCvcXtxn3ObxmeZfgvLB2G3jYaIhbGjSB7NTYettmeNfuTbUBWb5bXfCIL+NZgx6eL3RxbVh5JZdYaJN0HT1Wn041ZR1pn033rsrHLmQ5TYbjjyUPxdGw+ajBQFdatvkrrpAM+53xaZjYbryfiehRdGxphCrqF2rH5oMl9P+C56HInS7NBW23ZsJ2jL9Vs9rNNz+pclMcN3rdaV2jtTYZ91o8vt8XDsqfbqQ58KKOx4N4681hvld+7tqU9i450xLP7v5v8myTbwrOO+xwooDHOAABzjAAQ4sbQeEbj7kNr8phA02HOAABzjAgaXnwMR4WJG7qb1uf+MN2KvXroR9m2o3p9PN75u2TxW2eWJHPsDYFHacSh+Ee705Pseh24WJsDkXSqV2NX8eDWu2tQg+Zi+G3Rs7CQyyLEfDrTumim9WFwRjq1vtP3MOTj25OReSDnDo9u5E2FwYUrYJvkrt7T50K/Xvqk1hbCLj+vSxsC5/DHfvbVJdVuTw5ozj10PXoUXlPKwFP0XtGg13ZasVM/0dv2gv+dDt0mQY6/KcrAWRRX2SPc/a/15jn65VTZ7n49qR+nJRzoX7w/hb9W3t1d8bN7avyHRTqJ41HnhwgAMc4AAHOMCB5e2A0C19GfJceIPNBWJ5XyD0v/7nAAc4sAQdKBoGcmyiMQDKDy2ZgrrCSqRzYceduRvcdcNW9npzfA5Dtx5u7meDuFufLBj2cPZiGP9Et4Fb4jQa1mwvCPMKQreRlRvC1sk2rhUNl5ivUivcdjqe5s911XJz9Jl4+tkHGwLCKu+Nh6vVY8XXmKJwqvnxV7dbcnhDGHupVs3WGFSOhnX7GysRL0+MN1Ry3pSrQus1tKgFP83ataE+LMz0wVIP3SZ2bGjuQbrmNDynYLbX60rNlRr7FufXfFw7Mn24aOdCLmDu1d94fsWhUMtDCbfgmGlz8XltXVw4wAEOcIADHOAAB5aHA0I3Xw6EbRzgAAc4wAEODJUDs+HAA/mg6LFwIDeEYePQkulGdcEQk+cPhttzN8Zv2pGtiCu4Of7QZHdeNQRGzYfFbPyiUjQX19owsmpL2PzsVDh7qfbB/vLpybBjy6aGasCRlZvDjtO15eI+zn71/oLlRsPt24+FkxdqwU7zbdYHQKXjbmhnhXvuBnldG2P412TOvLrArGHb3TCsb3vd/rs+P86FHXcnn4qeG1nX768xnKprZzyed2fCyUO7wu2ZufWq4Vt2yM6iKqNbxsOR7PkwW3S8jewaQ4tMaNwRo8Z2VY95VWNlUmTSfejWrB8b993ANNeG/ttbMMfkyg1h86Fz4XIaYvTSuXBg25bG8ywzrGe9G7F93belcRuJ0/xcO2r7K3Ire07MwbkwOxumTxwM6xoqCtfXhfmd9Gfza9louOurHQzFm3OoxiHx9owJBzjAAQ5wgAMc4MDwOyB088WguxtieOHFAQ5wgAMcGHgHLh9+LFddMhrqKz6Kh5ZMAUB+iMnGgK7+Zu7VPqbkZwAAIABJREFUawWh0EKGbqf3h1tzoeBIkxAjfcGZ2tMYqNW1uyisWbkhjB3PDF9Ydy5cCSefbNzmSL6qqyEYq92AL6y2u3Y9FB1r6qu64KRh243BUWr/vD6fyM//tz7cdEutnfHY60Pb/JeuLkKVmZcLhy+859laNVtj2LA21OYjvB6i3/khWVfXhcrl42vczhyGbtHf28bDkUxAHPtoSYduBWH9yBdeLrh+zoTdG+v9GFn5RDiSgrm68yz2RRd+NKybc20+rh3ZfS7kuVBQDZu9PnTj79RXCq5lhVXQOZ7Ztvu9wHW85vX/Hs5xjgMc4AAHOMCBAXFA6DYgHeHDpy8gHOAABzjAAQ7MmQPvToSNuRCqLuRoNrRkWqfu5mpBQFf3fuy3xQ3dpp7c1BAybjzcLByreDZ7JmxrMWRmY3C5NhQFMfV9NhP2bcpXGeYqWRqCsWzYUFDtdP5guCs/L1nqp7bDSy5G6FZQabnxcDiyMzcfXYND2fO/y1Dlrf0NlZgjH88Mhzc7Fbbmq4BWPRYOxIDr3ckwlgsER9J7ue8J3YQW9V6ktjW2K4Wn6TkO4zeVCZuGLnS7e084mWlfMafEq9lzI8dsuNTNNufj2lHb/0KfC625dOfvlXDkC/l5PPN/vNGsf7xecwALLDjAAQ5wgAMc4MBydEDolvsyvRwl0GYXPw5wgAMc4MCwOdAkKKt87mmoXLtlQ1hdF+xkhpgsCPBWNFSxLWboNhN2fyIbXK0NIzHQ6fMz3sS2fHj2YNg93YEnE+MNVVPr9mcCwJahW3nupFroUhTi1be1Lmxo2PYihG7Th8M9mVAwhkkbD8+Gqw1VT2neriKmrcODxuvVbDgwVs9lZGX9kKoxRC2qZjv5ZC4MzAeZGY+6Cy06a1cK27LPqzNzyS3p0K3g2lFq582bw7ptB8O+iTPh7ExtmNbGfi1iGF/r1o9m25mfa0e1HQt9LsxhpVupDaf2hjW5c3lN0dyXmXOk2nav+StzDnCAAxzgAAc4wIFl7IDQbRl3vi9Fzb6Ae50bHOAABziw9B1oCNZWbgo7TsV2NQZyN+2YbAgtqkMtNoRIRdUOBaFb7mZtNlQo/Z6tRIqfx3oOjCbDWF1guDYUD2HXTZ82Mhr5N/vDVCefGwuChrob1Q3tzIdFtbmTioY9zHNsHbrlt9347/phR7thVLzsVL6iLVaNleZPKxhCMD/0ZpVv96FKYyCWDxyLHB0NK/Lu3LYrTDSpxGrcRyPP+v7JH0Nju266bUNDGDiycjTctac8f9ZghW7dtnc2HHkoXy1VsI2bN4Tb79sVxo+eCdNN2Nf/n9TIse48qHpU7GhtW/Nx7ajtc8HOhTmc063GJrajkfNIwx9c1Npbv67X8eAABzjAAQ5wgAMcWL4OCN06/lK2fCVxgdD3HOAABzjAgSXoQEGVRenGdMPQkuX52RqGU6wM/zexPXfTvBqiZJkUBRoFN9ezQdxchm7Z7cbf+74xXNCe/PE2/QzZ5kZ1Q+i2Pqy+LVdVt+rhsO/0RNiYD4RuWR9uyrW1Lmxo2HabPli5NjfXX7ZPe/g9DuOYG6oxWxXZGATnht6sMm1kWNfO6nK1Y2wMxPKB1/VwdXJXWJ3jVx+SjYZ1+2tzweWve437aMc3fwxF7ToTjjy0ITc8atzuhjA2cWXA5nTrtr3Xw9VLZ8KOjTm/W/XBzVvC1uPN+6DcJ0UcyyFlvs9a/7txO/1fOypOzuO5UO9siz7JXbMa/W03J+E88ik4h1v3Ve1ctxwWHOAABzjAAQ5wgAOD7oDQzQd+pa4c4AAHOMABDgylAwXB0cbD4eT+h+tv8KehGBsqtOIQk40hysjYRLjcwKtgX61urMf3cjeEB6vSrWDYuXmrdLs/jB8vmJOsgd/msONw43J1YdQih26Xj+aHcMwMUxqdeXcibM4FidWKyjqnGm/217WzbtnyF87GQCEfeMXlroQDYy0CoLv31s2nlv8i17iPFoFHqf/yx9CkXbMXw/gnCo5r1f3hro/n9pE/bwpY5I+7/O8m+26xfv/trdwMmL0Spg7tCevuLmhjg+exveXAsbgdcZvdt6V4W/NX6Taf50JHoduqxvkhG/tT6FbsRcXbFueG9TDiAAc4wAEOcIADHGjlgNDNh2k3WjnAAQ5wgAMcGFIHGm+ybg633l1/E78WejQOqXjTx+9vmNOnND9XA6/FDN0KArIUJDYcZ/aLQcEx37m3OoTkws3pVg5mpgrmFsveXF+9Y6pgXrS1oS6MWtTQrWD4yIZ+mA0HHsgFL4WVk92GKo3u5ud0q34hOr0/3FoY9KwPYxOt5xdrPJ/qz6Vsf5V/7zB0i55emgxjt7XbXkFY3dLxrO/dMr0e+m9vdv+V3y9dDCcnjoXxLz0R1t27KfxmLoStMry71XCu3bel2v91vObn2nH12vyeC1VGhR6vDSvueDTsPt3IvrE/24Ruk7saKmvrhsqtY9m4v2LmlsOFAxzgAAc4wAEOcGD4HRC6+bLgRisHOMABDnCAA8PqQNOAId3cr69Eahz+Ly2Xnh8O+2aKPiAXBFjdDvHYEBjlA4ui/ZZfm3pyU3313srRsPHwldZen9rbEL5kh0JsGG5z5dpQCr5aujIT9m3KhUorc0MoNmvn7LmwIxeIVm+u3zYeJuK8aOcPhttzN9pbh26dM+z7i19b15JDjc/3PJsfTrDLUKWgLxsqKav9VjzP2IpNx8J0dZli17oOLRq216Zdbx0MdzULoVK/L2qlW5uQpqG9xRzzrp099FjBsJ/NrjVxm204dnEc83HtuDrP50L1upCcyD2v+MTBcLaAQXf+FlWFFs3n2Vkf5/vcv3HjAAc4wAEOcIADHBhmB4RuBV9IhrnDtc0FjQMc4AAHOLCcHDgXdtzZGHJUb9quGg9HZjM8GuZ7y63bNJhY3NCt8CZ3wfBqVfcLh/MbDZuPZiqdCoZCLA17d7xZmHclnHzy/rAidwO8IfxpFrrFz6SFc46tD5vTPgc4dGsML3Lu5Llk/91Q1dRFqDLzcmGFWGOQl/H8rcZhOjcfz7zf5PtBd6FF0fbat+vyxHhBAJVhuWRCt4JrQtPhOy+G8X+TaWPJjfvD7gtFDONr7TlWz/UmfVl9vygg6/PasbDnQnE4VjQ3YTf+Tn2l4FpWmeezyq4dW++3/sMPfPDhAAc4wAEOcIADQ+uA0I3cQyu3L4TNblR4nRsc4AAHlpMDrW4AZyu7ykwKhkXLhCPNg4yCG+wLWOnWdK6uVVvC5menwtlLFednZ8P0qWNh7A/y1Whrw0hD8NNseL3RcPv2Y+HkhVpAd/n0ZNixZVNj4BbnpnqptlyJcavQ7dpsmNi2oa5qb0V2Dr1BDd1mC+b+y3hTDXmbvlZfcdlRqBKHKTy0K9x+cz6sWRtGbtsVJrJhcv7zfgHHsYn218VuQovia0xnYdHUnoLAI7FbMqHb9TCxY32dy9GDG+/dFfaduhgup/55dyZM7Hm0MWhsGJo02z+dcSzug+x24u9FodXaMNLrtWMxzoUCn0fisK3pulfxv62/8frY9Fo2GoqCvM4Y55n7N24c4AAHOMABDnCAA8PtgNAt/yXcv4VwHOAABzjAAQ4MkwMF8/KUQ5DiocIab8ymUKPVUIUFoVsKCVo+Z4arawij0n5bP1fDkk7nxCo6nmaVLYUVca2PpxYwjYY12yfD5bxLDe3Mcb30cth8S2Ufqx4O+6YzX0YKbq63Hl6ys2OtbmP2XNg9tjncuHJtWPGh+8PW4/lhHzPHkmnX5aOPFQSOne078VrxwESGVWOokpZr+9ysLzPHWzRMZ9Wj7HK535ufG63bWtt2Y7uq7Ov2dSUceag+fK22e1FDt9btTMdYbe/0sbCu3XCZRedj26FcO+VY7GvDDY45vHYsxLlQ5EzRnJA3PVR//enV39ivq3PbamBY52+H3K3jsxYHOMABDnCAAxzgwJA6IHQb0o71RciXPQ5wgAMc4AAHyg40qUKKlRBxnrD8Z6GCYKd0M73lzf4BCN1iOy5MhM23dRYMpIBgZNWmMDbRbMjI6+Hq7LkwvrGgMq5JWFDe7mhYs63+hneVc7vQLd8f2X8X9E3dDfiGbXfGIm3j5JfyQU+rebWSOwXVkc3cqralYJ2VD4bd1YCxMVSp9lcr7qu2hK0nWvRl2n8Bx2pQlJYpeO41tKhtu7FdiX3Vj7TfZoFvy/Mw9UnRcxf7rhxD/+29HtoOl1nQnyvu2FWewzCxaHjuvi0NfPPbnJNrR4HX83AuFDrz7mQYS2F9lemGsHWy5kKv/bn6j46FqVSZmOfm343/h2KCCQc4wAEOcIADHFj2DgjdnATL/iRo+yWcIxzhAAc4wIEl7sDE9sZh3uori2o3Zq9eKw7Qbt15roUHxeu0D0rmsNIt9VGmWqvd/lfc8UTYdz7b9ia/z14JJ/c8GtZ0UrVz85aw9ejF5qwagrFcpVtqR9FzQVhUdwO+YdvdhW5HHsov38GxFcyJddP2qebtr7SrqCKo1pbGUKVdX8ZhC480nQMs168FHGvBWG7ZTD/0GlrUtt3YrlqbC/ZbFLwtsdAtfs6efmlP8TCg1XAoeTca1mw5GE7mhkVs/KzeJcdMHzZuK8O932vHAp0LzZy5fLig4jQzj17X/q7aFDbuOZOpQM2w6pSp5dpeC1s6iR9+HOAABzjAAQ5wYEk6IHQj7pIU15cTX3o5wAEOcIADXTgwMd4w/N/Gw7m5xjKfiaZ2bs7NxbQp7DjVan8DFLqldkyfCft2PhHW3bsp/GYmLLvxtk3hnrG9Yd+pzoZOrPPs3YvhyJ49YeOnNoXVmbnEVnxoU7j9vl1h/OiZMN2uIqQhGOsg2EptKgiL6m7AN2w7hRmtn6vbeOtguCfTrqJ57up4XLseGgPdzWHH6VauVN4rmvuqOq9eY6jSGLqNhtV3Phg2fulgOPJWc5fzx1v6dwHHWjDW/Ni7Di0qoVJt243tqrJPfZx/zg99uARDtxLz2Sth6ujBsPW+LWHNbdnK0diPW8K6bd30Yw8c81xb/bvHa8dCnQvNnSm+DqflO/G3fC17Iuw41MG1rBVD7/mOzQEOcIADHOAABziwjB0Qui3jzi+8CYGHCyIHOMABDnCAAxxYtg7UbsyvD5uPdzBUI1eWrSu+SzQPaLHBhgMc4AAHOMABDnCAA8vXAaGbGwVuFHCAAxzgAAc4wAEOcCBczcwLddMXXjasHCdcFzjAAQ5wgAMc4AAHOMABDnCgSweEbl0Ck1Av34Ra3+t7DnCAAxzgAAeG2YFqlduqx8KBtvNqcWGYXdA2fnOAAxzgAAc4wAEOcIADHOjNAaGb0E1SzQEOcIADHOAABzjAAQ5wgAMc4AAHOMABDnCAAxzgAAc40KcDQrc+AUp7e0t7ccONAxzgAAc4wAEOcIADHOAABzjAAQ5wgAMc4AAHOMCBYXJA6CZ0k1xzgAMc4AAHOMABDnCAAxzgAAc4wAEOcIADHOAABzjAAQ706YDQrU+Aw5TAaou/KOAABzjAAQ5wgAMc4AAHOMABDnCAAxzgAAc4wAEOcIADvTkgdBO6Sa45wAEOcIADHOAABzjAAQ5wgAMc4AAHOMABDnCAAxzgAAf6dEDo1idAaW9vaS9uuHGAAxzgAAc4wAEOcIADHOAABzjAAQ5wgAMc4AAHODBMDgjdhG6Saw5wgAMc4AAHOMABDnCAAxzgAAc4wAEOcIADHOAABzjAgT4dELr1CXCYElht8RcFHOAABzjAAQ5wgAMc4AAHOMABDnCAAxzgAAc4wAEOcKA3B4RuQjfJNQc4wAEOcIADHOAABzjAAQ5wgAMc4AAHOMABDnCAAxzgQJ8OCN36BCjt7S3txQ03DnCAAxzgAAc4wAEOcIADHOAABzjAAQ5wgAMc4AAHhskBoZvQTXLNAQ5wgAMc4AAHOMABDnCAAxzgAAc4wAEOcIADHOAABzjQpwNCtz4BDlMCqy3+ooADHOAABzjAAQ5wgAMc4AAHOMABDnCAAxzgAAc4wAEO9OaA0E3oJrnmAAc4wAEOcIADHOAABzjAAQ5wgAMc4AAHOMABDnCAAxzo0wGhW58Apb29pb244cYBDnCAAxzgAAc4wAEOcIADHOAABzjAAQ5wgAMc4MAwOSB0E7pJrjnAAQ5wgAMc4AAHBtmB8wfD7SvXhpGV4+HIIB+nY3MeDZQDk2GsdN7cH8bPu4kxTDcxtIXPHOAABzjAAQ5wgAOD7IDQbaC+GDpZBvlkcWz85AAHOMABDnCg5sC5sOPuGIStDSs2HQvT8/mZUuhWCrOOPFTmHZn39fPQ5PILx2Znw9kTh8OOsQfDmjvWhxVVhqNh9Z1bwrov7A37Ts0MGRehW+165dqNBQc4wAEOcIADHOAABxbKAaHbfN4gse0h++LuwrRQFyb74RoHOMABDgy6A5cnxsNN1eBic9hxeh77TOg2tKHb9GsvhwNHXw4Tb83O2+fms0d3hdtv7iyoXHHHo2F88sq8HcvCntdCt4XlPY/XQN+rh+Sc5IhzkgMc4AAHOMCB5eGA0M0HeB/gOcABDnCAAxzgAAe6cmAm7N5YH2LctH1q/hgK3TpiW62EW0KVbOmYb99zsaM2dvUl/dKZsGPjaLUqcMUdD4dtz06FqelMwDc7G6bPnwkH9jwR7vpQWnY03LPzTLjc1TkxiF+ehW5d+bLk+3sQHXRMHOQABzjAAQ5wgAPL0QGhmy8Xc/8FH1NMOcABDnCAAxwYZgdO7w+3lqrcHgy7D+2qVLw9GHZPz9MXKqFbR+dTCrBGhG7h6qWpsPUPKiHaqi1h7GgHod7slXBy54PhxpLbo+Gu+QgCF/S6IHRbjjc4tHme/h9a0HNXG3jMAQ5wgAMc4MDSdkDo5sNjRzcxnOhL+0TXf/qPAxzgAAc4MFcOzIYjD60vz+X2wES4fK02t9utO8/Nz+cqoVtHXIVuyfGZsG9TJXC77dGw7630emfPU/sfDatLwduGMPZSpipuyX1vErq57nfmPE44cYADHOAABzjAAQ7MpQNCtyX35dEJMJcngG3xiQMc4AAHOMCBrhyYPhzuKQUS68PWE2V2088+WB7C75ZdYWJ2HngK3YRuXXxnmd7/cFhRcvT+MN5l4FY+F66EIw9tKDt9994wNR9Od9Gers7Puu0K3XpnNw/Xsbq+sX19wwEOcIADHOAABzgwvA4I3Xz47+gmhovA8F4E9K2+5QAHOMABDnTuwNTOzZUwYn+YSp8j350Im1eV53i759mZuf9sJXTriKlKt+vh6uxU2HpL2cVbn+yj8rIaLo+GsYnOz4/BupYI3QarP5aqR46bRxzgAAc4wAEOcIAD3TkgdEs3Szx3dDPDCdbdCYYXXhzgAAc4wIEhcqBFuFYYxnXy+XL2Spg6tDds/NSm8JuV4G5k1fqw5lOPhR2HzoXpWGVUFLpVj6VWcdeZa7XhMJsFhJffejnsGHswrPlQZYjClaPhN+94MGzc+XI4+26r/mwMOc5OHAxjn9oUVt9cDoJGVo6G1fc+HLaltnXCqMNlug7dZmfCxLO7wrp7N1TmMVsbRm7eEG6/b1fYfaLD8HTmXNj3pYfD7Xesr1SXrQ2l/rv34bB1z2QDr7N77i+HtqVKtMSk2fP9Yfx8K94F702MV46j3zkGZ8OBsfJxrWg1R17J3z1h3b1d+lvt00Znriamt0X/xsOR6rL17Y1ubb1vS4NbJe6l6ryCbTfZVmfnTv3+rYMHBzjAAQ5wgAMc4AAHOFDkgNDNFy9hGwc4wAEOcIADHOBABw5Uh5Fc9Vg4kA+fqpVB68PYRGfzYF1+7WDYeEcKtoqDlxV3PBEOvLQ/3F4KaeoDiKknK1V3Gw+H6Q6Ov/Rl4MSucFPcVlEbZmfCgS9sqoVHRcHQzVvCthNXmviSCTkmJ8O2e9u07Q92hYlLc/clrZvQ7fJr+8M91SCwiP1oWLPlWMuhFaePj4c1KSgtYlXivCmMTdR4zXfoNrGjPN/gyFicb3Du2BZ9kYz+rrutiF3ttVb+lreZceb89TD17KM5pvXOl9a58HLY2satkZsfDDteOxbGSv3SQ3g5z+yKeHptfn3FF18OcIADHOAABzjAgYVyQOjmC1WTmyZOwoU6Ce2HaxzgAAc4wIEl4MBsrULspu1TBZ+fZsOBByohUwch2OUTu8KtlcBmxR2x8utMmM4EeZfPnwn7tm+pVWCVwoNcADF9LKwrbaPTareZsHtjORBpGHpw9mLYvbFy/Ks2hY07J8PUTC08vHx6MuzYkgK5DWHspdp7NX9TgDIaVpSOazSs2bQn7Ds1Ey6necEuXQwTe2rByopPHAxn5+jzeKeh2+WJWlh24727wr5TF2vH9+5MOHloV7i9Esg1Pb7zB8NdlTbeuu1YOHk+w2N2Nkyfngq7U/+tuj/sblKxlo759j0XC5zq9ryYCbs/Ue7f278yF9trvv8sw579LfV7cmZL2PzQ/eXA9+bNparKOqbJkbeO1YK+m7eEsT2TYSoT3F6eOReO7Kz5NSJ0mwOvmntQO/ctgwUHOMABDnCAAxzgAAeSA0K39AXOsy9kHOAABzjAAQ5wgANNHLh89LFKBdjmsON0ky8TqYpsZYtl4vYvvRw2V+bdWv1Hrauprp7eXwl3YpiSC92uXQ8T28uVTSs2HWtf7XZ6f7i1FEI0Dj149quVwGPV/WH8rSbtu3Y9TO2pLHfbrjCRgrQqsxSgxEq6TWHseK3CK335qD6fTtV7o2Hz0UxgVd1W82OobiO3bAqwRloNh/juZBirVGetfmiyeTXYpbTcaFi3v3GoyamvbCkNE7miTUVZqkZsFoKlY56b0O1iGP94OXRbt78F+xy3Zjybvn5pImysBMbt/T2YqShs9PfqtYwzK9eGGzfuDyczIVrdMczW2reiXZXkzMvVfh5ZqdKtjmO//W99/09ygAMc4AAHOMABDnCgpQNCN4K0FMQXtO5v+GCGGQc4wAEOcGDYHKhViK14oNWwfbVquFbL1eZ/29ty+MLk0eXjT5SHhCwI3a5Wh7XcHHacasW9Vol3Uz5syswPt7lVUFb63HwlHBgrV8Q1zgmXApT1of12aoHhXA2FmAKsVqFblf3H97dnf2pvOaS8pTFgTPta8+S5vj5Lp+0spdBtYseG8rx0nTCMzry2J6wpqtQs+ZScWRtiVeFUQ5Bbc7oafMehUZsFc9nvdm+lYFfolq4lnms+YYEFBzjAAQ5wgAMc4MB8OSB0y34x83tfNw3mS1LbdQHkAAc4wAEOcGBRHZjcFVaXQoP2wzhW531b2VhNVm7DVNhaqnLrosLr/MHCOd3K25sNRx6qVLu1CgSz4VyuUu/y4ccqIUqHQz1OjJer/hqq61KA0mHIcfyJ8n7v3Bum5uBzeAqwmodu58KOO2Ml2GgYm+jknEqVVevD1sn65af3P1w+9lVbwtjR3odyTMc8N6HbQgwvOdf+Jmc2tQmNr4R9m8pVfLfu7DToTNvu0Mc5cHBRr1OO33dZDnCAAxzgAAc4wAEODIQDQjciDoSIvqDW38jBAw8OcIADHODAoDhQqxAbuXt/+3CoWjW2NjTMmxY/d1YDtMfCgcwcbi37u7pO0fB82W02H9YyDXM4UjDf3MS2cuVax1VbM8fCusLKpS5DjmolUpN2dfk5PQVYTUO3CwfDXaXj7pz9xI5yoNkQisWhDj9RmQMvbnPV+rDm3ofD5m17w+6jk+Hk+Su1eeJatCMdc8P2W6zTypV0vHNVPdiwr6qLnTOsOV/Uz506k5ZrF85lrxtpHaFbQz/26JftZP3yOx84wAEOcIADHOAAB4odELr5wiF04wAHOMABDnCAAxxo5kC1QqxcZTNSCm06/D0Og5cP1qqhRVEAUfyBvXVoEdepBYOFw1pWg8DiSr0U/HTVthKH+8PuC9lj7jLk6IVFs366dj1U29FsTrfq/jrsv0xfr9g22XiOzF4JJ599ItxzWyZ8y6wTg7i7HjocTs5kGdX/no55rkK3q6kKsci9FuwavyzPhgNjZU4rsjyrDOfK306d6XS5LN9e1smu7/dGLzDBhAMc4AAHOMABDnCAA+0cELp19eWTUO2E8j5HOMABDnCAAxwYJgcmtpcrnboPpMqBRcO8Z9XQoiCQa/a5tLpOi6Dj9P7y/GMrG6t6qkNeNqnUS8FP923M76vLkKOTdjVjUvB6tR3ZkCi7XHV/3YduTavn0vbfvRKmT0+FA0cPhx3bngjr7t0QbkwB3G3j4UiTOcjSMc9Z6Dabhn9sUmmZjrfd8/SxsG5V5JQbirPKcK787dSZtJxKt2G6vmqLzwsc4AAHOMABDnCAA8PogNCt3RdO7zf+VS8mmHCAAxzgAAc4sBwcqFaIrQ3dhiLVsO7uvWFqNvtFKoUiczWnW9r2lXBgrFxxddP2qZqf1RBmNKzbP1N7PdN/U09uKs1P1vHwkpl1678gpWAkH8alY8w9VwOcFmFi033lttVJpdu7E2FjKQjrIjDqYv/1LK6HqzNnwo7KEJTN5iGrhm5f6X1euPx+43xzK2I7V90fxt9q5JRfvvHfs2Fi24bynHXz7m+nzpjTrbGfeulb6+DIAQ5wgAMc4AAHOMCB+XZA6NbPF2nrFt64mW9pbd+FkQMc4AAHOMCBhXDg7J77y8FDL0P1VQOlxnBtYkezQKNJv762J6wphUVtwqnJXWF1abkHw+7p8rYuH32sHMDcsitM1IV/mX2d2BVuiuvdMh6O5IfD7OrzbqcBSmXfVUZt2tXhMaQAq3lV2kzYvbFc5dZtiFrnW5ob7s697ef4O/5E2aEm1XdVx5q8X7ffDjlcvXYx7E7zzd32WDhQNwRopt+bbG/68GMVjzaEsZdmGz7vz62/nTtTCxMfCweaVA7W8bqU5h7sMARuwqNum5Zp8AGf9ucURhhxgAMc4AAHOMCB5eWA0M0XJ1+cOMABDnCAAxzgAAd05c0UAAAgAElEQVTyDlQrxHodpq82z9rIxsNhOrv9SxNhY2novrVh9R8dy1XC5b6MnD4Y7rk5DYfYLpyqhUqrd8Rqt4th/OPldZtVWpW//M2EfZvKVXJtj2fm5bD5lvKwg42Vc50HKKX9Lnjodj1cTcHkqi1h64krLb2f2lkJXW/LB5bnwo67ywzu2tO6Qm3qK+VtNK0iTKFcq1A0606nv1+aDGN3VOaaW7UljB1tfZyl/ohz1O18sDIs5mho2rY59bcLZ2YT97VhxR/sChOtgreZl2vtLxhy1U2P3HWmU68s1/KawStecYADHOAABzjAAQ5EB4Ruvjj44sABDnCAAxzgAAc4kHOgWiG26uGwr1I11vUXqOo8axvC1sn6Lx+XJ8bDmkrwtuKOh8O2Q2fCdKbK7PL5M2Hf9i21ecE6qXSLbUhVa6seDrsPVSrYOqnUiyHNbeWALh3P2UyocXnmXJh4dle4vRIArvjEwYKwsIsAJR7rYoRu166HqT33l6v/Vo6G2x86GI6cvhIupyrA2dlw9tTLYceWTZVlNoSxicZwLvZfuapwNKzZsr9+G9euh/r+a1FplRnCdPUfHQwTF2qVZZenz4WzXVap1Tl66UzYsbESvK1cG268++Gw7dmpMDVd28fV2dkwff5MOLDniXDXh9Kyo+GenWfC5dw5kd323PnbpTNvZULom7eEsT2TYSrn6ZGdj1bPrfI8hS34t2hjtr1+r79+4YEHBzjAAQ5wgAMc4AAHmjsgdPNFy002DnCAAxzgAAc4wIE6B2oVNXXzo9Ut0/wDdu3LR62CbMUDEw0hxuXXDoaNqRqpFKqVQ69yUJACsEfDvuP7w+2dhm6Z6rYVq8ohSsdtmJkM2+5NwUvjsZSPK4ZMhwsCt8ijywBlkUK32D9Tz+aDmYL23rwlbHupMXBL/Tu1v4NtrNoUNh8unksvbacW4DUew+1zMNfb2aO1sDTrVtHvK+54NIxPNm9zOub4HP1dVwlqi7YVX1txxxPhwEut/O3SmXgOXng5bG3naey7E8fCWOm8Ebpl+83vnVy7LcMTDnCAAxzgAAc4wIHeHRC6dX3zpHfYRMWOAxzgAAc4wAEOLAEHUrXYXAxLV91WbZ61Ogdmr4SpQ3vDxk9tCr9ZqXwbWbU+rPnUY2HHoXNhOlZgdRlOxRCnNEdbj4HD2YmDYet9W8KaauXT2nDjbZvCPWN7w75TrQKZLgOULttVx63gM3z7Od1y7s2cC/t2PhbuuXNDraIwsr/34bB1z2Q4m6rfCvZVPZaibawcDavvfDBs3HksTM3k9tlkW5dPHwvb7tsSVqehRCvHsfnAubkJxGMF34nDYcfYg2HNHesrVXwx5IvHuiWs+0Ls29bhYLXN2TaU/N0T1t3bq79dOpPZd/K0yiy2pa7vet92YVsz+/Z+Z17jhBMHOMABDnCAAxzgwHJ0QOjmy9PcfJHHEUcOcIADHOAABzgwIA6cCzvuLFdNFVXYLccvPdrsyz4HOMABDnCAAxzgAAc4wAEOLIQDQjc3hwbk5pATfiFOePvgGQc4wAEOcGAZODB9LKwrVc01ziWn/5dB//t+4/sNBzjAAQ5wgAMc4AAHOMCBRXNA6Ea+RZPPTR83fTjAAQ5wgAMc4MDcOzC1c3MozbG18XCY9lnXZ10OcIADHOAABzjAAQ5wgAMc4MCCOSB0I9uCyeam2tzfVMMUUw5wgAMc4AAH6hyYnQpbbynP1bX56KzPeT7rc4ADHOAABzjAAQ5wgAMc4AAHFtABodsCwq67IWK/TnQOcIADHOAABzjAgTl2YPrZB8tVbnfvDVOzAkmfvznAAQ5wgAMc4AAHOMABDnCAAwvpgNBtjm90LGTn2ZeLBQc4wAEOcIADHOBAzYFzYcfdscptbbjn2RmBps/5HOAABzjAAQ5wgAMc4AAHOMCBBXZA6LbAwGs3RdwgwoIDHOAABzjAAQ5wYO4cuHz0sbBi5dowcst4OPLu3G1XH2HJAQ5wgAMc4AAHOMABDnCAAxzozAGhm9BN0s0BDnCAAxzgAAc4sOQdmAm7N5ar3G7deU5/Lvn+7OzLnC+9OHGAAxzgAAc4wAEOcIADHBgsB4RuvpC7KcMBDnCAAxzgAAc4wAEOcIADHOAABzjAAQ5wgAMc4AAHONCnA0K3PgFKkQcrRdYf+oMDHOAABzjAAQ5wgAMc4AAHOMABDnCAAxzgAAc4wIHFcEDoJnSTXHOAAxzgAAc4wAEOcIADHOAABzjAAQ5wgAMc4AAHOMABDvTpgNCtT4CLkZTap4SeAxzgAAc4wAEOcIADHOAABzjAAQ5wgAMc4AAHOMABDgyWA0I3oZvkmgMc4AAHOMABDnCAAxzgAAc4wAEOcIADHOAABzjAAQ5woE8HhG59ApQiD1aKrD/0Bwc4wAEOcIADHOAABzjAAQ5wgAMc4AAHOMABDnCAA4vhgNBN6Ca55gAHOMABDnCAAxzgAAc4wAEOcIADHOAABzjAAQ5wgAMc6NMBoVufABcjKbVPCT0HOMABDnCAAxzgAAc4wAEOcIADHOAABzjAAQ5wgAMcGCwHhG5CN8k1BzjAAQ5wgAMc4AAHOMABDnCAAxzgAAc4wAEOcIADHOBAnw4I3foEKEUerBRZf+gPDnCAAxzgAAc4wAEOcIADHOAABzjAAQ5wgAMc4AAHFsMBoZvQTXLNAQ5wgAMc4AAHOMABDnCAAxzgAAc4wAEOcIADHOAABzjQpwNCtz4BLkZSap8Seg5wgAMc4AAHOMABDnCAAxzgAAc4wAEOcIADHOAABzgwWA4I3YRukmsOcIADHOAABzjAAQ5wgAMc4AAHOMABDnCAAxzgAAc4wIE+HRC69QlQijxYKbL+0B8c4AAHOMABDnCAAxzgAAc4wAEOcIADHOAABzjAAQ4shgNCN6Gb5JoDHOAABzjAAQ5wgAMc4AAHOMABDnCAAxzgAAc4wAEOcKBPB4RufQJcjKTUPiX0HOAABzjAAQ5wgAMc4AAHOMABDnCAAxzgAAc4wAEOcGCwHBC6Cd0k1xzgAAc4wAEOcIADHOAABzjAAQ5wgAMc4AAHOMABDnCAA306IHTrE6AUebBSZP2hPzjAAQ5wgAMc4AAHOMABDnCAAxzgAAc4wAEOcIADHFgMB4RuQjfJNQc4wAEOcIADHOAABzjAAQ5wgAMc4AAHOMABDnCAAxzgQJ8OCN36BLgYSal9Sug5wAEOcIADHOAABzjAAQ5wgAMc4AAHOMABDnCAAxzgwGA5IHQTukmuOcABDnCAAxzgAAc4wAEOcIADHOAABzjAAQ5wgAMc4AAH+nRA6NYnQCnyYKXI+kN/cIADHOAABzjAAQ5wgAMc4AAHOMABDnCAAxzgAAc4sBgOCN2EbpJrDnCAAxzgAAc4wAEOcIADHOAABzjAAQ5wgAMc4AAHOMCBPh0QuvUJcDGSUvuU0HOAAxzgAAc4wAEOcIADHOAABzjAAQ5wgAMc4AAHOMCBwXJA6CZ0k1xzgAMc4AAHOMABDnCAAxzgAAc4wAEOcIADHOAABzjAAQ706YDQrU+AUuTBSpH1h/7gAAc4wAEOcIADHOAABzjAAQ5wgAMc4AAHOMABDnBgMRwQugndJNcc4AAHOMABDnCAAxzgAAc4wAEOcIADHOAABzjAAQ5wgAN9OiB06xPgYiSl9imh5wAHOMABDnCAAxzgAAc4wAEOcIADHOAABzjAAQ5wgAOD5YDQTegmueYABzjAAQ5wgAMc4AAHOMABDnCAAxzgAAc4wAEOcIADHOjTAaFbnwClyIOVIusP/cEBDnCAAxzgAAc4wAEOcIADHOAABzjAAQ5wgAMc4MBiOCB0E7pJrjnAAQ5wgAMc4AAHOMABDnCAAxzgAAc4wAEOcIADHOAAB/p0QOjWJ8DFSErtU0LPAQ5wgAMc4AAHOMABDnCAAxzgAAc4wAEOcIADHOAABwbLAaGb0E1yzQEOcIADHODA/8/e3YfaVd0J48//QikUaqBQUspTHAJ9QRxHwpToPFaqTMVKX8PcEUPR/loJZKaE0kCoWEUqpKVjQGmbDtpKYDQdMg2Gkoko5JZWg4ESeRSrPlQCAROEYJCH51k/9jl7nbP269nn7HtPdq6fP+TEe+/ZL9/1WWuv/f3uFwYYYIABBhhggAEGGGCAAQYYYIABBhjoaUDRrWcAVZGHVUXWHtqDAQYYYIABBhhggAEGGGCAAQYYYIABBhhggAEGLocBRTdFN5VrBhhggAEGGGCAAQYYYIABBhhggAEGGGCAAQYYYICBngYU3XoG8HJUSq1ThZ4BBhhggAEGGGCAAQYYYIABBhhggAEGGGCAAQYYGJYBRTdFN5VrBhhggAEGGGCAAQYYYIABBhhggAEGGGCAAQYYYICBngYU3XoGUBV5WFVk7aE9GGCAAQYYYIABBhhggAEGGGCAAQYYYIABBhhg4HIYUHRTdFO5ZoABBhhggAEGGGCAAQYYYIABBhhggAEGGGCAAQYY6GlA0a1nAC9HpdQ6VegZYIABBhhggAEGGGCAAQYYYIABBhhggAEGGGCAgWEZUHRTdFO5ZoABBhhggAEGGGCAAQYYYIABBhhggAEGGGCAAQYY6GlA0a1nAFWRh1VF1h7agwEGGGCAAQYYYIABBhhggAEGGGCAAQYYYIABBi6HAUU3RTeVawYYYIABBhhggAEGGGCAAQYYYIABBhhggAEGGGCAgZ4GFN16BvByVEqtU4WeAQYYYIABBhhggAEGGGCAAQYYYIABBhhggAEGGBiWAUU3RTeVawYYYIABBhhggAEGGGCAAQYYYIABBhhggAEGGGCAgZ4GFN16BlAVeVhVZO2hPRhggAEGGGCAAQYYYIABBhhggAEGGGCAAQYYYOByGFB0U3RTuWaAAQYYYIABBhhggAEGGGCAAQYYYIABBhhggAEGGOhpQNGtZwAvR6XUOlXoGWCAAQYYYIABBhhggAEGGGCAAQYYYIABBhhggIFhGVB0U3RTuWaAAQYYYIABBhhggAEGGGCAAQYYYIABBhhggAEGGOhpQNGtZwBVkYdVRdYe2oMBBhhggAEGGGCAAQYYYIABBhhggAEGGGCAAQYuhwFFN0U3levLbODs6WfDrh33hqu3roRNo/92hn1/NCBejgHROrljgAEGGGCAAQYYYICBD6oB56bsf1Dt22/2GWCAAQbW0oCi22UuuKxlY1rWlTc4nF89GK6fFNti0e2H4eBbV96+8KfNGGCAAQYYYIABBhhggIEr04Bz0yuz3fQ37cYAAwwwwMDwDHwwi25vPRturxQ6YsFjJVx94+5w175nwuFXLjTcBXY67Mu+/61nwxuKdg0xGh72ZQ9Ap36xO1y9dWe467dv18fo4pnw0M2Zu/vCPYfOhLMXxey91YOju/1uP9QQsw9Sf3v3dHjo6zvDpm2PhxPvsrHU/ntuNezathKuvuPJsCr29eNXW1/Uj+ePWVs8B/m7t8PBb2XHr4PhxCC3z5i51DFzloErdUz98zNh+3UrYcuu45X5/huHfjiar+xbLVkb+vg39O2bZcnv1+34cuLhbExf5MK/C+Hw3p1h03W7w0N/vLhu23e5xrTGvr4RLTo33XB+L1e/sd7S3GAjjheTfdrYxwCWP0iW7Svva29A0a2l+LZp686wfe/z4UylGKLodkV0xrOvhaPPvRhOnV37jtNl/2cW3U4/GT6zdSV85uHT4fxk0nJ5trXL/izlbySDpid7gyy6XQxv/PHFcPSPb29ss+uUID775xfD0edeC2c3en/Xj6f9uFNbX4n9StFtKcfETn7Wed6wFnOpWWPqu2+H1edeDKuvDyxhv9Si25LGgSGOz0Nt/yH0vyVug6Jb/Vj6gSq6OTedc/5Wb+YDMz9Y7/FpLeYf672NG3n5nY/NH7CiW+e4GB+MhQww8H74YBfdHj5dO7E6f+7NsPrbJ8Pt28Z3v11fKYooul0RnSdPLFSuQh7K5Cjfvl3HB5ZkupzxGWIy6HLGY3DrzhPt7vKtPXbMGhfHCa0PwJ1B+vGcPq7EfqXoNqu/b5jfL2MulT+B4kq6y70xEb/w+LekcWDh7VvHxMEV2P4bpn8n88zFi27raCPZvssV88a+PoBtW/OY5OODc9ONbXrN3axXX1jG/GO9tn0jLNexuf58Tlzq47IRzNsHbbsOBhTd2oL6zumw77as8HZveOildPKl6HZFTNaGPlEb+va19Y31+l0ekysp8XZF9IU1a68lJQXXbHvTcfvy/1vR7fK3wTD765XYrxTdhmlpHfrYMuYqV2ACozERv/A8ZknjwMLbtw624rH+Cmz/jdj/Fd3qjTf29eh3I30uY7zfSPGyL+uboOVxfeM7y69jc338xaU+LrM8+b24fUANKLrNaviX8kcAHjiTdBJFtyviZHPoE7Whb9+svrEev89jouhWf+J/+fvdkpKC62FrAMtUdBuq68u9XVdiv1J0u/zj8ZLcLmOucgUmMBoT8QvPY5Y0Diy8fevo7Qps/43Y/xXd6o039vUBzCvX3OEyxvuNGDf7lOTJ6vvRQlZ5XJ+4dvXq2Fwff3Gpj0tXV/5O/D5gBhTdZjX4u6thV/bet93PJ+/hUXRbaOI0K9Zr/fuhT9SGvn1r3R5dlpfHRNFtDU9YusS9898sKSnYeXuGGqf67VJ0q4/LFXE8WVeTV2K/UnT7wLhdxlzlCkxgNCbiF57HLGkcWHj71nH8vgLbfyP2f0W3euONfX1d5wX127Lu7pYx3m/EuNmn9Uki87g+ce3q1bG5Pv7iUh+Xrq78nfh9wAwous1q8Fh027cazk/+dnbR7ewrz4f939sbrs/fC7fpunvDLd87FA6/cmF2Jzv3Zjj82I/D7bftDJuygt9194bt3308PHU6++6MRNfFc2H10OPhrjvuDVdn3926Eq6+cXe4fbTuc83rvnghnDl2KNxz931hy+R7e8I9jz0fzpxbZOJf2s63XizEI9umux4+Hk7NWnbtdo335+jr1XehxROjUdzy/aj+u+adSrXr6bP/74e4LdN3ysWYjNulul3x5z8MB99qi/nFcOLhe8OmrXvCgVfa/i7/3eknw/VbV8JnKu8mfD+8V7a2dWe45o694Z7HXgxvvNuw7E4Jm7ivNbGe9KOa5afLvnghnPptanlnuP7uH4f9z73d7Dgu+63T4eDDD4btN+Z9aNt9oz5wdBTXmv777umw7+aVsOnrR8KZuIyGz/OrB8Nntq6EW371ZnE71sFQUwKkaqsmlpdq9jPdp7+WYjRp++fDqbPp8vLlNPansdt5CqXl7X/juTj21Hi5+HY4URrTttz2YNh36HR442K6nTX/rvGdGmqK73uzYtd5nI39IPbths+694sust9p/7n0fjh7+njY993d4ZrrasaURZaf+Hlj9dl82eN92nJbPm5kbVLajllJosY+laxvsoyLZ8JD2WOfbz4YTpTHqNo+2Hy8GC9zRj/Jt6FsdrI9pX1tjXlhfxbpV9FT3k8uvh2OxrlCnaGy/3nmEtm29v1+T2OTGBfilvfzecf40jLq5mjbOx5f+ny33G82bbtvPL97qWl+Vmrz0n5MYlRyOPl5ec7YcS4WvTfPU7J+XzNeN21f3Ziab3P7OmrGrtp1vBkOfD2bLz8ajpbHhdHfnwtP7cq2+cfhcO2880I4vDv7/YPhqfT4lydWNtX0rxij6Rwvt9nYFjXHqBiXRY6vi/bPGdt3/qUnwy3XrYRNtx0MJ+pitVb9es72P/PEnrBp686w57nq3D/zfva3D47Oee45Un+edfbIj0e/v+u3NX2tHMvJfKhlLlzrMGvjdbIY11ce+7buDNd/5cGw77dnwtmmOVGpzZuOU81zomy/LoTVA3tH55bXP/xiZV3N3y0eY6frrpk7xH2s+SyPnYXzyJZ+Oh0L6/pf/rPK3CE7F8pi+tpoPxv7erKd5e1rnxOt0Xlc53l8y75PjhHj9mgej2vG4oX6TdHDe+deC0/l52vznEeM2rW8/o5znEJ7pvOobBwuLCOJW27s6kI+KPl9YuG9S+fC4d3Z+WdNzAp/V/P98j51GouKMT37x2x+Ps3njC12y+fUzW/a81elOUrHOUZbv4zt02wxs1qaf3Qc4+J65+uvsZ1KcZ6cY3Ufy86/WsoPxvE7O6etnbvk6+47RlW+P80PjnMjcR+n53Dt8a/abj4GTJddjvvsOXApn9a1vxb6WTXHGdd7cPXtcL7puFlYxuJxGZlb5LhdXn/T/5eXPSvnNVpOsd+OXe4J12Rzvzx3fNfDz4YTLfnI2E9Hc+B3xrnrW2LeLR9Hs/jGPtf42WdOWXHd8dg953jRuO1NbeLns9v9AxYjRbcZDX7+uUdHJxif6fx4yelJSf3Bame46+nmAejsCwfD9nzAq35/Z/jar54P+79VM9nI9uPia+HAjrzIUHsCvzNs3386KR7mB8F3zoSH2r637cHw1OvTA2a3gScO5o+Hg0d+Mir6VPcnm9z+MBxsWva5F8O+O9r355YDZwr7Ew8AteuaxKQ0UVuX/S9NEkbOYkzGB7TmbaxOZCox7zz5vxiO3p/FcE848GqxDdutZW2zNzz0Uk3yonSgqmxbYV9LsZ7R3ybJ+l8cbzV5fV0BMV/2mUMPTgrH1RjfF/YcPx72ZBa+9Wx4I9meWQmd8X7mibvrfhwOp4m5dTLUNIGNzivJvmR/WgtHrzwzTqpN+kTJ5HW7w77V2Pb5SUbT3+Y/n+dkebL9L5wLR++/bzTBG7dVycvrz4d7Ru/VLG1fvs6r7zgYTrxTdB09nv/zkXBXvOihZtuvv381PPWjbLl1/a14YhWXOfqca5zt2OfLCd1F93vSN18Lp371w8mFF5V9XHT5ma+Lb4fD30/brNQ2t/0kHP7N46M27W4ij1OWMG9oz9gG8Zh8yxOlovcCx4vxMlvaOulPE7OrJW9dY54sq7DeGpvpuFWMYfR0MJz462rYk/aNkqH28X3GXOLS+2GSeK/dvp3hlgPHm+ci2b72MVaJVTHmi47x47hfCKuP7W05RqyELbuOhFO1Dnt89+Kb4eCutvnMSrj++8+HM5WT/6TN2+IycVieX8bvzzcXi95Ti9V/l8brtu2LxaX0uJtvc3W56ZhSNz4XPcSxofUYHpPyW1dCbVHm7PFwV2Z91/HkqRbvh/fi90r9K1tnjFHlONzYFnXbvdjxtVf/btm+bLnZRVqNx9a17Nfztv+rR8It2bbdn14EGWManZefTBJ/H4uupaJqVqxrPe9qmQu3eF8Xi5feD+1jX1Yo/Uk4XHdONWnz9rlB05zzvYsXwomHs+N+w3nkpfdD43cnff9QeCov2tX2+azIWzfuXjwXjv5odzKfSceH8XnkgWOHwu1Z/63pp3F8aPycMX+/eseT4alf/HA0p6n09czArLH9tkfD0d/WzIn6nsfNNY+P/aDuM+k7tcf7GO/iWLx4v5nOuU79+ZnwtSTnUZzv1G3r9Gft62+f48Sxe89v2s4xdoavHUqPp3MUSlvHquk+lE2271PbWBRjeigc3N/WVxrO60dj2aL5q+hnvjlGed/T/4/tUztOTIyW5h8dx7iF++soRtM4LzKWnT3+aHM+LNuvpnzbjPObq7/9TDjcNka9cybsv7tt/rkz3PXEa9N82rzH5vxY2HwM6DBObm2aA0/nWvP119jPzoWj+1rOWbdmc/5na+be8fvJ54JxWfi4ncc17Rvlf7cvuznnNb2J4/Fw8On2vNk9R9JxcBqP2E/3/ObZ9nxL7blNvpw+c8o+/aLreNGhDcpt4v+nRsRiGgtFt7bOlHXmUVKrXLCIB91i0j6DdebQONF59R0/CQdW35xePXHxYnjjlefDvlFx674koT1tjPN/HJ/sZic1t//s+XDqrenVnOfPvRlOPPGTpCBXmmxk686vAt3+o+Ph1F+n333v4sVw9tXT4cDu7O6o4qQ5S6Ae/HZ2IN4Ztu89Ek68mnzvnbfDqWMHp1e81p0MNcYvTsKyyXpc9oVJPM7/9Uw4GBO3X3+merDL7jzKE4pb7n4yHH7l3OS7742268lw+yihXp4UT+MZCzi1J0lxu9dt/6eThMb15wN+4+/jNtZ+dpz8N0z8K9YSL+ffei0c/lmelKwrik4OVPUH4fEAG9u/6rR1AE4nNNv2hoeOvRbeiO4uXgxnnss9bt0Zdh2PRaFpm7/xdF5ouG532PXE6XDm3NRzYb+yyW2a/Mti/O5q2JOd/JV/nsY/vuPxZ8k7HtfRUNMENk502u00jVPxKuzdYU92FW96Zd27F8KZ1WfCPdldf7VxyNu19nfTdmht4yRZef1t4yROebwbff+dOAbk42FqNB8PR8nBb9dMlt96Nj+Rz8aeZ8Nq61haGhNH7d0UuwXH2dzQuD1n9Ik++533n8/cdl+4umbc7R3XSzHxliVlx8e4iZ/8GPdQcmI3TwKl291u0W7pbpZex4vmtk4dN/a5LjFPx5Daf3ftV3FcvS9cnx0fy2NkvuzK+N7qv8bj69P+U+6bXeYi7/UxXBuf6djSa4xP5mgxdqnf7Arv6LfuavY4v5v/u2+Hp0bzrGm/mVxZOxpzj4Rd+QVG1QtKYpvXtFMaq8bjcvz+gnOxbB35stuPN9M2SvvN9N8z+lmegJ5nzJguO193LJzV3IkQ++8oiVd4XPz4u+Pf19xFte5FtzRu3caB3v27wUpMCGZFhtU470qNrWO/jsXN9vaPhbPS+J9tY2ynUUK25m7GWOAoFewqsUznGbPmwmlsyv9eB4uVsS+2UTzH25sn2+uKVx2PU7VzzqzoNbo4KrvYonihY9oHa787ikve90dtU3N+++qL+bnxSqiOuxfD6v48YZod7557czpnrZlzzF10m8zfV8L4XDO566E0NmdjR3UMrI7t6TElO++Px5Ts+0Xffc7j4lxokXl8OubU/LvDeN+v3+Qebr4vXH/d9Jg4iVu5L9X8f2QdZx4AACAASURBVGX9c85x0uNBZS77bvbEoHixcOmJMnEcqTnGTPtC88Wu07+pxr2yT3ONRUkfqzv/ffV0OPij8V2qTRc7x/lNjMdkjjIzf7UGc4yaNp7EqoPH0d92GuP69NeszZI41+Xq2saymGPY9mDYn+YHs32P+bbsopLyhQOV85s5x6jKGJfk0949F04dm+bT6vIq8dhaHLuqfrM2aD4GVOM+8VUaZ6tz4Gk+LRtDo8/JeNHWX7MLCPObJ7bsOlTMcWa/y47xD4/voK+O7fX7OHGZjwWz4tLruN3WL7JcSp+cV+EO55rj8l9fC4cfezAvEtfnrdNxtHr8zGwdCnfludy6du11rti3X3QaL2YYmNE+Eyv+zl1vl94Pim41HWGUVDr0eF7UWQnVgSI/6JYTz2efD/eMkvZHqkWkuJ7s4JfdqXbboXAq/mz0mU+gt94X9r1QLSZMOu6rR/JkcjUBMz7YPRqOVq6Ubh40ssetZI+hvL1810C6ba8fGV1BeP1jr83RaeIkbGf42m9KdyTEZcdYbL03PHS6uI3jAmIW++ojTCaxmFzpX5c075YoWr/9n04SGg/kXSeSMV7lz5mT/3hCd18pvt2sxQRMpfiSb3f7RCO2f9XppP3K+5P9f77sxscaZZOkFx4fPd6x+J7FpGiWFQpLd/Wl68yuJMyKNZX9yhKyv8omX/eGh14qehx/Pz4upHil9HoaaprAxolOo61RbBvGqXjScP+Lc/TnGI+8XctjX11btvwsbn928nfgz/Xj3eqBLNFyb9jzXP3vszYZW9gZ7jma/k084W0pyGfb1jp+NMUunlTMN85Gf+P2bO8Ti+930n+2Zle31TxC69L7odfy86Lz1d9uO8ZNC3PtY0Q0FT9zWy13u8XC3PWFO89jIXTR40VzW8d2yz6j2Uqfi2NWS8zT5dT/u2u/iuPqSsiubK2/G6vb+P5e41wiJrYXn4v0MtYybkwujFh0jI9ztLqLSeJ6J/OS0ryix3fjSX9rv3nntXBgVJi7N+xbnV4sMr0atX3ciMfOap+LZhabi4289p2rjGI7o591TGDU9584hjQ8IjImF25+Mhz4WXbxWbkoExPYLcWcciKsw5hQbYu4nU2fXcaBvv17epxIt+9MfqVz87jS89gR+1fTZ8f2b3pE5Hh8vjc89IsnR/PD8t2M8aLE4qMpu8WycS7ctC+jn6+xxZiwbR37LkzucK88Tr7jcaoy57z4dnhqdIdududQcidEzb5Xvjv5m7zvt53fvvNi2JNd7FXum/mFg6NzglhknCw39qPpfs9bdIuPJG0918zuZMsvmigf/zuN7ZO7BMtFt2mxuFpsjPvWdB6Xx3SheXxcdsPnzPG+b7+JHlZC9sSJxkeiVto5bm+39TfPcabzubZj8pnfjO9uLD7pKLZHqRiXbms8N6+5uKP5+NVtn5rHojymbXOb9KKj8h3dcX7zrba5fX58quSv1mCOkcav/O+ZHnMXHca43v01nj8vMpblLipP6Sjvb+n/O+XDWsaomKO4uu4C1biuPM9XlxdZi6Jbp7g3zoH79Nf43fLNE3Es6fHZZc7S97gd26fus9Oyx3fy1+e8Yr+tL6jFsSo77x59/+Ynw2opvxzPi6t58iSuk4u1qrm1PueKfftFPGfa1OvcPdnPujbyswXyjBs3ph/sotvoqrv42IS6z+yqvtM1E8J8clNKPI9PBnfWXAlXBHT++KNh09bdxfdxnR6fKNY/NiX9fhwkqwmYU4+N7xoZ3en21vSusjhwVj/zk8LrDoYTpYG0+LcXw9F9K2HTV56Z+b6r6feat3P6N++HcSzKJyJnwkPZyVfdO3tKA9j5Yz9pfozZzInaeu5/PNDXXRmZt+fM7Uvbve7fsbjQMPmPV9qWJ9e5tcpJeSm22fsbDn8/6xel5GO+3WnCJm3T8b+7tX/le52W/WY48JVsu4p9ICZjZk9o6/vvaFviiUc5Zllsske5VN6Nt76GmpIYcaJTTgAU49m0n6+F/dmVR9eNr5B9I7kbsPj9OnN5u5bGvtnfKy4rbv89x9JiWfo3+Rgwcz25hfSq0/gezg7v52uK7+Rqxpr1zz/OTvdrvL6i22Lseux3ZjTvP9t/0XSBRJ/lJ+NNS1F7tD+d+vE0LjEG8cSs8r7E0dgUi0HFovd7l/oeL5r6SXH7otlKn5sZ8+Jy4r4WP7v2qziu/iQcbkpA9p1LNNwdXdzebJ/itpQ99zHWHqu+Y3z8fu07nSrHv+K2LP7dmHwvHUfr1vfnQ2F75UrnpjgXty/2/epxudv36+di+Tpy4xX7dfvQ+LMZ/axLAqNx2dNYxDGk0Mb5skfJ0/zCgcLvc/OfSe9gj+vKv1uXzJ81JlTbYrqd1f6U/S5vq5rjzuTv+/bvbL9K43OWXM4uvmtLQE/G2bZtG8Ws5pgcY9n22bX9Y6KpMEfL4zZKCuXjT+H3eUK7nDTqOxdu25/kCvuCtQUtxvFnpqmLr4X92fy4fF7X8ThVmBNNErktBfskBoXvJj9vm09NXI8uettdeYTjmV9lP6u5A7Ww/Gnxqq6fpuso/jt30fgeyGl/re/rcWzvkNAt9bnpdiTzqrp3dDedx13qM4+f7td0O5KfzRrve/eb/FjwlUPhVGvuIdmmtL3XYAysb8/S+uK5RHnMi3Ok9Lwj2b7V0YUd1QRzbazj99YqpuVtjcuffF4IR/dlTzcqzkfG48uC+at43Cqdk5f3t3WOMdm+UhtkP5/lMX535hi3Fv11xjwm35bxuFXK/5zLL8zP73Q72zSHj/sz+syPZ73HqPJ5U02cC+tNft/12Nx4p1uMe9Fc2cfo/2vnwB3yadm2N/TXs0d/MprfjO9065IbTfa9KSbZzzvEpfdxu2X9cdmL57y6nRtk7TK+IL06PnQaR7N9yPNnxbs4+5wr9u0X03GlOV/S0UFLG9Ua9/cf2EKcolul8Ja9gHFvuGf/s+HE6+nVxmnnqz/orh7IrqCtK97V/yy9EjMOnruON60zrr9lkHzntXAwPl4k344tt+0Ot3/v8fDQE8fDamV/8kGr8zaXrw6O21T32bKd6YBTdyKSTUyybfpRhztx8oNe7YnWzInaeu5/h0nCzO2ri2vpZy2T/3gFSfmurWhtzwulZaXtkv+79oBa12aV73Zs//L3eix73P9Kxezy8kf/X99/48FxfMJUvjswOTEuFBzW11BTEqO2XSr72ryf5//87ORxZuMxa2e4/it7wz0/OhgO/PZMy8uc83adeWLXbmvm9scxoOvYlCXT4v6nSa34s4bPpvi2JonmHmensRivr1ykmP7+vT77ne3jrP7Ta/l5MrXLxReztqOhPd67lCTByiekp58cXW1XSYzHfVr4eNHcT+KYkH02ml14X5N2j0mLmf1q9rgax/dF5xIxMbLo93sbbrSR3WmTzbEWH+PH39/b/B7Zmete5Lv5MeKfj3S4aKnO4uw2HzltdNj3+9Nx5Uoouk3uhkz60viK2NzNxbw9kqLM2EVDkrRljrn2Y8Ls42vf/l208lpYTd6x1Xq1chxnFzkmt/SryRjbIYE1/ts4F0sSePk8ePuvxk/VGM/hkiRjTGiXiqoxlgvPhWftVywQroHFecau2nlN4/iQHofinfw/DAf/nL7ru/1K+NiGtesdxahuXCuuN1tGXX8aL7PDuWdLP43bV/mMSdqG4kn693XbNilE950TLXAel23b4vP4auzTfY3zyKbxvn+/6eahsE1JX4vrX3iO0mCtur6m7YxjUM0Fr20Xbib7UF5X3KfFx6Kmba22dZ3l8fhSn6uqy2ul+avJxSIzim7R1cwLB8pxyseuJo+TWM4c4/Jjf6/+2i3OdTHOtvPsC/FRjnmsr7s3bP/Kg2HX/kPh4HOvVS/yj8fdvmNUp/ln1cootp2Pzcnx4610WX3nwPXHhkm7T7w0tM3Fc+FEfGVKPn+5+sbdYft3Hw0PPfZsOPpK/VNhqstP96lb0a33cXuyb6V1j55a0+98qHO/zbahoW81Oa/GrqZtou1F5pTxuwv3i+Z9qm57Nfb+RkwWMfDBLrrVPC6mWxBrBo/JANh90pJOPHonutKBOXs29OqL4aknDoY939sbtt8WX55afgF2fiDsOuCVroxqj1WPRM8cJ0LxSpPlFN2Sk/w03g3/nnkw6jqRbFj+OP4Nk/93VsOu7FGnNXf7dLfWMNFpOPgWPXRs//K+9Vj2+MqyxROyk+3PJ5iFx73Ek+LS+0AmJ93r0oeaJrAN7VKOZXwMRpLwmexj/rfZ88xPPHc8HNj/eLjn7t3h+tF7Esd3we1brbsLbXZSsLyOuv+f2TfihKpzXJNCVt5+xUfC1E8QeiWJOo+z03WP15dsa7nN+ux3tqxZ/afX8pdRdJs+f794t1u8OrfmivLex4v643nZbaPZWTEvt3Ht/3ftV7PH1e7je/2y+n5/7qLbrERNEq++Y/z4BLjLMWLaZ6ODxb87R7+pHbPr2ylu1+Sz0WHf70/HlZlJr6StJts1+dmMfjZHYqe67GJ7jYsucazIC/lJoq1QlIlFuJq50mg9+XbVzTHXfkzI26rtmD16UsZK6JNwjseJq7ftHF0Bfv33D4X9+TuWGwtvvY4dxfapbb952j+/WzFe4V0oqmbeSnczFj1Mt6X7WNd1zjVddtzH4roXt9h97GuYNzaOD8VtHs9RdoYt27LzxvvCPY8dCveM3skyu/DWaz7VUAgZL3OoRbc5xvbW+M9/Hhd9ZZ/zz+OLbZ4ua/TvfFubxvv+/WbGsWByzKjfzu7rbz72NY7dhXW3bGc8JywlfeMdIcXH2NbvRxr37vvUNBa1bGthn+q/P2/RLc1fdU7et/aBlhjN8DiJ48zlr0V/7RbnVl+jd3CeCUePPRv273803PWV3eGaLF+Tne9uezA89XoSiznOb+rXOUehseRkEtc5js31x4A54l47B643O9m+yXbPaJvs3XEvvRgOHzoUHtr3YNh+x72j+U8W9y27at4NP1lu0h7pzzrEpfdxO11f6d/dl90Ul+bxsRLbhr5Vb64uXjXb0GdO2btfTM9rimNZ3bb7WcVDyaLfdzOi6LYQnJrBI7uC5ciPR4/BaJqotqJ85ZnxY4UqSf1yQ84xSKb79u7b4fC+7KqI9P1p+S3f5ceQpN9b+N8dt7N2IM8P0B1up4/P468dNPNlNycn1nP/O0wS8u1byEvaLjWT/3ESouGRLJ2txce5lYqN8arh0nuVir47tn+6H9m/az106wPxpCUmYorbky6jvv9O/z45AR7d1db2DP/1NVQ/gY1jzUooXm2Y7mP271n7Wf778f+ff/35sGv0eNfk7rFJO+XtmiQwp3GrX17d72dP1PIThZbkY91yRz+Lk7GmJOpkXxqSU6PfLxa792rH2Wlcxu1Z896gyTb12O9sGTP7T5/ll/vFdL8qbTFzO1q+W3e3Wxzjao+PfY8XeUzSuyUn7THdzkazvfY1Lr9rv+owrnYe3xuW1RrruL3ZZ8P34+M+F+m7NXFPbfUd4+PV5IXHvc1YZ1z/4t/NH8+9NRaB0hiW/h3fmVi4ICw+mmdG4rnRYVM7ldbd+P3puNI8lyotqzamM8bUPIER71aKcV/oM5+jjJaVey4sNy3KrB4cJV4a5w35di216NZ2fO3bv7O2yds6SzZN3qmUvctw9N6qpneh9jl2dPAxV/vn2zKKU7WQ9V4spGZ3M148HfY1XICWPfJo9DjX2uNKus0Nc+Fa5+n33g/vrZHFzmNf3PfyeV1b/072YzxHyRLAyXthX392/C7xGe+Lapqvdp2L1h1jx4nFhnOZZLtbL8BM/67w7+TO+ndL7Vb4u6bzuTnG9lnxj8fdpIjTeh5X2r7yONk+j2/f1zg+NJ6b9u43M44FM/ate79tPvbVWSvHsN1tMh+OjwWNd7Z2OPeorGtpMa1/bUSv/FXjXLDkbFYfaGr3/Hsz5x8zl78W/bWb3W6+ivE5+9KhcHtWeCu8C7D7+U39OuP8MbnzuynOTT+f49hcfwyYI+61c+Cm8bcYv/b+Wv7b/P8vngurvxi/u7E9n1Lz/Q5x6X3cbmqT7GKL/AKsxrnr5LtNZpvHx/L4dOoX48c8l48J9eZqYlX72NA+c8q+/WI6D67NH09iV7MvfveBfTxkuV/M+/+Kbgt1noYBLD5WoO1FtI3ryyf/bS9nzb776pHxyU/56vC/Phu+VnnfVGmweOHxyvPys4lW9i6H258YP5ZlXkDNf99xMG+YJI1PNlZC68ut44ng1obJRL7sQrKlFP/12/8Ok4R8+8oHseaYltpzsi+lyf+7p8O+rGjy9WfCmdrn5XezdubQ+D0fm5LHMI22LV6dcvPj4UT5EXD5Np1/6clwy+jKrZa7eibbn+xXg4diTBpsxROe1hfNt71UNtmOeAKcJWPydypcXZgIT/92PQ3VT2CniZxNLWPNmSM/Gb/8tpT8fuPpbIJ5b9i32vwo2xM/ypIudW0XY99WOJrGpthu0593majFx6Puea7ujrvpsqrriP1hxntI/roa9oyu4C4VlUcuG8b4BcfZuI3j9my/02bx/e42iey1/HhC9O22l61fCCcezt4vWn5XZ1ubFX8X38s0vtutreg9/l6/40U8Kb037Hmhwdo700dtVcbrTmNWcf+ih+ln134V/66ub8Z1dBvfG+cSl2KC+b6wrykeWR9pmouM7vrP2v/eMH/fjfvQ8Nl3jE+/n15NnB6LsuLDt7LxrzQu9Phu9Nz6zqzWl42PH11++2/erj/Zufh2OJzfqVQ9gYz702ZmxtjRYS41tdzQdrMuAonFrSTpPHuZTevK+8DNT4aDv9pTfSRpLEzsOhIO3p/d0dMwh8xcxO0qFELH6208ji08JsS2aju+9u3f07b+zI9eLD7OamKw/q6mXseOtI/V/TvGuWP7j8f8e8NDh8bv2i3P8+PdjAcPPTo6x6kvtHeLZeNcuG4/Kj9bI4vp+FN4xHnaB6bH3spjmDuaHM9RqmP3+dWD4/nkbQcb5/2N89VZfT+PWW1/yufim7L1nkv3Nf33hXDqV/n5Sk0/bRtH4oWbreeak3fbld7RlLy3r3Vsvzhtl+r4HPcjzlvzRxbOOI/rN4+P62z4zK1U5joT2337TcP8erL8hu2a/L7b+tvmKLXWJsuP65+xnfE8MR+zxsvcGXYdb5hHVpYf15N9dtun5rEo39YZhfHG7/fKX8XjVo85Rltsus4/OoxxneZirf11hol8P+p8re6vvkuvODa9HQ7+80rYVDpn73R+02mMarmb6/Uj44Jfad2j7Zvj2Nx0DOgU98n8o/qo77p4FmOX9aG6tskvuqnbr2gu3/fmsTntp8m/u8Sl73E7bmPdZ6dlt+W8Yr+tn+/F+E6O/eV34iZ3pzc+ISHb7pZ27TOn7Nsv4sUlc7d7XVv4Wf25qbgU4qLothCIuoF9PBDHCc3Vd/wkHFh9M5xNrp47f/bNcOKJ+kR4Nrid/2N+UrN1Z7j9Z8+HU29Nk+Lnz42/uz3egl5JiJ8Lh3dnB/Sd4Zb9xe++d/FiOLN6JH9ESCm5kFzdun3vkXDi1eQlo6Nb4E+HA43JnOTgU4ljHMwXnIRlSZFRQnwlbLn7yXD4lXPhfCwgZY91O3YwL+o0XZX7fpg85uq6H4YDL02/f/5cuo/Tq3vXdv+XWXQbJ0Bv2boSskcinvntg6OEd32SIW+z/P1ImZeRtb8m1t56LRzev3d8233tBD4mwVfC1Xc8Hp5K2ub8X18LhwvPzp7R/mU3HSbNzXdYvB+yE9GsiLzput1h1xOnw5lzpf1Kt61tEnYpPs7uh+Ge3fkdoi81eF+3PtR2J1bsX9ljEQ6FE68m+/nq6XAgfbdjeT/jydV1e8O+Y6+FN9LC6TvJGFUutuZtFR9Dcv39z4cz8bvZWBH/XW7Tmv/vNIGeTNSq4+F7714Ib7zyfNi3IxvzagqIb+VXZm/dGcb9OolPZSwtJddH29s0xi84zuYxGF9NuhKu/vYzYTX2uSx2idPpBHWB/e7Sf/rE9dI0eVQ5xl28OGqTh+7O2mT8qJTFJ7N5AiK72/nV4+GubHkNHkcnBj2PF9lJxWfycWPPb1+bHrffPRdOHSu+g6GSiOoS85o+EE9o4me3fhX7ffu42m8u8X54b3JBS9Xg7LlIepJV/f7MvjsjVn3H+DhH27Rtb3joWNLWWT985fkQ/RYeL5xv0+LfjeNGdswczw0n85nskTeT+Vl2odHpcL4cg3hyv3VnuOux04VxN/vurjva+lw3M60noPFCm7a5VHmbK//fNKbG42p+1Wt2h82xN5P5XjJfqywzfrf6GY8xo7Go5s6xcVFmZ7g6m1M3XFAz6psx9jXJ/LiOtRwTuowDvft325g1OT7UJGImv1v7fj19VHfH9o/tMjrW1FzIEi8QuS7rGy13ifaaC1fdxfE8/YxO+lqMF3hN5rdxzlU6VxsVqOLvYp9pa/P4N5fa5pzvh0nyraHw1pRwrU+GVmMX41TsTxfD6v7xRTx1Y3Y2D4xj9ii+Nf00bYvKvyfz93iu+fZ07MnH5nR8LW5btg9vh6dGd4hOx/bJef+8c6KkiDPzPK7nPL4Sh8RAPBZU9zVps179ZtaxIFlPul3Jv/uOgfXWyuudtZ1JofTPp8ND8QkhMVeRbG9rvOPfrUVM83ls5fw3PS+sPa9/P8T5TZyjTBxn+anW/NUazDFiDOo+u84/Oo1xffvrLBNjQ7W+YvveVpMfzHIned6lcsFEVoAv5MPmHKMqY9w0H/Ze4RynqWDcfW7WfAzoNweujWfFSn3bjAs7K+H679fkOJM8wkNNOZ7KeuI40S0uvY7bjevOnfXKecV+m52vV+d0xXxezXwwKbplx95xrja1WTx/rj236TOn7NsvOo0Xsa19djqGzfD6QV+GottCQOoH9jGmC4UXk49OAkYnheMkZPb/WaHi6F/rO/DZFw6GaWFt+p3xcnaGr/3q+bB/dBV2TdJtcudG+Xvx/3eGu56uuVI6uYq/bnuzwXj7j1aLV8TOjFsczGu2M/1u26B37nR4aJRUj9tf/twZbn/sTDVBNVl+crJWaIPSCfq67P+Si26X4uQ/TyLVXJFSHuzO/jHejVaOa/7/2/aG/S81XLGXHSiTRF/Rzc5wy4HjzU4n7VPTB9o8TL7XbuvMoQfDlkJ7p/uXPTLneNiT/b5cjJosP9+uOEHO/rYt4Z99b50MNU9gx4nxu+I72Cr7e1+458iRxv08e/zR8VXLle/Fti89Vz6NzaSglcZ1JWzqeIV65rDbBDrbx+fziwVK65ps985w1xOv1Y4B5/98JDTHZ/xYradGd/TNU3R7P7y36DibxTCZJBb6TDkpvOh+d+o//eL6XnZXTVrUnbRF3ka3/SQc/s34rurFi27Td7tdPUqaVq98LI9n7/U6XlwIJ/bvHhfsy/uTHbN3PBmeyh9BUklEdY152ofq/t2pX7WPfWlMes0lsiRL9qibxvGlwxi/qOG62JR+1m+MvxBOPdF2jMguZDgSTpWT1qNt6PHdi2+Gp/ILmAp9f+Itu0Dg+Ya7098PZ55u2ebWPtfRTKvjjnOpUjulHrsk3icF1UlMxmPKzMdK1a03v0M9i3X5LqjRduVFmWx+2/r+nVjcqUnmNx7HWmNZM+9Jt7/TODC+ennhc4VZ2xeL7nXJ2XXs1/O1f7wjdyVsKh8/s3jGuxmz8XvG4yN7zYXTtmv691pZvPR+OPPb/MLNUh+JY0qWMD9cdxfvrDbPt711zpmtP38CxtXfrt410fzdtnPmaX9o7E8Xz4WjP2o+Pm/KLgY4lj+araafFseh6fomP3/nTNifXCwUYxk/W4//I2tvhoO7phc+xO9NPm97NBz9bZc50Xzncb3m8U1Ws5/nVipzndJ3Fu833TxM2qe03vjzPnOcRmuFdXXYzlgoHc1TV0Lrxa6FZdc4zF5TsvB5edzWQ+Fgy1x203V7w0NN5/WXFs1frcUcoz4e47buOP/oOMa9l90VtnB/jXF+NrzR0p71vpI7chvH74Y7ic+92JJzGV/IebjpHCXbzndeCwfa9jm7oKvhXDprg67H5uZjQHZMXnwOXB/PspmGtsn2Pb8wYjImF+K/M2zfX3OxW0v7xjGoa1wWPm532IbFz4div308HGw7v8je7XqkJnec5HL2/ObZ9nzL95vPbfrked7r0y9ax4tz4fD3d44u4H/oj9OLtmO7+yz3Pf/fxYSiW4cBrRrIhoE9WVZ2xfT+7+0N10+SVjvD9Xf/ODyUXUU/6yqoc2+Gw4/9ONx+Wz6Jv+7esP27j4enTmcFkDhINhSzLr4dThx6PNz1lfumhYdt94Xbv3coHH6loYCSbffFC+HMsUPhnrvL33syX++8HWrGdsZYtQ566XZNXzR79Y27w137nglHX+8wEF68EE799vFwVyGWj4bD5cezrPn+dygsdDyxqfpraIv4GJZ5HusWrU1eKLszXHPHg2HXEy+GN5K7NGu3IbP2xKOLOY3tX/6c5WH09x1svXU6HHz4wbD9xrwP5X3g6FtZ7Gb33/H+xqROzZ1U5e3O/n8dDLVOYLN1Zu33swX3M8Yo9o3sSqXb9oZ7Hns+nGl8jE9u760Xw/7v7Zm8/Hn0vV+cDmfr4lLzs24T6HxdcUybGF0JkzFg1J4N/WHUJm+Ho+lYunU8Du9/bjyBbI7vDCNxm+YdZ0dt9lp46uEHJ8eG8b48H86U4xTXMc9+d+o/axDXbLK9+mzY993puDy282J4Izu+zbMd5f2e/H983E6HAnn8zqQPTrdrYqXD8eKN7K6hyTFwPBbuy4/ZjWbXZF+79qsOY1+MRfYZx/fYx+eZS6zF9xcxnG5/27/j+LXoGP/Wi+FA9jL1+P1RbB4NB/KxofaYF7enx3djv5nMDUfHpifDUy+dKzyGom79ozvx5u5zHc3Mctx1LhVjSGgJzwAAIABJREFUVPmcMabmf//Gc4fCPTviC+7z8Xq1Ze5aWU88HsTHxja8Sy8WZcrvviovb9lFt2z9XY+vi/bvWW09KrrnF2XV3dW0jv16nvaPd443vdMk3s04q3gw6msxlpPj7Rxz4bKZyv+vkcW43Dj2xXE9n9c89NszzeeXHdo8i0PznGjar1YPjJ+EUb5yvfm7Hfv+ofG7dZra6+zp44U5x+jY/vDxcCqbr7b007qxtPKzydwhngN3PP7HNlmrOdG853EVC3PM45NtL8Qjt9LUDoW/XajfdPNQWE/Ttsb1x77QcY7TOJ8rrKfLdsZC6UrYdPPBcGLWeXNh+bFPlT7jPs01FhW39ewfs/l5tBxNdDivzwp/c+ev1miO0RabLvOPjmNcdBXnYtfkT5Dqdg5TjHNcVvmzzVeM72TuuTUfaw6dHp8/NcVhLcao554Ju5I55OT8aNa5dDa+dZibNR8DpsZj3OeZA7fFcxr7lraZxG56brgpHysOrtYXlKbLnW573c+6xGX0vcpYHfPCLcftJgvln8dlx/OZTjmvYr89/2qWt57mdeLxdfVs8/4X2uWdce76lrgNcSzucG6TXcw7yl1Pxrx58jzl/HXHY3freHEuHN13n6Jb2Zn/n3meXjdGxJ99MItu0PRCE/H4bD4QXZ7YdH+x6OXZvqHFa/jb02UCqy0Xb8fxu+taHj3lWHFZjxVnfjV+eXPrnSja6LK2kfFn8fFH7MSOAQYYWAMD+Xt5PnPgzBV+PHQed6X1h/PHHx09Ur2p+L+c/WkpOJgjX+FjwhqMjwwwUDFQLLotMk4Vim6V5XO7SEx9Z+O6UXQzSDgQbRAD8UW1t/zqTW26Ido0TogeDUfX4urJDRGTNTwYJ3c6rIrN8MaM+JLorz/T+Mg9k9M17A/6wPD6gDbRJgwwwMBMA2fzd1l/7enZdwwPed7gPO5Km9Mk7x+ufST1svZH0W3I/dq2LasfWE93azHH1PDktA7zDkU33rp7EytFtw6DClA6yvAN5I9CvO7H4XDLreDD3w/WRm307rmw+qsfjt8xNevdc8awSkLmxMPZY0XvDXteaH4s2eTdJDPe96LPXJ4+OU6i7Qz3HLmyk2j8XB4/4i7uDDDAwBVuID428ltHmi++yd4xfVv2/seGR8leMXNk53FXXH/N3w16/WW/w1LR7Yqzc8WMS1f4MUScKzmScV9RdDNm6NvLNKDoZjBuGIx1xGV2xN7ryif+n/nZlf5oFe7i+7DGL/zdGXYdby4c9XazUce/158NX8ue03/d7rDridPhzLnp+x/P//W1cPhne/N3Xv4wHHyducE5inch3vxkWJ31DtSNath+mZswwAADDHygDVwIJx6+b/T4vi13PxkOv/J2OB/nBBcvhjPZe1jvGL+7+TM/ejGcv5Jj5TzuCuvr8b3fD4anLvvFropugzuPuZLHItt+hY1Fi+QxFN2MGYu48Z1F3Si6ObB8AA4sG32AOBcO785OOn8YDnZ4Ge6ig4XvLcnR6OWu4xfs7n/BXT6Lujv/0pPhlvwF2eMCZnYldPLfdbvDvpY74RZdr+/17ydnj/x4dJfn7Yf6veBaW/RvCzEUQwYYYICBy2bg4tvh8PfHhbfCHC6Zz23Z9WzznXBXxHm+87jL5mtRH6efDNdvXQmfefj0AIq9im5XnJ9F3fmevOWaGFB0M2aY1y7TgKLbmgxc0C4TrXWVvL16JNyydSVc7TF5JmLGs6KBc2+Gw4/9ONx+x73jR3VuXQlbbtsd7nr4eFi97FemlvqxtsvbLnlHhncZFj0zIh4MMMAAAx9AA2+sPhv2fXd3uH5bfvHUdfeG7Xf/OOx/Lrn77UqNi/O4K6xPXwxH788udh3KI00V3eSGnFMyMI8BRTde5vHib/t6UXS7UifotvsKm6AbrPoOVr7PEAMMMMAAAwwwwAADDDDAAAMMMMAAAwwwwMCQDSi6KV4pXjHAAAMMMMAAAwwwwAADDDDAAAMMMMAAAwwwwAADDPQ0oOjWM4BDrqjaNhV/BhhggAEGGGCAAQYYYIABBhhggAEGGGCAAQYYYGA5BhTdFN1UrhlggAEGGGCAAQYYYIABBhhggAEGGGCAAQYYYIABBnoaUHTrGUDV4eVUh8VZnBlggAEGGGCAAQYYYIABBhhggAEGGGCAAQYYYGDIBhTdFN1UrhlggAEGGGCAAQYYYIABBhhggAEGGGCAAQYYYIABBnoaUHTrGcAhV1Rtm4o/AwwwwAADDDDAAAMMMMAAAwwwwAADDDDAAAMMMLAcA4puim4q1wwwwAADDDDAAAMMMMAAAwwwwAADDDDAAAMMMMAAAz0NKLr1DKDq8HKqw+IszgwwwAADDDDAAAMMMMAAAwwwwAADDDDAAAMMMDBkA4puim4q1wwwwAADDDDAAAMMMMAAAwwwwAADDDDAAAMMMMAAAz0NKLr1DOCQK6q2TcWfAQYYYIABBhhggAEGGGCAAQYYYIABBhhggAEGGFiOAUU3RTeVawYYYIABBhhggAEGGGCAAQYYYIABBhhggAEGGGCAgZ4GFN16BlB1eDnVYXEWZwYYYIABBhhggAEGGGCAAQYYYIABBhhggAEGGBiyAUU3RTeVawYYYIABBhhggAEGGGCAAQYYYIABBhhggAEGGGCAgZ4GFN16BnDIFVXbpuLPAAMMMMAAAwwwwAADDDDAAAMMMMAAAwwwwAADDCzHgKKbopvKNQMMMMAAAwwwwAADDDDAAAMMMMAAAwwwwAADDDDAQE8Dim49A6g6vJzqsDiLMwMMMMAAAwwwwAADDDDAAAMMMMAAAwwwwAADDAzZgKKbopvKNQMMMMAAAwwwwAADDDDAAAMMMMAAAwwwwAADDDDAQE8Dim49AzjkiqptU/FngAEGGGCAAQYYYIABBhhggAEGGGCAAQYYYIABBpZjQNFN0U3lmgEGGGCAAQYYYIABBhhggAEGGGCAAQYYYIABBhhgoKcBRbeeAVQdXk51WJzFmQEGGGCAAQYYYIABBhhggAEGGGCAAQYYYIABBoZsQNFN0U3lmgEGGGCAAQYYYIABBhhggAEGGGCAAQYYYIABBhhgoKcBRbeeARxyRdW2qfgzwAADDDDAAAMMMMAAAwwwwAADDDDAAAMMMMAAA8sxoOim6KZyzQADDDDAAAMMMMAAAwwwwAADDDDAAAMMMMAAAwww0NOAolvPAKoOL6c6LM7izAADDDDAAAMMMMAAAwwwwAADDDDAAAMMMMAAA0M2oOim6KZyzQADDDDAAAMMMMAAAwwwwAADDDDAAAMMMMAAAwww0NOAolvPAA65omrbVPwZYIABBhhggAEGGGCAAQYYYIABBhhggAEGGGCAgeUYUHRTdFO5ZoABBhhggAEGGGCAAQYYYIABBhhggAEGGGCAAQYY6GlA0a1nAFWHl1MdFmdxZoABBhhggAEGGGCAAQYYYIABBhhggAEGGGCAgSEbUHRTdFO5ZoABBhhggAEGGGCAAQYYYIABBhhggAEGGGCAAQYY6GlA0a1nAIdcUbVtKv4MMMAAAwwwwAADDDDAAAMMMMAAAwwwwAADDDDAwHIMKLopuqlcM8AAAwwwwAADDDDAAAMMMMAAAwwwwAADDDDAAAMM9DSg6NYzgKrDy6kOi7M4M8AAAwwwwAADDDDAAAMMMMAAAwwwwAADDDDAwJANKLopuqlcM8AAAwwwwAADDDDAAAMMMMAAAwwwwAADDDDAAAMM9DSg6NYzgEOuqNo2FX8GGGCAAQYYYIABBhhggAEGGGCAAQYYYIABBhhgYDkGFN0U3VSuGWCAAQYYYOAKMfB//vcPwv/78/8I4eWr/CcGDDDAAAODMpAdn7LjlGTOcpI54izODDDAAAMMMMDAMA0oul0hSTYdaJgdSLtoFwYYYICBZRn4v//rfw4quarwp/DJAAMMMFBnIDteLevYaD3mYQwwwAADDDDAAANDM6DopujmhIgBBhhggAEGBm4gu3OgLrHpZxLeDDDAAANDNOCON8mvoSW/bA+TDDDAAAMMMLAsA4puA0+yLQuC9Rh0GGCAAQYYGK4Bj5SUVB9iUt02cckAA00GsuOWecVw5xXaRtswwAADDDDAAAPrZ0DRTdHNyRADDDDAAAMMDNxAU1LTzyW8GWCAAQaGakAiZ/0SOWIrtgwwwAADDDDAwHANKLoNPMmm8wy382gbbcMAAwwwsCwDQ02o2i7JfgYYYICBJgPLOkZaj/kYAwwwwAADDDDAwJAMKLopurm7gQEGGGCAAQYGbqApoennkt0MMMAAA0M1MKTEh22RiGOAAQYYYIABBhhYlgFFt4En2ZYFwXoMOgwwwAADDAzXwFATqrZLsp8BBhhgoMmAecVw5xXaRtswwAADDDDAAAPrZ0DRTdHN3Q0MMMAAAwwwMHADTQlNP5fsZoABBhgYqgGJnPVL5Iit2DLAAAMMMMAAA8M1oOg28CSbzjPczqNttA0DDDDAwLIMDDWharsk+xlggAEGmgws6xhpPeZjDDDAAAMMMMAAA0MyoOim6ObuBgYYYIABBhgYuIGmhKafS3YzwAADDAzVwJASH7ZFIo4BBhhggAEGGGBgWQYU3QaeZFsWBOsx6DDAAAMMMDBcA0NNqNouyX4GGGCAgSYD5hXDnVdoG23DAAMMMMAAAwysnwFFN0U3dzcwwAADDDDAwMANNCU0/VyymwEGGGBgqAYkctYvkSO2YssAAwwwwAADDAzXgKLbwJNsOs9wO4+20TYMMMAAA8syMNSEqu2S7GeAAQYYaDKwrGOk9ZiPMcAAAwwwwAADDAzJgKKbopu7GxhggAEGGGBg4AaaEpp+LtnNAAMMMDBUA0NKfNgWiTgGGGCAAQYYYICBZRlQdBt4km1ZEKzHoMMAAwwwwMBwDQw1oWq7JPsZYIABBpoMmFcMd16hbbQNAwwwwAADDDCwfgYU3RTd3N3AAAMMMMAAAwM30JTQ9HPJbgYYYICBoRqQyFm/RI7Yii0DDDDAAAMMMDBcA4puA0+y6TzD7TzaRtswwAADDCzLwFATqrZLsp8BBhhgoMnAso6R1mM+xgADDDDAAAMMMDAkA4puim7ubmCAAQYYYICBgRtoSmj6uWQ3AwwwwMBQDQwp8WFbJOIYYIABBhhggAEGlmVA0W3gSbZlQbAegw4DDDDAAAPDNTDUhKrtkuxngAEGGGgyYF4x3HmFttE2DDDAAAMMMMDA+hlQdFN0c3cDAwwwwAADDAzcQFNC088luxlggAEGhmpAImf9EjliK7YMMMAAAwwwwMBwDSi6DTzJpvMMt/NoG23DAAMMMLAsA0NNqNouyX4GGGCAgSYDyzpGWo/5GAMMMMAAAwwwwMCQDCi6Kbq5u4EBBhhggAEGBm6gKaHp55LdDDDAAANDNTCkxIdtkYhjgAEGGGCAAQYYWJYBRbeBJ9mWBcF6DDoMMMAAAwwM18BQE6q2S7KfAQYYYKDJgHnFcOcV2kbbMMAAAwwwwAAD62dA0U3Rzd0NDDDAAAMMMDBwA00JTT+X7GaAAQYYGKoBiZz1S+SIrdgywAADDDDAAAPDNaDoNvAkm84z3M6jbbQNAwwwwMCyDAw1oWq7JPsZYIABBpoMLOsYaT3mYwwwwAADDDDAAANDMqDopujm7gYGGGCAAQYYGLiBpoSmn0t2M8AAAwwM1cCQEh+2RSKOAQYYYIABBhhgYFkGFN0GnmRbFgTrMegwwAADDDAwXANDTajaLsl+BhhggIEmA+YVw51XaBttwwADDDDAAAMMrJ8BRTdFN3c3MMAAAwwwwMDADTQlNP1cspsBBhhgYKgGJHLWL5EjtmLLAAMMMMAAAwwM14Ci28CTbDrPcDuPttE2DDDAAAPLMjDUhKrtkuxngAEGGGgysKxjpPWYjzHAAAMMMMAAAwwMyYCim6KbuxsYYIABBhhgYOAGmhKafi7ZzQADDDAwVANDSnzYFok4BhhggAEGGGCAgWUZUHQbeJJtWRCsx6DDAAMMMMDAcA1c1oTqSx8Pj2xfCZu2Zv/dEX5+rGOC+0+fCj+4Nv/etTeG438af+/knrislfDAoWRZ//3p8OXROqa/H6+z4f/3bAmjuBz7bLg1fu/ureHCy8kyS//+y8N35vvxhfC7k81/F/7zhvC5uMxdnwqXSstpbY+THwtP7/liuOnvd+Tr2hFu+PoXwr898dHx9s6zrNHfbgkPxG3Zui2cnPX9Q9vy9a6ETd/8dDg7+fuPhl9/syGW2fL/7qvhpn++Mfz8iY+GSy+VYjOjbTb//Z3hy/fcEH59qOa7k/WXljn6+YfC8d0xTith54GP1MRoxnZPYlPet9vCr/97vM7UXKup0bKm3yu386n7vzqJ7a0Pb67Z1uI+XvqPbeGGuH23Xxv+Uo7ry1eFC0evCT/f9cVw083TOHzi5i+F7+z9dDj5+w+1rGONXMxo203XfiPclPn95eZwoWb7yzEq/H9qMcYh+fzEzXeGnbuuDb87Wtfu01gu1H4z1t3oII4rBbddnE63dxSDdP2FZaaem60V4ljYlqvChWe2hkfu+VK44e+i+R3hb27tYqa0jaXltq1z0d+ZVwx3XqFttA0DDDDAAAMMMLB+BhTdFN3c3cAAAwwwwAADAzewaMJzrb73l0fumBQbPrfv4y2FgGlS9+xPb6v9TppAX5Oi28ubw89vj8nnL4anX5huQ3H/079bCf/y780FjVP3f2Oy7W1/V1z+VeHSMzeEW2OhMSkujBP8O8JNe7fMV8AbJcXXqLjycprsj/Gq/9z85RvCqT8kcZxVmEn2dfOt/xB+/V8f7mQkvLA17Ey+u+n2z4a/VAoB3be7WEiZFjRSc8W/qdv/6ffK7Rv+8KnwL7F9r70tPJ0X9Sp/l+3DS6m3b4QHDpW8nfxY+PV37wyb0/2v/HtHuOm7nw5n0raYxGeNXMzTtpmLtmL1ZNtyO2nhqbJvxdh/4us3hJPPJeaSZS3UfnOsu2CiUCDLt6eT09K2p+svLDP13GIt2f+Jr5c+Eo7/62wzt96/Zf4Cad361uBnEjnrl8gRW7FlgAEGGGCAAQaGa0DRbeBJNp1nuJ1H22gbBhhggIFlGZgkXdcgCbrQshruWmtcVsvdcWkCfW2KbleFtCj4nccaCj7l4kLjHWybw8//MRYEpnfoNe5rbJM0Rlu/Gn7wy/zOtj9tDk//f/EOqZriS/x+4+caFVfmKLplRYjN//Tp6Z1Z5djNKKBs2vrV8J3HZt/Zl7bbuPDxjfDIM6XixZzbPS2gTAsaqbnp72Mblz+n36tr8wuPfWFSKNvcaOiqcPbfbmv+u99fE75zc3m9Lf9/87ZwslJ4WyMX87btzTeEU13veEsLTzPNrIRN134pPPJMtf8u1H7zrjtuX6FANrbYzWnJbbr+wjIXL7qld1pu/vK2cPzYtJB76diW8PPJOLMSutyJWed7rX+2rGOk9ZiPMcAAAwwwwAADDAzJgKKbopu7GxhggAEGGGBg4AbWOhG6yPJO7Zve/XXrI+2P1rv0xI2TgsOm0iMf0wR6Y9Gt8FjEUjK7rjiVPmLyW9fUPmIyvfNuVHhJHnlZiMfRa8NNMQHfUlQpfCfbpt98fnJ33KZ//WTxTq/kTpnNhQR8h317eY2KK4XiVU1h6U8fCad++g/hpngn19bkcY9pYaaubf6wOZz86efDlyePu8sKSF8Nj/xny/6lhdmbvzp5DOPm3R0f59lY1Kius9FcnaVZPyvcwfbV8MB/TAsfExPpHXFbS7H+05bwQFpwu/bOsPOBa8KZ56bLufTfHwu/2/el8InosFwEHW3jGrmY1bZ/+kg488tthTs46x8DWo17mNFGl577WPjdA18omNt07RfC70p3q65d+y1Q8FrUaeO+L7ANWXunRf2msatgc8YjdGc5X6PfDynxYVsk4hhggAEGGGCAAQaWZUDRbeBJtmVBsB6DDgMMMMAAA8M1MEnmr1EidKHlpYWt7W13u3wkPH13vGunemdXYwJ9VvK/dd/TR/nVJZvTbYrbtqP4Trl8+dP3vrU/grIcw+wOqHgX1U0d3vdV/n7z/69RcWVW0S3f/0u/+Xz1fXZd2+YPHws//6fpu8k2NbzHLNvXaWF2x+iuuOm73doeEZoUdhqLGsnf5PvUaK7VVHU5kzb6zxsmRcLqPn4onNob72ys3nH0l4enj2rddPM/hN/9vmU9xz4bvpkUQb/80/TuwTVy0bFtLx1K3k/3T+m7Alu2v2sbPfep8IOkEFm+g3Dt2m/+gtfCThv3ff5tGLnr2E4XDnxxMg7N82jcie1F+0TD98wrhjuv0DbahgEGGGCAAQYYWD8Dim6Kbu5uYIABBhhggIGBG1ivhOh8y00LVzvCD56Y3plTWE5anKt5R1djAr1jUrmwriTRmz4CrvKIyZPXhO/Eu4b+8c7JnWzVu87S4t0cj5bMtiO9Q67ubrBkW5v2of7na1Rc6Vh0C+mddXE/5mmbP3wy/GB7e2EzvJxYigXcZ26YFPtm3Uk5ilNjUaNaBGo0t3CbfDgc3xWLizvCN/8tKYYdvTbcGq1t3xZO/inZnvRupa13hJ8fTX7XsC2FYleM1ehv18hF57ZNHrt67bZwqmF7C4bnaKPw+8+GL8e4le4OXLv2m7fg1cNp477Puw25kbSd/vFvw5muj/js0k7r+DcSOeuXyBFbsWWAAQYYYIABBoZrQNFt4Ek2nWe4nUfbaBsGGGCAgWUZKCSy1zFBOnM9SWGk/NjI+N30MZR1j6FrTKCnSeVY7JlnX9NiX+mxkOldaP/y7x+fvrOtUMS4KoSWZcT9a/78aHh6cpfXjvDNwl1Js4srzctdo+JK16LbS58MP4jFj9gOc7ZNWgD93P0fLz5qM2vTJM7TAltS8Cy3S52DxqJGNdaN5uqW2/Vn//3p6V1o2eP+Ru9cKxr4zmMfKez7pX+/cXIX0qaS0eb2Two/W3eEB/4j7t8auejctutcdHv5Q2F6t+NKSAvna9d+cxa8+jht9DnnNkSPL20JD0zuetwRbvrXa8LZK6DwtqxjpPWYjzHAAAMMMMAAAwwMyYCim6KbuxsYYIABBhhgYOAGmhPyMQG/rM+kMJLdqXOstN70XVYN7x1qTKCnyf9Y9Gn6rH0vWrpt6V1qHw6/+1a882r88+kjJL9ReO9Y+t63RR7NduGXN4a/mWzzV8MDhz5cKLos1o5rVFzpWHTLCpSb832Y3AmYtk0sxMViQN3nf07vWttU8469aWG2+CjJrCg1XnfLnZRxfY1FjZLJl68Kqbn4CND6z9L71+K6Gj7TR0XesHdLuDDZ/pWwqSZOU3cr4Zv/VizItdn4y/4vTYp100dMrpGLrm2bPlKzpk1rt3+ONsq+nxbH02Lt2rXffAWvXk4b932+bUjjeur+6WNLx353hBv++cbwyCNbw/FnNocL6V2VDWbT5S3j30NKfNgWiTgGGGCAAQYYYICBZRlQdBt4km1ZEKzHoMMAAwwwwMBwDSwjOdp1Hek7gz63r3gXU+EOp9Lv4vLTBPoDh5ICSZr8nxSuYrGs9FlbdLsqpEWNSdHsT58K/xKXF4sFyaMgp8n9NBle9164ZFtrEtp/+bcvhk/E9Uw+6wtvl/7jhvDl7DGX/3hn+Ob+zTMKc2tUXJlVdPvD5nDykX+Yvqtsa/I+vrRtaopJsW0nn21/nzxicfPuT4VLaSxf+nh4JD6a8u6t4UL6u/K/G4sa1XZKzdUX26Kv+Ypu4U9bwgOTd5HtCJ/4u7icrxaKuTEu6XYU7Jf3rfT/aTF46UW3P30knPnltnDr5C6rlVB3B2vcx8LnHG00+l7D36dx69d+aR+f0dZ9nTbsS5jVD0ttX4jnSx8NT98dH2saraWfO8Lf/NMN4XfH1qLYX+1HhW1p287kd+YVw51XaBttwwADDDDAAAMMrJ8BRTdFN3c3MMAAAwwwwMDADSyS7Fy37yTJ6E2Tx+pdFUJaMCm9kyndljSBXig8pIWaSdEqTSgn/24ouqXvVYsFnfSRftNH1iWPyvvHa8NfsiRxuv5YnEuSx+k+lP996T+2TYtV134pPPDAjdP/31oqvL2U3JFXfudX7frSolt6B19DUjxN9v/rJ5OCXlpwSGLZEOtPpAWxNDZdim4td7pNC7PfCI88U92H6e9r7qRM45PuZ5OH/O9Tc/2KNtXtnd6dN43p5/ZsKRYT8+1Ii8Jre6dbDxdp2zZYKMTs5hvCqa6PNZyjjbI+NaQ73aYOF3TauO9pP5xR+Eu9x3+/9OHwl1/+bfjOl78xuSO10D6jNtwRdqbvGYzfvQyfEjnrl8gRW7FlgAEGGGCAAQaGa0DRbeBJNp1nuJ1H22gbBhhggIFlGSgXeS73/6eP1Yvv5Lr0RHw04EqIBa+67UwLII1Fty6FndoEclJMGz3eMn1PVPHutVP3fyN/ZN+d4edHrwrp3UTT4ly1yFLdp/TxlbeFX/9+/J3sUYM3TIoY08LbdD07wr/8e5c7UtIk/Xhbq9sw3c60yLipUIxKlzMtENUl7G/67jXhL2lhJS3MdGibtLg0vZOwXJht24bx78p3Uhb2u7GoMY1F/PtGc7WGqt+Py6n/TN/jthI2XfuF8LsX6pdRaJve73RL27OHi7RtJ17r22bzrdvCyZP1+1YbmznaKGTvdNs1XW/aB9eu/dKYtRS8ChcQTLep2ldanDbue8dt6GLzpQ+FC8c+Ho4fuDY8suu28DfJ3YijCyIG8LjJZR0jrcd8jAEGGGCAAQYYYGBIBhTdFN3c3cAAAwwwwAADAzdQm9DukpRdr795YWvYGRP027M7Xz4Snr47Jqfr7wyJ+9CYQE+T/x0KO3F55c9pwWdHeOA3nwwPxER0+e615G6sWx/Zkmx/sThXXn71/5M70UqFlELh7do7wwMHPhu+k2/P5n/6dDjbsX1O/muM7UqIRc7qdmTFkA+H47umj58whUUzAAAgAElEQVSbPoow+12a7J8uLxYSNv/9nWHnrmvD747WFALnaZsXrpns46atRQtpYTaut/Wz4b2Ao31vLGpUi0KN5jrGvz7WyXp+8/nJO9c2Fe4uTP4mW1d6l2j2TsSjpd/XbM+lQ8ldlKO+Nv3OmrhI2zb26ZrPv9n1qXAhLcTWbGslTnO0UUjfGbe1+K6/tWu/tA80F93WxGnjvnfbhkosu8T75CfDD+LjWbeuhMJFDV2+vw5/M6TEh22RiGOAAQYYYIABBhhYlgFFt4En2ZYFwXoMOgwwwAADDAzXwEIJ2HVIoE63I72DbEf4wQN/G26NifrbPzt+XGPD+hsT6Gnyv0fRrfCIyb/bMXkEW/U9VMn7w27+6vSutHJxrmE/prFIim6FO8vGxZFC4S3GqGPBJa6jUAS4dno3Xfx9/CwUaLJ1HJsWaIpFt+aCQ1xW4bNr25zcEh758rTot6nQjmlhtlr0ayq+Vdst36fGoka6z+N/N5qb2bbVZRXiEr8/x7akd4luuvnGcPy5lnUc+2z4Ziwab10JxSLqVWFNXLS17e8/nax/erdmbQxiLNLPrnE5tjV8Z/JuvJVQfjzn2rVfl4LXGjlt3Pcu21A2kX6n/VGiaxer8jYs9v/mFcOdV2gbbcMAAwwwwAADDKyfAUU3RTd3NzDAAAMMMMDAwA10TnKnCe/1/vczN4TPTYpI0yJKY5Ek357GpHBb8n+ufUkeMTnZvuKdMzGe00dMTrc/faxd/Lv2z2R92z8fTv6hmpwuF97+Zu+W5F1r1b+vrC973F1SlNj0d18KjzyxOVyKdx79YXM4+cg/TAuHW1fC5krxME3cr23R7dLJzeHkTz8fvvx30zhuyt7rlz9qc7Q/xz47LcxWtq0Ug/SOsKYibmNRo7Ssl68KjebmclVd7qSd5tiW8Kct4YG0La+9M/zLI58MZ5770MTEpf/+WPjdvuLjArM7IwuP/My2fS1czOh3hUJuS8F3Eos0pjPiMtrPB74QbkoKi5tq+tDatV+HPrBWThv3vcM2pDHM/z19x9xKuPWhj02sFOOeFgxnP3K0+N0W3zXb0/W7Ejnrl8gRW7FlgAEGGGCAAQaGa0DRbeBJNp1nuJ1H22gbBhhggIFlGeia4Fzu36XJ47zYUnr8Xd32NCbQ0+T/pFiWFnFK/665qyyub/qIyfw7d28NF+oSx8kjJsd3Ws37aMlxovrCY1+Y3FG3+cvbwu+OfmScFM/euXT0mvDI15O7v7J9yx41+ZuaxzjWbWP82dFrw61pcaItRjdvqyn+pe3Vo+jWtt7J775a2b9T++I79HaEHzwxLTDFNit/ntwTY1Z8ROXk7xqLGtXiQWqu6Y666c/njE3WPnNsy2j7f39N4c6u6bpLxmM8a9sz38++LtJ+V7gzcRrHv/z0tonvTW3bEq3GzzQucV/aPrOiXuHuzPE2rF37ze4Da+Y03ffCWDV7GybGYxyzzz+kxdod4abvfjacPJb0oz9sDsf3fmnSTtWi+7Q9a5efrmsN/72sY6T1mI8xwAADDDDAAAMMDMmAopuim7sbGGCAAQYYYGDgBpaZJJ1nXYXH222d9b6xagK98M6hNPnflpiPvysksksJ5aPXhpvi39U8lm+6j8kjJrO/n3UHVmMy+sPh1P3ThHdTEeUTt9+R3NXz1fCdxz7acMdKaX/y9V76r8+GnYW7yapFms23fr7hkYULJvuzdc/RNptv/Yfw6/8qFRTTO9eu3RZOxjv0GuN5VQjJnZSbd38qXCr/bWNRoxq7tSvaVJc9sjTHtkzsnfxY+PV375wUSerNZMWVT4czNXdPTpbz8lWhl4u0bRuKbuGlj4Zf/1Msgq6Ez/3rJ6vtUW6f7P/TuCT9sW5fP/H1G8LJhkdtrl37zegDa+k03ffCWJVuQ7X/VmKTfve5T4Uf3Dpth8rf5jH+xN2fnWkm9bOe/x5S4sO2SMQxwAADDDDAAAMMLMuAotvAk2zLgmA9Bh0GGGCAAQaGa2A9k6K9lp093m57TBzXP8KxvPw0gb5uRbeXk0c+Zo85/O+GYsnLV4XpnS0rYf5HSxaXe+n3nww/3/XFcNPN08T45r+/M3z5nr+d3P1WLJDsCDt/unmuwltWADn50xvCd77+1fCJWMi49hvhpn++Mfz8l5vDhcaCVprsb49Juc1mFd3G+3hD+PWhj04feZkUYS4c+GKIBYLP7ft4x/1N27DGVmNRo9gm2b6k5uJ2NH/OGZtycSktkiQxqMQ0/112J2TZzCdu/lL4zt5Ph5O/T+5kmrWsRV10Kbpl6y7dafXNn3YoGKdtFK0mn5+4+c6wc9e1k77RFKO1a7/2PrCmTtN9L5hItyGOnS2fhe9mjxT9UDh76NPhkXu+FG76+/I4M+6DTXG8HD83rxjuvELbaBsGGGCAAQYYYGD9DCi6Kbq5u4EBBhhggAEGBm7gciRLrbNavBETMWGAAQa6G5DIWb9EjtiKLQMMMMAAAwwwMFwDim4DT7LpPMPtPNpG2zDAAAMMLMuAJG/3JK9YiRUDDDAwDAPLOkZaj/kYAwwwwAADDDDAwJAMKLopurm7gQEGGGCAAQYGbkACeRgJZO2gHRhggIHuBoaU+LAtEnEMMMAAAwwwwAADyzKg6DbwJNuyIFiPQYcBBhhggIHhGpDk7Z7kFSuxYoABBoZhwLxiuPMKbaNtGGCAAQYYYICB9TOg6Kbo5u4GBhhggAEGGBi4AQnkYSSQtYN2YIABBrobkMhZv0SO2IotAwwwwAADDDAwXAOKbgNPsuk8w+082kbbMMAAAwwsy4Akb/ckr1iJFQMMMDAMA8s6RlqP+RgDDDDAAAMMMMDAkAwouim6ubuBAQYYYIABBgZuQAJ5GAlk7aAdGGCAge4GhpT4sC0ScQwwwAADDDDAAAPLMqDoNvAk27IgWI9BhwEGGGCAgeEakOTtnuQVK7FigAEGhmHAvGK48wpto20YYIABBhhggIH1M6Dopujm7gYGGGCAAQYYGLgBCeRhJJC1g3ZggAEGuhuQyFm/RI7Yii0DDDDAAAMMMDBcA4puA0+y6TzD7TzaRtswwAADDCzLgCRv9ySvWIkVAwwwMAwDyzpGWo/5GAMMMMAAAwwwwMCQDCi6Kbq5u4EBBhhggAEGBm5AAnkYCWTtoB0YYICB7gaGlPiwLRJxDDDAAAMMMMAAA8syoOg28CTbsiBYj0GHAQYYYICB4RqQ5O2e5BUrsWKAAQaGYcC8YrjzCm2jbRhggAEGGGCAgfUzoOim6ObuBgYYYIABBhgYuAEJ5GEkkLWDdmCAAQa6G5DIWb9EjtiKLQMMMMAAAwwwMFwDim4DT7LpPMPtPNpG2zDAAAMMLMuAJG/3JK9YiRUDDDAwDAPLOkZaj/kYAwwwwAADDDDAwJAMKLopurm7gQEGGGCAAQYGbkACeRgJZO2gHRhggIHuBoaU+LAtEnEMMMAAAwwwwAADyzKg6DbwJNuyIFiPQYcBBhhggIHhGpDk7Z7kFSuxYoABBoZhwLxiuPMKbaNtGGCAAQYYYICB9TOg6Kbo5u4GBhhggAEGGBi4AQnkYSSQtYN2YIABBrobkMhZv0SO2IotAwwwwAADDDAwXAOKbgNPsuk8w+082kbbMMAAAwwsy4Akb/ckr1iJFQMMMDAMA8s6RlqP+RgDDDDAAAMMMMDAkAwouim6ubuBAQYYYIABBgZuQAJ5GAlk7aAdGGCAge4GhpT4sC0ScQwwwAADDDDAAAPLMqDoNvAk27IgWI9BhwEGGGCAgeEakOTtnuQVK7FigAEGhmHAvGK48wpto20YYIABBhhggIH1M6Dopujm7gYGGGCAAQYYGLgBCeRhJJC1g3ZggAEGuhuQyFm/RI7Yii0DDDDAAAMMMDBcA4puA0+y6TzD7TzaRtswwAADDCzLgCRv9ySvWIkVAwwwMAwDyzpGWo/5GAMMMMAAAwwwwMCQDCi6Kbq5u4EBBhhggAEGBm5AAnkYCWTtoB0YYICB7gaGlPiwLRJxDDDAAAMMMMAAA8syoOg28CTbsiBYj0GHAQYYYICB4RqQ5O2e5BUrsWKAAQaGYcC8YrjzCm2jbRhggAEGGGCAgfUzoOim6ObuBgYYYIABBhgYuAEJ5GEkkLWDdmCAAQa6G5DIWb9EjtiKLQMMMMAAAwwwMFwDim4DT7LpPMPtPNpG2zDAAAMMLMuAJG/3JK9YiRUDDDAwDAPLOkZaj/kYAwwwwAADDDDAwJAMKLopurm7gQEGGGCAAQYGbkACeRgJZO2gHRhggIHuBoaU+LAtEnEMMMAAAwwwwAADyzKg6DbwJNuyIFiPQYcBBhhggIHhGvh/f/4fQaK3e6JXrMSKAQYYuLwGsuOWecVw5xXaRtswwAADDDDAAAPrZ0DRTdHNyRADDDDAAAMMDNzA//nfP1B0e/nyJpAl8MWfAQYY6G4gO25J5KxfIkdsxZYBBhhggAEGGBiuAUW3gSfZdJ7hdh5to20YYIABBpZp4P/+r/+p8KbwxgADDDAweAPZ8WqZx0frMh9jgAEGGGCAAQYYGJIBRTdFNydEDDDAAAMMMHCFGMjuHPCoye53WrgrRawYYICB5RnIjk/ucJPwGlLCy7bwyAADDDDAAAOXw4Ci2xWSZLscOKzToMQAAwwwwAADDDDAAAMMMMAAAwwwwAADDDDAAAMMdDOg6Kbo5u4GBhhggAEGGGCAAQYYYIABBhhggAEGGGCAAQYYYICBngYU3XoGUHW3W3VXnMSJAQYYYIABBhhggAEGGGCAAQYYYIABBhhggAEGNrIBRTdFN5VrBhhggAEGGGCAAQYYYIABBhhggAEGGGCAAQYYYICBngYU3XoGcCNXZO2bKw4YYIABBhhggAEGGGCAAQYYYIABBhhggAEGGGCAgW4GFN0U3VSuGWCAAQYYYIABBhhggAEGGGCAAQYYYIABBhhggAEGehpQdOsZQNXdbtVdcRInBhhggAEGGGCAAQYYYIABBhhggAEGGGCAAQYY2MgGFN0U3VSuGWCAAQYYYIABBhhggAEGGGCAAQYYYIABBhhggAEGehpQdOsZwI1ckbVvrjhggAEGGGCAAQYYYIABBhhggAEGGGCAAQYYYIABBroZUHRTdFO5ZoABBhhggAEGGGCAAQYYYIABBhhggAEGGGCAAQYY6GlA0a1nAFV3u1V3xUmcGGCAAQYYYIABBhhggAEGGGCAAQYYYIABBhhgYCMbUHRTdFO5ZoABBhhggAEGGGCAAQYYYIABBhhggAEGGGCAAQYY6GlA0a1nADdyRda+ueKAAQYYYIABBhhggAEGGGCAAQYYYIABBhhggAEGGOhmQNFN0U3lmgEGGGCAAQYYYIABBhhggAEGGGCAAQYYYIABBhhgoKcBRbeeAVTd7VbdFSdxYoABBhhggAEGGGCAAQYYYIABBhhggAEGGGCAgY1sQNFN0U3lmgEGGGCAAQYYYIABBhhggAEGGGCAAQYYYIABBhhgoKcBRbeeAdzIFVn75ooDBhhggAEGGGCAAQYYYIABBhhggAEGGGCAAQYYYKCbAUU3RTeVawYYYIABBhhggAEGGGCAAQYYYIABBhhggAEGGGCAgZ4GFN16BlB1t1t1V5zEiQEGGGCAAQYYYIABBhhggAEGGGCAAQYYYIABBjayAUU3RTeVawYYYIABBhhggAEGGGCAAQYYYIABBhhggAEGGGCAgZ4GFN16BnAjV2TtmysOGGCAAQYYYIABBhhggAEGGGCAAQYYYIABBhhggIFuBhTdFN1UrhlggAEGGGCAAQYYYIABBhhggAEGGGCAAQYYYIABBnoaUHTrGUDV3W7VXXESJwYYYIABBhhggAEGGGCAAQYYYIABBhhggAEGGNjIBhTdFN1UrhlggAEGGGCAAQYYYIABBhhggAEGGGCAAQYYYIABBnoaUHTrGcCNXJG1b644YIABBhhggAEGGGCAAQYYYIABBhhggAEGGGCAAQa6GVB0U3RTuWaAAQYYYIABBhhggAEGGGCAAQYYYIABBhhggAEGGOhpQNGtZwBVd7tVd8VJnBhggAEGGGCAAQYYYIABBhhggAEGGGCAAQYYYGAjG1B0U3RTuWaAAQYYYIABBhhggAEGGGCAAQYYYIABBhhggAEGGOhpQNGtZwA3ckXWvrnigAEGGGCAAQYYYIABBhhggAEGGGCAAQYYYIABBhjoZkDRTdFN5ZoBBhhggAEGGGCAAQYYYIABBhhggAEGGGCAAQYYYKCnAUW3ngFU3e1W3RUncWKAAQYYYIABBhhggAEGGGCAAQYYYIABBhhggIGNbEDRTdFN5ZoBBhhggAEGGGCAAQYYYIABBhhggAEGGGCAAQYYYKCnAUW3ngHcyBVZ++aKAwYYYIABBhhggAEGGGCAAQYYYIABBhhggAEGGGCgmwFFN0U3lWsGGGCAAQYYYIABBhhggAEGGGCAAQYYYIABBhhggIGeBhTdegZQdbdbdVecxIkBBhhggAEGGGCAAQYYYIABBhhggAEGGGCAAQY2sgFFN0U3lWsGGGCAAQYYYIABBhhggAEGGGCAAQYYYIABBhhggIGeBhTdegZwI1dk7ZsrDhhggAEGGGCAAQYYYIABBhhggAEGGGCAAQYYYICBbgYU3RTdVK4ZYIABBhhggAEGGGCAAQYYYIABBhhggAEGGGCAAQZ6GlB06xlA1d1u1V1xEicGGGCAAQYYYIABBhhggAEGGGCAAQYYYIABBhjYyAYU3RTdVK4ZYIABBhhggAEGGGCAAQYYYIABBhhggAEGGGCAAQZ6GlB06xnAjVyRtW+uOGCAAQYYYIABBhhggAEGGGCAAQYYYIABBhhggAEGuhlQdFN0U7lmgAEGGGCAAQYYYIABBhhggAEGGGCAAQYYYIABBhjoaUDRrWcAVXe7VXfFSZwYYIABBhhggAEGGGCAAQYYYIABBhhggAEGGGBgIxtQdFN0U7lmgAEGGGCAAQYYYIABBhhggAEGGGCAAQYYYIABBhjoaUDRrWcAN3JF1r654oABBhhggAEGGGCAAQYYYIABBhhggAEGGGCAAQYY6GZA0U3RTeWaAQYYYIABBhhggAEGGGCAAQYYYIABBhhggAEGGGCgpwFFt54BVN3tVt0VJ3FigAEGGGCAAQYYYIABBhhggAEGGGCAAQYYYICBjWxA0U3RTeWaAQYYYIABBhhggAEGGGCAAQYYYIABBhhggAEGGGCgpwFFt54B3MgVWfvmigMGGGCAAQYYYIABBhhggAEGGGCAAQYYYIABBhhgoJsBRTdFN5VrBhhggAEGGGCAAQYYYIABBhhggAEGGGCAAQYYYICBngYU3XoGUHW3W3VXnMSJAQYYYIABBhhggAEGGGCAAQYYYIABBhhggAEGNrIBRTdFN5VrBhhggAEGGGCAAQYYYIABBhhggAEGGGCAAQYYYICBngYU3XoGcCNXZO2bKw4YYIABBhhggAEGGGCAAQYYYIABBhhggAEGGGCAgW4GFN0U3VSuGWCAAQYYYIABBhhggAEGGGCAAQYYYIABBhhggAEGehpQdOsZQNXdbtVdcRInBhhggAEGGGCAAQYYYIABBhhggAEGGGCAAQYY2MgGFN0U3VSuGWCAAQYYYIABBhhggAEGGGCAAQYYYIABBhhggAEGehpQdOsZwI1ckbVvrjhggAEGGGCAAQYYYIABBhhggAEGGGCAAQYYYIABBroZUHRTdFO5ZoABBhhggAEGGGCAAQYYYIABBhhggAEGGGCAAQYY6GlA0a1nAFV3u1V3xUmcGGCAAQYYYIABBhhggAEGGGCAAQYYYIABBhhgYCMbUHRTdFO5ZoABBhhggAEGGGCAAQYYYIABBhhggAEGGGCAAQYY6GlA0a1nADdyRda+ueKAAQYYYIABBhhggAEGGGCAAQYYYIABBhhggAEGGOhmQNFN0U3lmgEGGGCAAQYYYIABBhhggAEGGGCAAQYYYIABBhhgoKcBRbeeAVTd7VbdFSdxYoABBhhggAEGGGCAAQYYYIABBhhggAEGGGCAgY1sQNFN0U3lmgEGGGCAAQYYYIABBhhggAEGGGCAAQYYYIABBhhgoKcBRbeeAdzIFVn75ooDBhhggAEGGGCAAQYYYIABBhhggAEGGGCAAQYYYKCbAUU3RTeVawYYYIABBhhggAEGGGCAAQYYYIABBhhggAEGGGCAgZ4GFN16BlB1t1t1V5zEiQEGGGCAAQYYYIABBhhggAEGGGCAAQYYYIABBjayAUU3RTeVawYYYIABBhhggAEGGGCAAQYYYIABBhhggAEGGGCAgZ4GFN16BnAjV2TtmysOGGCAAQYYYIABBhhggAEGGGCAAQYYYIABBhhggIFuBhTdFN1UrhlggAEGGGCAAQYYYIABBhhggAEGGGCAAQYYYIABBnoaUHTrGUDV3W7VXXESJwYYYIABBhhggAEGGGCAAQYYYIABBhhggAEGGNjIBhTdFN1UrhlggAEGGGCAAQYYYIABBhhggAEGGGCAAQYYYIABBnoaUHTrGcCNXJG1b644YIABBhhggAEGGGCAAQYYYIABBhhggAEGGGCAAQa6GVB0U3RTuWaAAQYYYIABBhhggAEGGGCAAQYYYIABBhhggAEGGOhpQNGtZwBVd7tVd8VJnBhggAEGGGCAAQYYYIABBhhggAEGGGCAAQYYYGAjG1B0U3RTuWaAAQYYYIABBhhggAEGGGCAAQYYYIABBhhggAEGGOhpQNGtZwA3ckXWvrnigAEGGGCAAQYYYIABBhhggAEGGGCAAQYYYIABBhjoZkDRTdFN5ZoBBhhggAEGGGCAAQYYYIABBhhggAEGGGCAAQYYYKCnAUW3ngFU3e1W3RUncWKAAQYYYIABBhhggAEGGGCAAQYYYIABBhhggIGNbEDRTdFN5ZoBBhhggAEGGGCAAQYYYIABBhhggAEGGGCAAQYYYKCnAUW3ngHcyBVZ++aKAwYYYIABBhhggAEGGGCAAQYYYIABBhhggAEGGGCgmwFFN0U3lWsGGGCAAQYYYIABBhhggAEGGGCAAQYYYIABBhhggIGeBhTdegZQdbdbdVecxIkBBhhggAEGGGCAAQYYYIABBhhggAEGGGCAAQY2sgFFN0U3lWsGGGCAAQYYYIABBhhggAEGGGCAAQYYYIABBhhggIGeBhTdegZwI1dk7ZsrDhhggAEGGGCAAQYYYIABBhhggAEGGGCAAQYYYICBbgYU3RTdVK4ZYIABBhhggAEGGGCAAQYYYIABBhhggAEGGGCAAQZ6GlB06xlA1d1u1V1xEicGGGCAAQYYYIABBhhggAEGGGCAAQYYYIABBhjYyAYU3RTdVK4ZYIABBhhggAEGGGCAAQYYYIABBhhggAEGGGCAAQZ6GlB06xnAjVyRtW+uOGCAAQYYYIABBhhggAEGGGCAAQYYYIABBhhggAEGuhlQdFN0U7lmgAEGGGCAAQYYYIABBhhggAEGGGCAAQYYYIABBhjoaUDRrWcAVXe7VXfFSZwYYIABBhhggAEGGGCAAQYYYIABBhhggAEGGGBgIxtQdFN0U7lmgAEGGGCAAQYYYIABBhhggAEGGGCAAQYYYIABBhjoaUDRrWcAN3JF1r654oABBhhggAEGGGCAAQYYYIABBhhggAEGGGCAAQYY6GZA0U3RTeWaAQYYYIABBhhggAEGGGCAAQYYYIABBhhggAEGGGCgpwFFt54BVN3tVt0VJ3FigAEGGGCAAQYYYIABBhhggAEGGGCAAQYYYICBjWxA0U3RTeWaAQYYYIABBhhggAEGGGCAAQYYYIABBhhggAEGGGCgpwFFt54B3MgVWfvmigMGGGCAAQYYYIABBhhggAEGGGCAAQYYYIABBhhgoJsBRTdFN5VrBhhggAEGGGCAAQYYYIABBhhggAEGGGCAAQYYYICBngYU3XoGUHW3W3VXnMSJAQYYYIABBhhggAEGGGCAAQYYYIABBhhggAEGNrIBRTdFN5VrBhhggAEGGGCAAQYYYIABBhhggAEGGGCAAQYYYICBngYU3XoGcCNXZO2bKw4YYIABBhhggAEGGGCAAQYYYIABBhhggAEGGGCAgW4GFN0U3VSuGWCAAQYYYIABBhhggAEGGGCAAQYYYIABBhhggAEGehpQdOsZQNXdbtVdcRInBhhggAEGGGCAAQYYYIABBhhggAEGGGCAAQYY2MgGFN0U3VSuGWCAAQYYYIABBhhggAEGGGCAAQYYYIABBhhggAEGehpQdOsZwI1ckbVvrjhggAEGGGCAAQYYYIABBhhggAEGGGCAAQYYYIABBroZUHRTdFO5ZoABBhhggAEGGGCAAQYYYIABBhhggAEGGGCAAQYY6GlA0a1nAFV3u1V3xUmcGGCAAQYYYIABBhhggAEGGGCAAQYYYIABBhhgYCMbUHRTdFO5ZoABBhhggAEGGGCAAQYYYIABBhhggAEGGGCAAQYY6GlA0a1nADdyRda+ueKAAQYYYIABBhhggAEGGGCAAQYYYIABBhhggAEGGOhmQNFN0U3lmgEGGGCAAQYYYIABBhj4/9u1YxsIgSAIgoRCSJhkSwiEtJ/CiZbeOBX+Gldqb9CABjSgAQ1oQAMa0IAGNKABDcQGjG4R0Lq7tu5y4qQBDWhAAxrQgAY0oAENaEADGtCABjSgAQ1oQAMa0MDODRjdjG6Waw1oQAMa0IAGNKABDWhAAxrQgAY0oAENaEADGtCABjSggdiA0S0C7rzIeps/DjSgAQ1oQAMa0IAGNKABDWhAAxrQgAY0oAENaEADGtDAWgNGN6Ob5VoDGtCABjSgAQ1oQAMa0IAGNKABDWhAAxrQgAY0oAENaCA2YHSLgNbdtXWXEycNaEADGtCABjSgAQ1oQAMa0IAGNKABDWhAAxrQgAZ2bsDoZnSzXGtAAxrQgAY0oAENaEADGtCABpGTrU8AAAlNSURBVDSgAQ1oQAMa0IAGNKABDcQGjG4RcOdF1tv8caABDWhAAxrQgAY0oAENaEADGtCABjSgAQ1oQAMa0IAG1howuhndLNca0IAGNKABDWhAAxrQgAY0oAENaEADGtCABjSgAQ1oQAOxAaNbBLTurq27nDhpQAMa0IAGNKABDWhAAxrQgAY0oAENaEADGtCABjSwcwNGN6Ob5VoDGtCABjSgAQ1oQAMa0IAGNKABDWhAAxrQgAY0oAENaCA2cIyPAAECBAgQIECAAAECBAgQIECAAAECBAgQIECAAIEkYHRLfI4JECBAgAABAgQIECBAgAABAgQIECBAgAABAgQIzBjdVECAAAECBAgQIECAAAECBAgQIECAAAECBAgQIEAgChjdIqBzAgQIECBAgAABAgQIECBAgAABAgQIECBAgAABAkY3DRAgQIAAAQIECBAgQIAAAQIECBAgQIAAAQIECBCIAka3COicAAECBAgQIECAAAECBAgQIECAAAECBAgQIECAgNFNAwQIECBAgAABAgQIECBAgAABAgQIECBAgAABAgSigNEtAjonQIAAAQIECBAgQIAAAQIECBAgQIAAAQIECBAgYHTTAAECBAgQIECAAAECBAgQIECAAAECBAgQIECAAIEoYHSLgM4JECBAgAABAgQIECBAgAABAgQIECBAgAABAgQIGN00QIAAAQIECBAgQIAAAQIECBAgQIAAAQIECBAgQCAKGN0ioHMCBAgQIECAAAECBAgQIECAAAECBAgQIECAAAECRjcNECBAgAABAgQIECBAgAABAgQIECBAgAABAgQIEIgCRrcI6JwAAQIECBAgQIAAAQIECBAgQIAAAQIECBAgQICA0U0DBAgQIECAAAECBAgQIECAAAECBAgQIECAAAECBKKA0S0COidAgAABAgQIECBAgAABAgQIECBAgAABAgQIECBgdNMAAQIECBAgQIAAAQIECBAgQIAAAQIECBAgQIAAgShgdIuAzgkQIECAAAECBAgQIECAAAECBAgQIECAAAECBAgY3TRAgAABAgQIECBAgAABAgQIECBAgAABAgQIECBAIAoY3SKgcwIECBAgQIAAAQIECBAgQIAAAQIECBAgQIAAAQJGNw0QIECAAAECBAgQIECAAAECBAgQIECAAAECBAgQiAJGtwjonAABAgQIECBAgAABAgQIECBAgAABAgQIECBAgIDRTQMECBAgQIAAAQIECBAgQIAAAQIECBAgQIAAAQIEooDRLQI6J0CAAAECBAgQIECAAAECBAgQIECAAAECBAgQIGB00wABAgQIECBAgAABAgQIECBAgAABAgQIECBAgACBKGB0i4DOCRAgQIAAAQIECBAgQIAAAQIECBAgQIAAAQIECBjdNECAAAECBAgQIECAAAECBAgQIECAAAECBAgQIEAgChjdIqBzAgQIECBAgAABAgQIECBAgAABAgQIECBAgAABAkY3DRAgQIAAAQIECBAgQIAAAQIECBAgQIAAAQIECBCIAka3COicAAECBAgQIECAAAECBAgQIECAAAECBAgQIECAgNFNAwQIECBAgAABAgQIECBAgAABAgQIECBAgAABAgSigNEtAjonQIAAAQIECBAgQIAAAQIECBAgQIAAAQIECBAgYHTTAAECBAgQIECAAAECBAgQIECAAAECBAgQIECAAIEoYHSLgM4JECBAgAABAgQIECBAgAABAgQIECBAgAABAgQIGN00QIAAAQIECBAgQIAAAQIECBAgQIAAAQIECBAgQCAKGN0ioHMCBAgQIECAAAECBAgQIECAAAECBAgQIECAAAECRjcNECBAgAABAgQIECBAgAABAgQIECBAgAABAgQIEIgCRrcI6JwAAQIECBAgQIAAAQIECBAgQIAAAQIECBAgQICA0U0DBAgQIECAAAECBAgQIECAAAECBAgQIECAAAECBKKA0S0COidAgAABAgQIECBAgAABAgQIECBAgAABAgQIECBgdNMAAQIECBAgQIAAAQIECBAgQIAAAQIECBAgQIAAgShgdIuAzgkQIECAAAECBAgQIECAAAECBAgQIECAAAECBAgY3TRAgAABAgQIECBAgAABAgQIECBAgAABAgQIECBAIAoY3SKgcwIECBAgQIAAAQIECBAgQIAAAQIECBAgQIAAAQJGNw0QIECAAAECBAgQIECAAAECBAgQIECAAAECBAgQiAJGtwjonAABAgQIECBAgAABAgQIECBAgAABAgQIECBAgIDRTQMECBAgQIAAAQIECBAgQIAAAQIECBAgQIAAAQIEooDRLQI6J0CAAAECBAgQIECAAAECBAgQIECAAAECBAgQIGB00wABAgQIECBAgAABAgQIECBAgAABAgQIECBAgACBKGB0i4DOCRAgQIAAAQIECBAgQIAAAQIECBAgQIAAAQIECBjdNECAAAECBAgQIECAAAECBAgQIECAAAECBAgQIEAgChjdIqBzAgQIECBAgAABAgQIECBAgAABAgQIECBAgAABAkY3DRAgQIAAAQIECBAgQIAAAQIECBAgQIAAAQIECBCIAka3COicAAECBAgQIECAAAECBAgQIECAAAECBAgQIECAgNFNAwQIECBAgAABAgQIECBAgAABAgQIECBAgAABAgSigNEtAjonQIAAAQIECBAgQIAAAQIECBAgQIAAAQIECBAgYHTTAAECBAgQIECAAAECBAgQIECAAAECBAgQIECAAIEoYHSLgM4JECBAgAABAgQIECBAgAABAgQIECBAgAABAgQIGN00QIAAAQIECBAgQIAAAQIECBAgQIAAAQIECBAgQCAKGN0ioHMCBAgQIECAAAECBAgQIECAAAECBAgQIECAAAECRjcNECBAgAABAgQIECBAgAABAgQIECBAgAABAgQIEIgCRrcI6JwAAQIECBAgQIAAAQIECBAgQIAAAQIECBAgQICA0U0DBAgQIECAAAECBAgQIECAAAECBAgQIECAAAECBKKA0S0COidAgAABAgQIECBAgAABAgQIECBAgAABAgQIECBgdNMAAQIECBAgQIAAAQIECBAgQIAAAQIECBAgQOB9Z+575nlYEPgkYHT7xOaIAAECBAgQIECAAAECBAgQIECAAAECBAgQ2ErgumaOY+Y8t3qWx/xP4AcQGlnWZLRxLAAAAABJRU5ErkJggg==;" vertex="1" parent="1">
          <mxGeometry x="10" y="40" width="1410.11" height="500" as="geometry" />
        </mxCell>
        <mxCell id="u2iK9LZyPSzpuq2VL-s6-1" value="See your last Statement" style="rounded=1;whiteSpace=wrap;html=1;fontSize=33;align=center;" vertex="1" parent="1">
          <mxGeometry x="480" y="1000" width="410" height="60" as="geometry" />
        </mxCell>
        <mxCell id="u2iK9LZyPSzpuq2VL-s6-2" value="" style="group" vertex="1" connectable="0" parent="1">
          <mxGeometry x="1050" y="600" width="220" height="303" as="geometry" />
        </mxCell>
        <mxCell id="UtJH4K_h-ML24eUrIYq8-11" value="Amount Not Yet Due" style="text;html=1;align=center;verticalAlign=middle;resizable=0;points=[];autosize=1;fontSize=22;" vertex="1" parent="u2iK9LZyPSzpuq2VL-s6-2">
          <mxGeometry y="84" width="210" height="30" as="geometry" />
        </mxCell>
        <mxCell id="UtJH4K_h-ML24eUrIYq8-14" value="£x.xx" style="text;html=1;align=center;verticalAlign=middle;resizable=0;points=[];autosize=1;fontSize=33;fontStyle=1" vertex="1" parent="u2iK9LZyPSzpuq2VL-s6-2">
          <mxGeometry x="55" width="100" height="50" as="geometry" />
        </mxCell>
        <mxCell id="UtJH4K_h-ML24eUrIYq8-19" value="&lt;font style=&quot;font-size: 20px&quot;&gt;&lt;i&gt;Some Explanatory Text&lt;/i&gt;&lt;/font&gt;" style="text;html=1;align=center;verticalAlign=middle;resizable=0;points=[];autosize=1;fontSize=33;" vertex="1" parent="u2iK9LZyPSzpuq2VL-s6-2">
          <mxGeometry y="140" width="220" height="50" as="geometry" />
        </mxCell>
        <mxCell id="UtJH4K_h-ML24eUrIYq8-22" value="" style="shape=image;verticalLabelPosition=bottom;labelBackgroundColor=#ffffff;verticalAlign=middle;aspect=fixed;imageAspect=0;image=data:image/png,iVBORw0KGgoAAAANSUhEUgAAAI0AAAA1CAYAAAB8x2i9AAAHeElEQVR4Ae2dUWRcWRjH5z3UEGKeIlWia4jEUDtCNKmEZrSVhGgSnaWrT3koTclDlhLzUoYKq5QoVVmGppRNqEotyygxMX1Zuy/ztvoY9mHHLuu/zp37nfvdc8+5kzR3Mrud7yHO3Jm5557znd/3/77v3Jib+rP5F+RPbHAaBlLml//+vYx/fh0HPqaBep/89ZoNPqa99VccmGzQsYam+cdvLVh6zUgyX6cwKPFQXBAs1GpoPHURAzoN2Kuqq7ggWKj1oFFS1KtGkXm3T0HMUOVBIyrT3nC9DJepNh40kvQKNLFO8TEdClEtaCSXkfDchgHKZ1Qr0LQxVqwH9tC5Ak0PLXZS0As0As2pw7FAI9AINElJsPTjriJFaURpRGlEIdwKkZRtRGlEaURpkvIm6cetWKI0ojT/BaUZQilbRMrxd3H6JlZLl9GouklWXt58OYmM38fYo8HwxGoZbN/yr5ErYPd9fF/Yz2GWxrM8gk9xoFTG/bEvovymTb/vRzDv9zu/NRAeI79GrR+/PL+C1dsL+CpH417C1DeT2H6ewXEtep2jzSVtw7UXF9x9V8Z9Oy3Fjvf46XXd32w54+6Pj9vxugNKEw+Nhim3gFLF9R+B/di9y8DLTeLgMGzY5qtx5P0Fy9wfRtMxQdQHsLNMfc1hez/cTyQMaWiKSE2Po/oh5vsngOb41RXMf03Xt7eZ2WvY+dGwxZs8xgj0mPlV11c0DFOPXTBwe85h+23MnJx2DM7pHjTKILkCdt4Fg9EL+HY0UAbfcFHvSOPgPhlsEaVXdm9svggUK//dUAxc/jg4NNkiMndG0LAogTfWNtAcv5jUYGtnIRDMNuJEgyhfJciiTuNdvzaEEimX6u9GDg3bolcvY5Wud2vU/h3beY73OguNGQpqF3D89hJK87TYRWQeRFXi6BFJ8yLy077hruZxZC7e+xEsk9Fu5aKLeziEEhleqVWcapCBDGjUYufXHbDFQfNuVIcu1cfF2xPYqWTQpDkcptGojGJtNrCFciIeaoMQtYKNlxan0KGJ4FqwKunxsxmtRlHnszgt2cLRni80NAi+mNkJVMmQ6vPDYWz4ICigGjoW2w3XeDznG2QFy9+H84qjzUXnZ1rVaEzUWqBJZVewbMtZnNDwcLCC2c1Bt8LV0qiu0zgNJ2IhKt65CJoioiEqjb179PnZQ5OyW3egqfehuk4TKWCHJbKNMkGwhPLrMESpu1kc0+JSWxtEmdSIqwn3dJsK0flmy6CZulNg4WUxmoO5oNnPYYrCgam25vXUMU/ss9ex+zN5PwtRZl6n5k0qencCGzd8e5rhJ+HQ1F1oHgbQ7P7kG4kbgk0+CFd2T2n+MKGTxjEvlPRj7x7J/gmqIL6QDBpVETW2CrqKi+RgDmgaT25qhStVCID4loeQ1WdBUsxDVKiv10Gi/O3TfjQeL/jXDNtI5XSUTyURmroHzYdhrFEuonIVf9F4ma0MoUMIS4wj5bd3LodkDuXNIPkde3jJHRo4LPTagAb1cPgIVVQOaFwqqudD1+ItU8ZQiOEhan1I2yRwJF+ZmLoF5f8FHNwn5wzDFDsWPi7L6/MNTyoR3s9igyV/AQQ8DzCrBfaZKdM0KWZ08qxUbgZ7WurjPV0bMQKNCh8D2LlDytWqqLy9nvOAps7CUG7cz//Yezpks70rComHw1ijMMmUW8+VbHfKtrPQ0IBdLd8HYWpiS/qcKsQmHCS+Le+afxJOjE9kLBs06hofhlCi3IkSYwc0nxOeeBjh4UmNOQhRfp7H1IcrcpAPtvJE3mdSoUmNp3vQTF/DHtujCeSW5DSmnbaU32phuWfZSnQGmBMgFzTq3HesxM8uorR1RZfVQUjog9qBpkRY7fPE7kCrfp2JsK+ODBKlzAFEPGnuA5jjzW9lcPCA1DG50NQFaFaQvz2D8tPB8NY5z3FcqhR6315+o852o0miTwIK/04cNOr2RiXYidZhMFtECJo6C6fZM5TcNC5eIFydwyxVTfcuG9UkD1EFtod19g097mSdVZoTLlwgqzHqEoKmCGv5fQ7QKOOFKip/XGFoWmqj73d5m3t57O0PnGpzjy+UTYnNMOaNTW9ZBLZMMjSpa3QfGu5FoT0KW+LKPClrk9zOK01rIY2KKqI0rbGf7TaCMX9WYrcUbgZ7tpu+LM9qfc9mJ6NvUrQTtl2Hhie4rT2W+Anxe0lB5UXnnBc00YoqojT+Anz2DUtzAUPOVUQqEprIBvwGbRGpBKsmUr4uQ8Nj/wk9gieNkfL7HKFRi8oqKhc0nqE/418jaIF4y0OULTTRdz9tFRLf0KO+VdsBaIh4abmhv6TXAo0ZBuRY7zq7QBdoBJK2kJjwCDQCjUBjeoUcJ59bitKI0ojSiLIkryymTUVpRGlEaUyvkOPklUeURpRGlEaUJXllMW0qSiNKk4DSyMMzTm1E0xO/6GPb7wjLL5Z3Xt7/z1BZf7Fcno0g0MRBbX02gkpyRG0EHBs4psooVrxfLFcv5HlPAo0JjQIm9nlPVFIpKfJUR5Lj3kyOT/NkOYJGWnmeZTsG/gURUvYzuR7q6wAAAABJRU5ErkJggg==;" vertex="1" parent="u2iK9LZyPSzpuq2VL-s6-2">
          <mxGeometry x="39.5" y="250" width="141" height="53" as="geometry" />
        </mxCell>
        <mxCell id="u2iK9LZyPSzpuq2VL-s6-3" value="" style="group" vertex="1" connectable="0" parent="1">
          <mxGeometry x="580" y="600" width="220" height="303" as="geometry" />
        </mxCell>
        <mxCell id="UtJH4K_h-ML24eUrIYq8-10" value="Amount Due at the &lt;br&gt;End of the Month" style="text;html=1;align=center;verticalAlign=middle;resizable=0;points=[];autosize=1;fontSize=22;" vertex="1" parent="u2iK9LZyPSzpuq2VL-s6-3">
          <mxGeometry x="10" y="69" width="200" height="60" as="geometry" />
        </mxCell>
        <mxCell id="UtJH4K_h-ML24eUrIYq8-13" value="£x.xx" style="text;html=1;align=center;verticalAlign=middle;resizable=0;points=[];autosize=1;fontSize=33;fontStyle=1" vertex="1" parent="u2iK9LZyPSzpuq2VL-s6-3">
          <mxGeometry x="60" width="100" height="50" as="geometry" />
        </mxCell>
        <mxCell id="UtJH4K_h-ML24eUrIYq8-18" value="&lt;font style=&quot;font-size: 20px&quot;&gt;&lt;i&gt;Some Explanatory Text&lt;/i&gt;&lt;/font&gt;" style="text;html=1;align=center;verticalAlign=middle;resizable=0;points=[];autosize=1;fontSize=33;" vertex="1" parent="u2iK9LZyPSzpuq2VL-s6-3">
          <mxGeometry y="150" width="220" height="50" as="geometry" />
        </mxCell>
        <mxCell id="UtJH4K_h-ML24eUrIYq8-21" value="" style="shape=image;verticalLabelPosition=bottom;labelBackgroundColor=#ffffff;verticalAlign=middle;aspect=fixed;imageAspect=0;image=data:image/png,iVBORw0KGgoAAAANSUhEUgAAAI0AAAA1CAYAAAB8x2i9AAAHeElEQVR4Ae2dUWRcWRjH5z3UEGKeIlWia4jEUDtCNKmEZrSVhGgSnaWrT3koTclDlhLzUoYKq5QoVVmGppRNqEotyygxMX1Zuy/ztvoY9mHHLuu/zp37nfvdc8+5kzR3Mrud7yHO3Jm5557znd/3/77v3Jib+rP5F+RPbHAaBlLml//+vYx/fh0HPqaBep/89ZoNPqa99VccmGzQsYam+cdvLVh6zUgyX6cwKPFQXBAs1GpoPHURAzoN2Kuqq7ggWKj1oFFS1KtGkXm3T0HMUOVBIyrT3nC9DJepNh40kvQKNLFO8TEdClEtaCSXkfDchgHKZ1Qr0LQxVqwH9tC5Ak0PLXZS0As0As2pw7FAI9AINElJsPTjriJFaURpRGlEIdwKkZRtRGlEaURpkvIm6cetWKI0ojT/BaUZQilbRMrxd3H6JlZLl9GouklWXt58OYmM38fYo8HwxGoZbN/yr5ErYPd9fF/Yz2GWxrM8gk9xoFTG/bEvovymTb/vRzDv9zu/NRAeI79GrR+/PL+C1dsL+CpH417C1DeT2H6ewXEtep2jzSVtw7UXF9x9V8Z9Oy3Fjvf46XXd32w54+6Pj9vxugNKEw+Nhim3gFLF9R+B/di9y8DLTeLgMGzY5qtx5P0Fy9wfRtMxQdQHsLNMfc1hez/cTyQMaWiKSE2Po/oh5vsngOb41RXMf03Xt7eZ2WvY+dGwxZs8xgj0mPlV11c0DFOPXTBwe85h+23MnJx2DM7pHjTKILkCdt4Fg9EL+HY0UAbfcFHvSOPgPhlsEaVXdm9svggUK//dUAxc/jg4NNkiMndG0LAogTfWNtAcv5jUYGtnIRDMNuJEgyhfJciiTuNdvzaEEimX6u9GDg3bolcvY5Wud2vU/h3beY73OguNGQpqF3D89hJK87TYRWQeRFXi6BFJ8yLy077hruZxZC7e+xEsk9Fu5aKLeziEEhleqVWcapCBDGjUYufXHbDFQfNuVIcu1cfF2xPYqWTQpDkcptGojGJtNrCFciIeaoMQtYKNlxan0KGJ4FqwKunxsxmtRlHnszgt2cLRni80NAi+mNkJVMmQ6vPDYWz4ICigGjoW2w3XeDznG2QFy9+H84qjzUXnZ1rVaEzUWqBJZVewbMtZnNDwcLCC2c1Bt8LV0qiu0zgNJ2IhKt65CJoioiEqjb179PnZQ5OyW3egqfehuk4TKWCHJbKNMkGwhPLrMESpu1kc0+JSWxtEmdSIqwn3dJsK0flmy6CZulNg4WUxmoO5oNnPYYrCgam25vXUMU/ss9ex+zN5PwtRZl6n5k0qencCGzd8e5rhJ+HQ1F1oHgbQ7P7kG4kbgk0+CFd2T2n+MKGTxjEvlPRj7x7J/gmqIL6QDBpVETW2CrqKi+RgDmgaT25qhStVCID4loeQ1WdBUsxDVKiv10Gi/O3TfjQeL/jXDNtI5XSUTyURmroHzYdhrFEuonIVf9F4ma0MoUMIS4wj5bd3LodkDuXNIPkde3jJHRo4LPTagAb1cPgIVVQOaFwqqudD1+ItU8ZQiOEhan1I2yRwJF+ZmLoF5f8FHNwn5wzDFDsWPi7L6/MNTyoR3s9igyV/AQQ8DzCrBfaZKdM0KWZ08qxUbgZ7WurjPV0bMQKNCh8D2LlDytWqqLy9nvOAps7CUG7cz//Yezpks70rComHw1ijMMmUW8+VbHfKtrPQ0IBdLd8HYWpiS/qcKsQmHCS+Le+afxJOjE9kLBs06hofhlCi3IkSYwc0nxOeeBjh4UmNOQhRfp7H1IcrcpAPtvJE3mdSoUmNp3vQTF/DHtujCeSW5DSmnbaU32phuWfZSnQGmBMgFzTq3HesxM8uorR1RZfVQUjog9qBpkRY7fPE7kCrfp2JsK+ODBKlzAFEPGnuA5jjzW9lcPCA1DG50NQFaFaQvz2D8tPB8NY5z3FcqhR6315+o852o0miTwIK/04cNOr2RiXYidZhMFtECJo6C6fZM5TcNC5eIFydwyxVTfcuG9UkD1EFtod19g097mSdVZoTLlwgqzHqEoKmCGv5fQ7QKOOFKip/XGFoWmqj73d5m3t57O0PnGpzjy+UTYnNMOaNTW9ZBLZMMjSpa3QfGu5FoT0KW+LKPClrk9zOK01rIY2KKqI0rbGf7TaCMX9WYrcUbgZ7tpu+LM9qfc9mJ6NvUrQTtl2Hhie4rT2W+Anxe0lB5UXnnBc00YoqojT+Anz2DUtzAUPOVUQqEprIBvwGbRGpBKsmUr4uQ8Nj/wk9gieNkfL7HKFRi8oqKhc0nqE/418jaIF4y0OULTTRdz9tFRLf0KO+VdsBaIh4abmhv6TXAo0ZBuRY7zq7QBdoBJK2kJjwCDQCjUBjeoUcJ59bitKI0ojSiLIkryymTUVpRGlEaUyvkOPklUeURpRGlEaUJXllMW0qSiNKk4DSyMMzTm1E0xO/6GPb7wjLL5Z3Xt7/z1BZf7Fcno0g0MRBbX02gkpyRG0EHBs4psooVrxfLFcv5HlPAo0JjQIm9nlPVFIpKfJUR5Lj3kyOT/NkOYJGWnmeZTsG/gURUvYzuR7q6wAAAABJRU5ErkJggg==;" vertex="1" parent="u2iK9LZyPSzpuq2VL-s6-3">
          <mxGeometry x="39.5" y="250" width="141" height="53" as="geometry" />
        </mxCell>
        <mxCell id="u2iK9LZyPSzpuq2VL-s6-4" value="" style="group" vertex="1" connectable="0" parent="1">
          <mxGeometry x="110" y="610" width="220" height="303" as="geometry" />
        </mxCell>
        <mxCell id="UtJH4K_h-ML24eUrIYq8-9" value="Amount Overdue" style="text;html=1;align=center;verticalAlign=middle;resizable=0;points=[];autosize=1;fontSize=22;" vertex="1" parent="u2iK9LZyPSzpuq2VL-s6-4">
          <mxGeometry x="20" y="84" width="180" height="30" as="geometry" />
        </mxCell>
        <mxCell id="UtJH4K_h-ML24eUrIYq8-12" value="£x.xx" style="text;html=1;align=center;verticalAlign=middle;resizable=0;points=[];autosize=1;fontSize=33;fontStyle=1" vertex="1" parent="u2iK9LZyPSzpuq2VL-s6-4">
          <mxGeometry x="60" width="100" height="50" as="geometry" />
        </mxCell>
        <mxCell id="UtJH4K_h-ML24eUrIYq8-17" value="&lt;font style=&quot;font-size: 20px&quot;&gt;&lt;i&gt;Some Explanatory Text&lt;/i&gt;&lt;/font&gt;" style="text;html=1;align=center;verticalAlign=middle;resizable=0;points=[];autosize=1;fontSize=33;" vertex="1" parent="u2iK9LZyPSzpuq2VL-s6-4">
          <mxGeometry y="150" width="220" height="50" as="geometry" />
        </mxCell>
        <mxCell id="UtJH4K_h-ML24eUrIYq8-20" value="" style="shape=image;verticalLabelPosition=bottom;labelBackgroundColor=#ffffff;verticalAlign=middle;aspect=fixed;imageAspect=0;image=data:image/png,iVBORw0KGgoAAAANSUhEUgAAAI0AAAA1CAYAAAB8x2i9AAAHeElEQVR4Ae2dUWRcWRjH5z3UEGKeIlWia4jEUDtCNKmEZrSVhGgSnaWrT3koTclDlhLzUoYKq5QoVVmGppRNqEotyygxMX1Zuy/ztvoY9mHHLuu/zp37nfvdc8+5kzR3Mrud7yHO3Jm5557znd/3/77v3Jib+rP5F+RPbHAaBlLml//+vYx/fh0HPqaBep/89ZoNPqa99VccmGzQsYam+cdvLVh6zUgyX6cwKPFQXBAs1GpoPHURAzoN2Kuqq7ggWKj1oFFS1KtGkXm3T0HMUOVBIyrT3nC9DJepNh40kvQKNLFO8TEdClEtaCSXkfDchgHKZ1Qr0LQxVqwH9tC5Ak0PLXZS0As0As2pw7FAI9AINElJsPTjriJFaURpRGlEIdwKkZRtRGlEaURpkvIm6cetWKI0ojT/BaUZQilbRMrxd3H6JlZLl9GouklWXt58OYmM38fYo8HwxGoZbN/yr5ErYPd9fF/Yz2GWxrM8gk9xoFTG/bEvovymTb/vRzDv9zu/NRAeI79GrR+/PL+C1dsL+CpH417C1DeT2H6ewXEtep2jzSVtw7UXF9x9V8Z9Oy3Fjvf46XXd32w54+6Pj9vxugNKEw+Nhim3gFLF9R+B/di9y8DLTeLgMGzY5qtx5P0Fy9wfRtMxQdQHsLNMfc1hez/cTyQMaWiKSE2Po/oh5vsngOb41RXMf03Xt7eZ2WvY+dGwxZs8xgj0mPlV11c0DFOPXTBwe85h+23MnJx2DM7pHjTKILkCdt4Fg9EL+HY0UAbfcFHvSOPgPhlsEaVXdm9svggUK//dUAxc/jg4NNkiMndG0LAogTfWNtAcv5jUYGtnIRDMNuJEgyhfJciiTuNdvzaEEimX6u9GDg3bolcvY5Wud2vU/h3beY73OguNGQpqF3D89hJK87TYRWQeRFXi6BFJ8yLy077hruZxZC7e+xEsk9Fu5aKLeziEEhleqVWcapCBDGjUYufXHbDFQfNuVIcu1cfF2xPYqWTQpDkcptGojGJtNrCFciIeaoMQtYKNlxan0KGJ4FqwKunxsxmtRlHnszgt2cLRni80NAi+mNkJVMmQ6vPDYWz4ICigGjoW2w3XeDznG2QFy9+H84qjzUXnZ1rVaEzUWqBJZVewbMtZnNDwcLCC2c1Bt8LV0qiu0zgNJ2IhKt65CJoioiEqjb179PnZQ5OyW3egqfehuk4TKWCHJbKNMkGwhPLrMESpu1kc0+JSWxtEmdSIqwn3dJsK0flmy6CZulNg4WUxmoO5oNnPYYrCgam25vXUMU/ss9ex+zN5PwtRZl6n5k0qencCGzd8e5rhJ+HQ1F1oHgbQ7P7kG4kbgk0+CFd2T2n+MKGTxjEvlPRj7x7J/gmqIL6QDBpVETW2CrqKi+RgDmgaT25qhStVCID4loeQ1WdBUsxDVKiv10Gi/O3TfjQeL/jXDNtI5XSUTyURmroHzYdhrFEuonIVf9F4ma0MoUMIS4wj5bd3LodkDuXNIPkde3jJHRo4LPTagAb1cPgIVVQOaFwqqudD1+ItU8ZQiOEhan1I2yRwJF+ZmLoF5f8FHNwn5wzDFDsWPi7L6/MNTyoR3s9igyV/AQQ8DzCrBfaZKdM0KWZ08qxUbgZ7WurjPV0bMQKNCh8D2LlDytWqqLy9nvOAps7CUG7cz//Yezpks70rComHw1ijMMmUW8+VbHfKtrPQ0IBdLd8HYWpiS/qcKsQmHCS+Le+afxJOjE9kLBs06hofhlCi3IkSYwc0nxOeeBjh4UmNOQhRfp7H1IcrcpAPtvJE3mdSoUmNp3vQTF/DHtujCeSW5DSmnbaU32phuWfZSnQGmBMgFzTq3HesxM8uorR1RZfVQUjog9qBpkRY7fPE7kCrfp2JsK+ODBKlzAFEPGnuA5jjzW9lcPCA1DG50NQFaFaQvz2D8tPB8NY5z3FcqhR6315+o852o0miTwIK/04cNOr2RiXYidZhMFtECJo6C6fZM5TcNC5eIFydwyxVTfcuG9UkD1EFtod19g097mSdVZoTLlwgqzHqEoKmCGv5fQ7QKOOFKip/XGFoWmqj73d5m3t57O0PnGpzjy+UTYnNMOaNTW9ZBLZMMjSpa3QfGu5FoT0KW+LKPClrk9zOK01rIY2KKqI0rbGf7TaCMX9WYrcUbgZ7tpu+LM9qfc9mJ6NvUrQTtl2Hhie4rT2W+Anxe0lB5UXnnBc00YoqojT+Anz2DUtzAUPOVUQqEprIBvwGbRGpBKsmUr4uQ8Nj/wk9gieNkfL7HKFRi8oqKhc0nqE/418jaIF4y0OULTTRdz9tFRLf0KO+VdsBaIh4abmhv6TXAo0ZBuRY7zq7QBdoBJK2kJjwCDQCjUBjeoUcJ59bitKI0ojSiLIkryymTUVpRGlEaUyvkOPklUeURpRGlEaUJXllMW0qSiNKk4DSyMMzTm1E0xO/6GPb7wjLL5Z3Xt7/z1BZf7Fcno0g0MRBbX02gkpyRG0EHBs4psooVrxfLFcv5HlPAo0JjQIm9nlPVFIpKfJUR5Lj3kyOT/NkOYJGWnmeZTsG/gURUvYzuR7q6wAAAABJRU5ErkJggg==;" vertex="1" parent="u2iK9LZyPSzpuq2VL-s6-4">
          <mxGeometry x="50" y="250" width="141" height="53" as="geometry" />
        </mxCell>
      </root>
    </mxGraphModel>
  </diagram>
  <diagram id="QI8dI_2ShTirP9BapCcv" name="Statements">
    <mxGraphModel dx="1102" dy="587" grid="1" gridSize="10" guides="1" tooltips="1" connect="1" arrows="1" fold="1" page="1" pageScale="1" pageWidth="827" pageHeight="1169" math="0" shadow="0">
      <root>
        <mxCell id="dY4emD8DrLiBuJGkq-cZ-0" />
        <mxCell id="dY4emD8DrLiBuJGkq-cZ-1" parent="dY4emD8DrLiBuJGkq-cZ-0" />
      </root>
    </mxGraphModel>
  </diagram>
</mxfile>
